M48
; DRILL file {KiCad 9.0.7} date 2026-03-03T12:01:19+0800
; FORMAT={-:-/ absolute / metric / decimal}
; #@! TF.CreationDate,2026-03-03T12:01:19+08:00
; #@! TF.GenerationSoftware,Kicad,Pcbnew,9.0.7
; #@! TF.FileFunction,Plated,1,4,PTH
FMAT,2
METRIC
; #@! TA.AperFunction,Plated,PTH,ViaDrill
T1C0.254
; #@! TA.AperFunction,Plated,PTH,ComponentDrill
T2C0.700
; #@! TA.AperFunction,Plated,PTH,ComponentDrill
T3C0.900
; #@! TA.AperFunction,Plated,PTH,ComponentDrill
T4C2.000
%
G90
G05
T1
X116.101Y-86.054
X116.101Y-87.654
X116.101Y-89.254
X116.101Y-90.854
X116.101Y-92.454
X116.101Y-94.054
X116.101Y-95.654
X116.101Y-97.254
X116.101Y-98.854
X116.101Y-100.454
X116.101Y-102.054
X116.101Y-103.654
X116.101Y-105.254
X116.101Y-106.854
X116.101Y-111.654
X116.101Y-113.254
X116.101Y-114.854
X116.101Y-116.454
X116.101Y-118.054
X116.101Y-119.654
X116.101Y-121.254
X116.101Y-122.854
X116.101Y-124.454
X116.101Y-126.054
X116.101Y-127.654
X116.101Y-129.254
X116.101Y-130.854
X117.701Y-84.454
X117.701Y-86.054
X117.701Y-87.654
X117.701Y-89.254
X117.701Y-90.854
X117.701Y-92.454
X117.701Y-94.054
X117.701Y-95.654
X117.701Y-97.254
X117.701Y-118.054
X117.701Y-119.654
X117.701Y-127.654
X117.701Y-129.254
X117.701Y-130.854
X117.701Y-132.454
X117.953Y-100.854
X117.953Y-102.454
X117.953Y-104.486
X117.953Y-105.502
X117.953Y-115.136
X117.953Y-116.152
X118.701Y-125.249
X118.851Y-112.154
X118.969Y-104.486
X118.969Y-105.502
X118.969Y-113.104
X118.969Y-115.136
X118.969Y-116.152
X119.301Y-82.854
X119.301Y-84.454
X119.301Y-86.054
X119.301Y-87.654
X119.301Y-89.254
X119.301Y-90.854
X119.301Y-92.454
X119.301Y-94.054
X119.301Y-95.654
X119.301Y-118.054
X119.301Y-119.654
X119.301Y-129.254
X119.301Y-130.854
X119.301Y-132.454
X119.316Y-123.945
X119.316Y-124.656
X119.316Y-125.851
X119.316Y-126.562
X119.726Y-100.779
X119.985Y-102.454
X119.985Y-113.104
X120.801Y-123.554
X120.901Y-81.254
X120.901Y-82.854
X120.901Y-84.454
X120.901Y-86.054
X120.901Y-87.654
X120.901Y-89.254
X120.901Y-118.054
X120.901Y-119.654
X120.901Y-129.254
X120.901Y-130.854
X120.901Y-132.454
X121.001Y-101.438
X121.001Y-102.454
X121.001Y-103.47
X121.001Y-104.486
X121.001Y-112.088
X121.001Y-113.104
X121.001Y-114.12
X121.001Y-115.136
X122.443Y-124.254
X122.443Y-126.254
X122.494Y-93.667
X122.501Y-81.254
X122.501Y-86.054
X122.501Y-87.654
X122.501Y-89.254
X122.501Y-90.854
X122.501Y-118.054
X122.501Y-119.654
X122.501Y-130.854
X122.501Y-132.454
X123.033Y-102.454
X123.033Y-104.486
X123.033Y-105.502
X123.033Y-113.104
X123.033Y-115.136
X123.033Y-116.152
X124.049Y-104.486
X124.049Y-105.502
X124.049Y-106.518
X124.049Y-115.136
X124.049Y-116.152
X124.101Y-78.054
X124.101Y-79.654
X124.101Y-81.254
X124.101Y-108.454
X124.101Y-110.054
X124.101Y-111.654
X124.101Y-117.304
X124.208Y-88.381
X124.208Y-90.354
X124.208Y-92.017
X124.208Y-95.517
X124.208Y-97.017
X124.208Y-98.517
X124.208Y-94.017
X124.751Y-86.581
X125.065Y-102.454
X125.065Y-113.104
X125.501Y-82.965
X125.501Y-124.898
X125.501Y-125.609
X125.701Y-78.054
X125.701Y-79.654
X125.701Y-106.854
X125.701Y-108.454
X125.701Y-110.054
X125.701Y-111.654
X125.701Y-117.304
X126.201Y-127.254
X126.201Y-123.254
X126.251Y-86.581
X126.251Y-88.131
X126.251Y-96.067
X127.001Y-82.965
X127.301Y-78.054
X127.301Y-79.654
X127.301Y-81.254
X127.301Y-106.854
X127.301Y-108.454
X127.301Y-110.054
X127.301Y-111.654
X127.301Y-102.054
X127.751Y-86.581
X127.751Y-88.131
X127.751Y-89.63
X127.801Y-100.904
X128.301Y-130.854
X128.301Y-132.454
X128.501Y-82.965
X128.801Y-102.054
X128.901Y-78.054
X128.901Y-79.654
X128.901Y-81.254
X128.901Y-105.254
X128.901Y-106.854
X128.901Y-108.454
X128.901Y-110.054
X128.901Y-111.654
X128.901Y-116.454
X128.901Y-118.054
X128.901Y-120.304
X128.901Y-122.554
X128.901Y-124.804
X129.251Y-86.581
X129.251Y-88.131
X129.251Y-89.63
X129.251Y-91.117
X129.701Y-99.904
X129.901Y-130.854
X129.901Y-132.454
X130.009Y-82.965
X130.501Y-78.054
X130.501Y-79.654
X130.501Y-81.254
X130.501Y-106.854
X130.501Y-108.454
X130.501Y-110.054
X130.501Y-111.654
X130.501Y-113.254
X130.501Y-116.454
X130.501Y-118.704
X130.501Y-120.954
X130.501Y-123.204
X130.608Y-91.117
X130.751Y-86.581
X130.751Y-88.131
X130.751Y-89.63
X131.301Y-100.454
X131.301Y-102.054
X131.301Y-103.654
X131.301Y-105.254
X131.408Y-98.517
X131.501Y-130.854
X131.501Y-132.454
X131.608Y-91.117
X131.608Y-92.017
X131.608Y-93.017
X131.608Y-95.517
X131.608Y-97.017
X131.608Y-94.017
X132.101Y-78.054
X132.101Y-79.654
X132.101Y-81.254
X132.101Y-119.354
X132.251Y-86.581
X132.251Y-88.131
X132.251Y-89.63
X133.001Y-82.965
X133.101Y-121.254
X133.101Y-122.854
X133.101Y-124.454
X133.101Y-126.054
X133.101Y-127.654
X133.101Y-129.254
X133.101Y-130.854
X133.101Y-132.454
X133.701Y-78.054
X133.701Y-79.654
X133.701Y-81.254
X134.001Y-82.965
X134.251Y-94.103
X134.251Y-93.253
X134.251Y-95.254
X134.701Y-111.654
X134.701Y-113.254
X134.701Y-114.854
X134.701Y-116.454
X134.701Y-118.054
X134.701Y-119.654
X134.701Y-121.254
X134.701Y-122.854
X134.701Y-124.454
X134.701Y-126.054
X134.701Y-127.654
X134.701Y-129.254
X134.701Y-130.854
X134.701Y-132.454
X135.109Y-88.131
X135.109Y-89.63
X135.109Y-92.302
X135.301Y-78.054
X135.301Y-79.654
X135.301Y-81.254
X135.551Y-96.754
X135.551Y-108.254
X135.551Y-106.754
X135.551Y-105.254
X136.361Y-89.63
X136.361Y-92.302
X136.901Y-111.654
X136.901Y-79.654
X136.901Y-81.254
X137.739Y-91.416
X137.739Y-95.916
X137.739Y-109.766
X137.739Y-92.916
X137.739Y-94.416
X137.739Y-97.416
X137.739Y-107.916
X137.739Y-108.916
X138.501Y-111.654
X138.501Y-79.654
X138.501Y-81.254
X138.501Y-82.854
X139.157Y-86.881
X139.157Y-88.131
X139.352Y-91.416
X139.352Y-95.916
X139.352Y-99.916
X139.352Y-101.416
X139.352Y-104.416
X139.352Y-92.916
X139.352Y-94.416
X139.352Y-97.416
X139.352Y-102.916
X139.352Y-105.916
X139.454Y-109.766
X139.454Y-108.916
X139.454Y-98.916
X140.101Y-111.654
X140.101Y-81.254
X140.101Y-82.254
X140.254Y-98.916
X140.705Y-85.028
X140.705Y-86.77
X140.705Y-88.131
X140.705Y-89.63
X141.054Y-98.916
X141.401Y-99.916
X141.401Y-101.416
X141.401Y-102.916
X141.401Y-104.416
X141.401Y-105.916
X141.447Y-94.416
X141.447Y-95.916
X141.701Y-78.054
X141.701Y-79.654
X141.701Y-81.254
X141.701Y-82.254
X142.205Y-88.131
X142.205Y-89.63
X142.4Y-91.416
X142.4Y-98.254
X142.417Y-101.416
X142.417Y-104.416
X142.417Y-105.915
X142.417Y-102.915
X142.551Y-109.254
X142.551Y-110.204
X142.551Y-111.154
X142.908Y-98.762
X143.101Y-91.917
X143.128Y-101.416
X143.128Y-104.416
X143.128Y-105.915
X143.128Y-102.915
X143.301Y-78.054
X143.301Y-79.654
X143.301Y-81.254
X143.301Y-82.254
X143.451Y-109.254
X143.451Y-110.204
X143.451Y-111.154
X143.454Y-99.754
X143.501Y-86.77
X143.501Y-88.131
X143.901Y-85.454
X144.051Y-90.554
X144.144Y-102.916
X144.144Y-105.916
X144.144Y-101.416
X144.144Y-104.416
X144.254Y-99.754
X144.351Y-110.204
X144.551Y-108.554
X144.701Y-84.654
X144.901Y-78.054
X144.901Y-79.654
X144.901Y-81.254
X144.901Y-82.254
X144.965Y-91.554
X145.054Y-99.754
X145.251Y-111.154
X145.401Y-108.554
X145.448Y-98.254
X145.501Y-85.454
X145.901Y-90.154
X145.901Y-105.054
X145.956Y-98.762
X146.076Y-101.654
X146.501Y-78.054
X146.501Y-79.654
X146.501Y-81.254
X146.501Y-82.254
X146.501Y-84.754
X146.801Y-90.154
X147.192Y-91.384
X147.501Y-88.512
X147.904Y-91.384
X148.101Y-78.054
X148.101Y-79.654
X148.101Y-81.254
X148.101Y-82.254
X148.101Y-100.454
X148.145Y-85.454
X148.496Y-92.0
X148.496Y-98.254
X148.857Y-85.454
X149.004Y-98.762
X149.099Y-91.384
X149.501Y-88.512
X149.701Y-78.054
X149.701Y-79.654
X149.701Y-81.254
X149.701Y-83.254
X149.701Y-100.454
X149.81Y-91.384
X150.201Y-90.154
X150.501Y-84.754
X150.801Y-93.054
X151.301Y-78.054
X151.301Y-79.654
X151.301Y-90.854
X151.301Y-100.454
X151.544Y-92.254
X151.544Y-98.254
X152.001Y-91.554
X152.052Y-98.762
X152.901Y-78.054
X152.901Y-79.654
X152.901Y-81.254
X152.901Y-82.854
X152.901Y-84.454
X152.901Y-89.254
X152.901Y-90.854
X152.901Y-100.454
X153.501Y-86.77
X153.501Y-88.512
X153.601Y-91.554
X154.501Y-78.054
X154.501Y-79.654
X154.501Y-81.254
X154.501Y-82.854
X154.501Y-89.254
X154.501Y-90.854
X154.501Y-100.454
X154.592Y-92.254
X154.592Y-98.254
X156.101Y-79.654
X156.101Y-81.254
X156.101Y-82.854
X156.101Y-84.454
X156.101Y-86.054
X156.101Y-87.654
X156.101Y-89.254
X156.101Y-90.854
X156.101Y-100.454
X156.801Y-91.554
X157.132Y-98.762
X157.64Y-92.254
X157.64Y-98.254
X157.701Y-81.254
X157.701Y-82.854
X157.701Y-84.454
X157.701Y-86.054
X157.701Y-87.654
X157.701Y-89.254
X157.701Y-100.454
X158.68Y-98.762
X159.24Y-92.254
X159.301Y-79.654
X159.301Y-81.254
X159.301Y-86.054
X159.301Y-87.654
X159.301Y-90.854
X159.301Y-100.454
X159.68Y-98.762
X160.001Y-91.554
X160.901Y-79.654
X160.901Y-81.254
X160.901Y-86.054
X160.901Y-89.254
X160.901Y-98.654
X161.251Y-91.556
X162.501Y-78.054
X162.501Y-79.654
X162.501Y-81.254
X162.501Y-87.654
X162.501Y-98.654
X162.751Y-92.328
X162.751Y-90.032
X162.751Y-94.604
X162.751Y-96.128
X163.146Y-96.89
X163.501Y-82.966
X163.857Y-96.89
X164.101Y-78.054
X164.101Y-79.654
X164.101Y-81.254
X164.101Y-98.654
X164.251Y-88.508
X164.251Y-91.556
X164.251Y-93.08
X164.251Y-94.604
X164.251Y-96.128
X164.646Y-93.842
X165.001Y-82.966
X165.357Y-93.842
X165.701Y-78.054
X165.701Y-79.654
X165.701Y-81.254
X165.701Y-98.654
X165.751Y-88.508
X165.751Y-90.032
X165.751Y-91.556
X165.751Y-93.08
X165.751Y-94.604
X165.751Y-96.104
X166.146Y-90.794
X166.501Y-82.966
X166.857Y-90.794
X167.251Y-88.508
X167.251Y-90.032
X167.251Y-91.556
X167.251Y-93.056
X167.251Y-94.556
X167.251Y-96.056
X167.301Y-78.054
X167.301Y-79.654
X167.301Y-81.254
X167.301Y-98.854
X167.301Y-100.454
X167.646Y-87.746
X168.009Y-82.966
X168.357Y-87.746
X168.751Y-88.508
X168.751Y-90.032
X168.751Y-91.556
X168.751Y-93.056
X168.751Y-94.556
X168.901Y-78.054
X168.901Y-79.654
X168.901Y-81.254
X168.901Y-98.854
X168.901Y-100.454
X170.501Y-78.054
X170.501Y-79.654
X170.501Y-81.254
X170.501Y-97.254
X170.501Y-98.854
X170.501Y-100.454
X170.751Y-93.254
X170.751Y-94.104
X171.001Y-82.966
X172.001Y-82.966
X172.101Y-78.054
X172.101Y-79.654
X172.101Y-81.254
X172.101Y-95.654
X172.101Y-97.254
X172.101Y-98.854
X172.101Y-100.454
X173.701Y-79.654
X173.701Y-81.254
X173.701Y-86.054
X173.701Y-87.654
X173.701Y-89.254
X173.701Y-90.854
X173.701Y-92.454
X173.701Y-94.054
X173.701Y-95.654
X173.701Y-97.254
X173.701Y-100.454
X175.301Y-81.254
X175.301Y-86.054
X175.301Y-87.654
X175.301Y-89.254
X175.301Y-90.854
X175.301Y-92.454
X175.301Y-94.054
X175.301Y-95.654
X175.301Y-97.254
X175.301Y-98.854
X175.301Y-100.454
X176.901Y-81.254
X176.901Y-82.854
X176.901Y-84.454
X176.901Y-86.054
X176.901Y-87.654
X176.901Y-89.254
X176.901Y-90.854
X176.901Y-92.454
X176.901Y-98.854
X176.901Y-100.454
X178.501Y-82.854
X178.501Y-84.454
X178.501Y-87.654
X178.501Y-89.254
X178.501Y-90.854
X178.501Y-92.454
X178.501Y-98.854
X178.501Y-100.454
X180.101Y-84.454
X180.101Y-86.054
X180.101Y-87.654
X180.101Y-89.254
X180.101Y-90.854
X180.101Y-92.454
X180.101Y-98.854
T4
X118.501Y-108.754
X178.501Y-95.254
T2
X125.901Y-131.654G85X124.201Y-131.654
G05
X125.901Y-118.854G85X124.201Y-118.854
G05
X142.101Y-85.054G85X142.101Y-86.754
G05
X154.901Y-85.054G85X154.901Y-86.754
G05
T3
X122.251Y-78.173G85X122.251Y-77.373
G05
X122.251Y-84.673G85X122.251Y-82.873
G05
X136.751Y-78.173G85X136.751Y-77.373
G05
X136.751Y-84.673G85X136.751Y-82.873
G05
X160.251Y-78.174G85X160.251Y-77.374
G05
X160.251Y-84.674G85X160.251Y-82.874
G05
X174.751Y-78.174G85X174.751Y-77.374
G05
X174.751Y-84.674G85X174.751Y-82.874
G05
M30
