%TF.GenerationSoftware,KiCad,Pcbnew,9.0.7*%
%TF.CreationDate,2026-03-03T12:01:18+08:00*%
%TF.ProjectId,AI_Pyramid_PCB_HDMI_V0.3_20251031,41495f50-7972-4616-9d69-645f5043425f,rev?*%
%TF.SameCoordinates,Original*%
%TF.FileFunction,Copper,L4,Bot*%
%TF.FilePolarity,Positive*%
%FSLAX46Y46*%
G04 Gerber Fmt 4.6, Leading zero omitted, Abs format (unit mm)*
G04 Created by KiCad (PCBNEW 9.0.7) date 2026-03-03 12:01:18*
%MOMM*%
%LPD*%
G01*
G04 APERTURE LIST*
%TA.AperFunction,ComponentPad*%
%ADD10C,2.000000*%
%TD*%
%TA.AperFunction,ComponentPad*%
%ADD11O,1.600000X2.700000*%
%TD*%
%TA.AperFunction,ComponentPad*%
%ADD12O,1.600000X3.299990*%
%TD*%
%TA.AperFunction,ComponentPad*%
%ADD13O,2.999990X1.300000*%
%TD*%
%TA.AperFunction,ComponentPad*%
%ADD14O,1.300000X2.999990*%
%TD*%
%TA.AperFunction,SMDPad,CuDef*%
%ADD15R,0.800000X0.400000*%
%TD*%
%TA.AperFunction,SMDPad,CuDef*%
%ADD16R,0.800000X0.300000*%
%TD*%
%TA.AperFunction,SMDPad,CuDef*%
%ADD17R,0.620000X0.520000*%
%TD*%
%TA.AperFunction,SMDPad,CuDef*%
%ADD18R,0.550000X0.300000*%
%TD*%
%TA.AperFunction,SMDPad,CuDef*%
%ADD19R,0.550000X0.400000*%
%TD*%
%TA.AperFunction,SMDPad,CuDef*%
%ADD20R,0.900000X0.850000*%
%TD*%
%TA.AperFunction,SMDPad,CuDef*%
%ADD21R,0.750000X0.800000*%
%TD*%
%TA.AperFunction,SMDPad,CuDef*%
%ADD22R,0.800000X0.750000*%
%TD*%
%TA.AperFunction,SMDPad,CuDef*%
%ADD23R,0.550000X0.850000*%
%TD*%
%TA.AperFunction,SMDPad,CuDef*%
%ADD24R,0.850000X0.550000*%
%TD*%
%TA.AperFunction,ViaPad*%
%ADD25C,0.508000*%
%TD*%
%TA.AperFunction,Conductor*%
%ADD26C,0.158240*%
%TD*%
%TA.AperFunction,Conductor*%
%ADD27C,0.203200*%
%TD*%
%TA.AperFunction,Conductor*%
%ADD28C,0.304800*%
%TD*%
%TA.AperFunction,Conductor*%
%ADD29C,0.127000*%
%TD*%
%TA.AperFunction,Conductor*%
%ADD30C,0.254000*%
%TD*%
%TA.AperFunction,Conductor*%
%ADD31C,1.016000*%
%TD*%
G04 APERTURE END LIST*
D10*
%TO.P,,0*%
%TO.N,N/C*%
X178501090Y-95253605D03*
%TD*%
%TO.P,,0*%
%TO.N,N/C*%
X118501090Y-108753605D03*
%TD*%
D11*
%TO.P,J4,0*%
%TO.N,GND*%
X122251000Y-77773095D03*
D12*
X122251000Y-83773105D03*
D11*
X136751000Y-77773095D03*
D12*
X136751000Y-83773095D03*
%TD*%
D13*
%TO.P,J7,10*%
%TO.N,GND*%
X125051070Y-118853545D03*
%TO.P,J7,11*%
X125051060Y-131653595D03*
%TD*%
D11*
%TO.P,J3,0*%
%TO.N,GND*%
X160251170Y-77773595D03*
D12*
X160251170Y-83773605D03*
D11*
X174751170Y-77773595D03*
D12*
X174751170Y-83773595D03*
%TD*%
D14*
%TO.P,J2,10*%
%TO.N,GND*%
X142101060Y-85903605D03*
%TO.P,J2,11*%
X154901100Y-85903625D03*
%TD*%
D15*
%TO.P,J5,0*%
%TO.N,N/C*%
X136096310Y-90415695D03*
X136096250Y-109916055D03*
D16*
%TO.P,J5,1*%
%TO.N,GND*%
X138596420Y-91415685D03*
%TO.P,J5,2*%
%TO.N,HDMI0_CLK_P*%
X138596430Y-91915565D03*
%TO.P,J5,3*%
%TO.N,HDMI0_CLK_N*%
X138596430Y-92415695D03*
%TO.P,J5,4*%
%TO.N,GND*%
X138596430Y-92915555D03*
%TO.P,J5,5*%
%TO.N,HDMI0_D0_P*%
X138596430Y-93415685D03*
%TO.P,J5,6*%
%TO.N,HDMI0_D0_N*%
X138596430Y-93915555D03*
%TO.P,J5,7*%
%TO.N,GND*%
X138596430Y-94415685D03*
%TO.P,J5,8*%
%TO.N,HDMI0_D1_P*%
X138596420Y-94915565D03*
%TO.P,J5,9*%
%TO.N,HDMI0_D1_N*%
X138596410Y-95415685D03*
%TO.P,J5,10*%
%TO.N,GND*%
X138596420Y-95915555D03*
%TO.P,J5,11*%
%TO.N,HDMI0_D2_P*%
X138596420Y-96415675D03*
%TO.P,J5,12*%
%TO.N,HDMI0_D2_N*%
X138596430Y-96915555D03*
%TO.P,J5,13*%
%TO.N,GND*%
X138596430Y-97415685D03*
%TO.P,J5,14*%
%TO.N,HDMI0_HPD*%
X138596430Y-97915805D03*
%TO.P,J5,15*%
%TO.N,HDMI0_CEC*%
X138596430Y-98415675D03*
%TO.P,J5,16*%
%TO.N,HDMI0_SDA*%
X138596420Y-98915805D03*
%TO.P,J5,17*%
%TO.N,HDMI0_SCL*%
X138596430Y-99415675D03*
%TO.P,J5,18*%
%TO.N,GND*%
X138596420Y-99915805D03*
%TO.P,J5,19*%
%TO.N,HDMI1_CLK_P*%
X138596430Y-100415685D03*
%TO.P,J5,20*%
%TO.N,HDMI1_CLK_N*%
X138596420Y-100915815D03*
%TO.P,J5,21*%
%TO.N,GND*%
X138596420Y-101415675D03*
%TO.P,J5,22*%
%TO.N,HDMI1_D0_P*%
X138596430Y-101915815D03*
%TO.P,J5,23*%
%TO.N,HDMI1_D0_N*%
X138596430Y-102415675D03*
%TO.P,J5,24*%
%TO.N,GND*%
X138596430Y-102915805D03*
%TO.P,J5,25*%
%TO.N,HDMI1_D1_P*%
X138596420Y-103415685D03*
%TO.P,J5,26*%
%TO.N,HDMI1_D1_N*%
X138596410Y-103915805D03*
%TO.P,J5,27*%
%TO.N,GND*%
X138596420Y-104415675D03*
%TO.P,J5,28*%
%TO.N,HDMI1_D2_P*%
X138596420Y-104915795D03*
%TO.P,J5,29*%
%TO.N,HDMI1_D2_N*%
X138596430Y-105415675D03*
%TO.P,J5,30*%
%TO.N,GND*%
X138596430Y-105915805D03*
%TO.P,J5,31*%
%TO.N,HDMI1_HPD*%
X138596420Y-106415925D03*
%TO.P,J5,32*%
%TO.N,HDMI1_CEC*%
X138596430Y-106915795D03*
%TO.P,J5,33*%
%TO.N,HDMI1_SDA*%
X138596410Y-107415925D03*
%TO.P,J5,34*%
%TO.N,HDMI1_SCL*%
X138596430Y-107915795D03*
%TO.P,J5,35*%
%TO.N,VDD_5V*%
X138596410Y-108415925D03*
%TO.P,J5,36*%
X138596400Y-108916065D03*
%TD*%
D17*
%TO.P,C2,1*%
%TO.N,VUSB_DS3*%
X122301090Y-103408605D03*
%TO.P,C2,2*%
%TO.N,GND*%
X122301090Y-102498595D03*
%TD*%
D18*
%TO.P,U7,1*%
%TO.N,HDMI0_D0_N*%
X140001090Y-93915605D03*
%TO.P,U7,2*%
%TO.N,HDMI0_D0_P*%
X140001090Y-93415605D03*
D19*
%TO.P,U7,3*%
%TO.N,GND*%
X140001090Y-92915605D03*
D18*
%TO.P,U7,4*%
%TO.N,HDMI0_CLK_N*%
X140001090Y-92415605D03*
%TO.P,U7,5*%
%TO.N,HDMI0_CLK_P*%
X140001090Y-91915605D03*
%TO.P,U7,6*%
X140797890Y-91915605D03*
%TO.P,U7,7*%
%TO.N,HDMI0_CLK_N*%
X140797890Y-92415605D03*
D19*
%TO.P,U7,8*%
%TO.N,GND*%
X140797890Y-92915605D03*
D18*
%TO.P,U7,9*%
%TO.N,HDMI0_D0_P*%
X140797890Y-93415605D03*
%TO.P,U7,10*%
%TO.N,HDMI0_D0_N*%
X140797890Y-93915605D03*
%TD*%
D20*
%TO.P,C11,1*%
%TO.N,GND*%
X123901090Y-112978605D03*
%TO.P,C11,2*%
%TO.N,VUSB_DS4*%
X123901090Y-114228605D03*
%TD*%
D21*
%TO.P,R2,1*%
%TO.N,HDMI0_HPD_EXT*%
X151026100Y-99553605D03*
%TO.P,R2,2*%
%TO.N,HDMI0_HPD*%
X149776090Y-99553605D03*
%TD*%
D18*
%TO.P,U8,1*%
%TO.N,HDMI1_D0_N*%
X140001090Y-102415725D03*
%TO.P,U8,2*%
%TO.N,HDMI1_D0_P*%
X140001090Y-101915725D03*
D19*
%TO.P,U8,3*%
%TO.N,GND*%
X140001090Y-101415725D03*
D18*
%TO.P,U8,4*%
%TO.N,HDMI1_CLK_N*%
X140001090Y-100915725D03*
%TO.P,U8,5*%
%TO.N,HDMI1_CLK_P*%
X140001090Y-100415725D03*
%TO.P,U8,6*%
X140797890Y-100415725D03*
%TO.P,U8,7*%
%TO.N,HDMI1_CLK_N*%
X140797890Y-100915725D03*
D19*
%TO.P,U8,8*%
%TO.N,GND*%
X140797890Y-101415725D03*
D18*
%TO.P,U8,9*%
%TO.N,HDMI1_D0_P*%
X140797890Y-101915725D03*
%TO.P,U8,10*%
%TO.N,HDMI1_D0_N*%
X140797890Y-102415725D03*
%TD*%
D16*
%TO.P,J6,1*%
%TO.N,GND*%
X130751150Y-98516785D03*
%TO.P,J6,2*%
%TO.N,USB3_DS4_TX_P*%
X130751160Y-98016665D03*
%TO.P,J6,3*%
%TO.N,USB3_DS4_TX_N*%
X130751150Y-97516535D03*
%TO.P,J6,4*%
%TO.N,GND*%
X130751150Y-97016655D03*
%TO.P,J6,5*%
%TO.N,USB3_DS4_RX_P*%
X130751140Y-96516535D03*
%TO.P,J6,6*%
%TO.N,USB3_DS4_RX_N*%
X130751140Y-96016665D03*
%TO.P,J6,7*%
%TO.N,GND*%
X130751150Y-95516545D03*
%TO.P,J6,8*%
%TO.N,USB2_DS4_D0_P*%
X130751150Y-95016665D03*
%TO.P,J6,9*%
%TO.N,USB2_DS4_D0_N*%
X130751150Y-94516535D03*
%TO.P,J6,10*%
%TO.N,GND*%
X130751160Y-94016665D03*
%TO.P,J6,11*%
%TO.N,DS4_PWR_EN*%
X130751150Y-93516535D03*
%TO.P,J6,12*%
%TO.N,VDD_EXT_5V*%
X130751150Y-93016675D03*
%TO.P,J6,13*%
X130751150Y-92516545D03*
%TO.P,J6,14*%
X130751140Y-92016665D03*
D15*
%TO.P,J6,15*%
%TO.N,N/C*%
X128251030Y-99516525D03*
%TO.P,J6,16*%
X128251030Y-91016675D03*
%TD*%
D16*
%TO.P,J1,1*%
%TO.N,GND*%
X123351150Y-98516785D03*
%TO.P,J1,2*%
%TO.N,USB3_DS3_TX_P*%
X123351160Y-98016665D03*
%TO.P,J1,3*%
%TO.N,USB3_DS3_TX_N*%
X123351150Y-97516535D03*
%TO.P,J1,4*%
%TO.N,GND*%
X123351150Y-97016655D03*
%TO.P,J1,5*%
%TO.N,USB3_DS3_RX_P*%
X123351140Y-96516535D03*
%TO.P,J1,6*%
%TO.N,USB3_DS3_RX_N*%
X123351140Y-96016665D03*
%TO.P,J1,7*%
%TO.N,GND*%
X123351150Y-95516545D03*
%TO.P,J1,8*%
%TO.N,USB2_DS3_D0_P*%
X123351150Y-95016665D03*
%TO.P,J1,9*%
%TO.N,USB2_DS3_D0_N*%
X123351150Y-94516535D03*
%TO.P,J1,10*%
%TO.N,GND*%
X123351160Y-94016665D03*
%TO.P,J1,11*%
%TO.N,DS3_PWR_EN*%
X123351150Y-93516535D03*
%TO.P,J1,12*%
%TO.N,VDD_EXT_5V*%
X123351150Y-93016675D03*
%TO.P,J1,13*%
X123351150Y-92516545D03*
%TO.P,J1,14*%
X123351140Y-92016665D03*
D15*
%TO.P,J1,15*%
%TO.N,N/C*%
X120851030Y-99516525D03*
%TO.P,J1,16*%
X120851030Y-91016675D03*
%TD*%
D17*
%TO.P,C9,1*%
%TO.N,VUSB_DS4*%
X122301090Y-114058605D03*
%TO.P,C9,2*%
%TO.N,GND*%
X122301090Y-113148595D03*
%TD*%
D18*
%TO.P,U5,1*%
%TO.N,HDMI1_D2_N*%
X140001090Y-105415675D03*
%TO.P,U5,2*%
%TO.N,HDMI1_D2_P*%
X140001090Y-104915675D03*
D19*
%TO.P,U5,3*%
%TO.N,GND*%
X140001090Y-104415675D03*
D18*
%TO.P,U5,4*%
%TO.N,HDMI1_D1_N*%
X140001090Y-103915675D03*
%TO.P,U5,5*%
%TO.N,HDMI1_D1_P*%
X140001090Y-103415675D03*
%TO.P,U5,6*%
X140797890Y-103415675D03*
%TO.P,U5,7*%
%TO.N,HDMI1_D1_N*%
X140797890Y-103915675D03*
D19*
%TO.P,U5,8*%
%TO.N,GND*%
X140797890Y-104415675D03*
D18*
%TO.P,U5,9*%
%TO.N,HDMI1_D2_P*%
X140797890Y-104915675D03*
%TO.P,U5,10*%
%TO.N,HDMI1_D2_N*%
X140797890Y-105415675D03*
%TD*%
D22*
%TO.P,R4,1*%
%TO.N,GND*%
X147251090Y-100203605D03*
%TO.P,R4,2*%
%TO.N,HDMI0_HPD*%
X147251090Y-98953605D03*
%TD*%
D23*
%TO.P,U3,1*%
%TO.N,USB2_DS3_D0_P*%
X147551090Y-85578595D03*
%TO.P,U3,2*%
%TO.N,USB2_DS3_D0_N*%
X149451090Y-85578595D03*
%TO.P,U3,3*%
%TO.N,GND*%
X148501090Y-88128595D03*
%TD*%
D20*
%TO.P,C3,1*%
%TO.N,GND*%
X123901090Y-102328595D03*
%TO.P,C3,2*%
%TO.N,VUSB_DS3*%
X123901090Y-103578595D03*
%TD*%
D24*
%TO.P,U9,1*%
%TO.N,USB2_DS4_D0_P*%
X125376100Y-124303605D03*
%TO.P,U9,2*%
%TO.N,USB2_DS4_D0_N*%
X125376100Y-126203605D03*
%TO.P,U9,3*%
%TO.N,GND*%
X122826100Y-125253605D03*
%TD*%
D18*
%TO.P,U6,1*%
%TO.N,HDMI0_D2_N*%
X140001090Y-96915555D03*
%TO.P,U6,2*%
%TO.N,HDMI0_D2_P*%
X140001090Y-96415555D03*
D19*
%TO.P,U6,3*%
%TO.N,GND*%
X140001090Y-95915555D03*
D18*
%TO.P,U6,4*%
%TO.N,HDMI0_D1_N*%
X140001090Y-95415555D03*
%TO.P,U6,5*%
%TO.N,HDMI0_D1_P*%
X140001090Y-94915555D03*
%TO.P,U6,6*%
X140797890Y-94915555D03*
%TO.P,U6,7*%
%TO.N,HDMI0_D1_N*%
X140797890Y-95415555D03*
D19*
%TO.P,U6,8*%
%TO.N,GND*%
X140797890Y-95915555D03*
D18*
%TO.P,U6,9*%
%TO.N,HDMI0_D2_P*%
X140797890Y-96415555D03*
%TO.P,U6,10*%
%TO.N,HDMI0_D2_N*%
X140797890Y-96915555D03*
%TD*%
D25*
%TO.N,VUSB_DS4*%
X123033100Y-115135605D03*
X123033100Y-116151605D03*
X124049100Y-115135605D03*
X124049100Y-116151605D03*
%TO.N,USB3_DS4_TX_P*%
X119316370Y-126562365D03*
%TO.N,USB3_DS4_TX_N*%
X119316370Y-125851165D03*
%TO.N,USB3_DS4_RX_P*%
X119316370Y-124656025D03*
%TO.N,USB3_DS4_RX_N*%
X119316370Y-123944825D03*
%TO.N,USB2_DS4_D0_P*%
X125501090Y-124898005D03*
%TO.N,USB2_DS4_D0_N*%
X125501090Y-125609205D03*
%TO.N,DS4_PWR_EN*%
X118851090Y-112153605D03*
%TO.N,VUSB_DS3*%
X123033100Y-104485595D03*
X124049100Y-105501595D03*
X124049100Y-104485595D03*
X123033100Y-105501595D03*
%TO.N,VDD_EXT_5V*%
X117953100Y-116151605D03*
X117953100Y-115135605D03*
X118969100Y-115135605D03*
X117953100Y-104485595D03*
X117953100Y-105501595D03*
X118969100Y-116151605D03*
X118969100Y-104485595D03*
X118969100Y-105501595D03*
%TO.N,VDD_5V*%
X142551090Y-111153595D03*
X139453610Y-109765935D03*
X170751110Y-94103735D03*
X139453630Y-108915795D03*
X170751090Y-93253605D03*
X156801040Y-91553665D03*
X153601040Y-91553665D03*
X134251040Y-93253105D03*
X137739230Y-108915795D03*
X152001050Y-91553665D03*
X160001030Y-91553665D03*
X144965040Y-91553665D03*
X137739220Y-109765935D03*
X134251030Y-94103235D03*
X143101090Y-91916765D03*
%TO.N,USB3_DS3_TX_P*%
X149809850Y-91384325D03*
%TO.N,USB3_DS3_TX_N*%
X149098650Y-91384325D03*
%TO.N,USB3_DS3_RX_P*%
X147903510Y-91384325D03*
%TO.N,USB3_DS3_RX_N*%
X147192310Y-91384325D03*
%TO.N,USB2_DS3_D0_P*%
X148145490Y-85453605D03*
%TO.N,USB2_DS3_D0_N*%
X148856690Y-85453605D03*
%TO.N,HDMI1_SDA*%
X144253900Y-99753805D03*
%TO.N,HDMI1_SCL*%
X145053900Y-99753805D03*
%TO.N,HDMI1_HPD*%
X137739230Y-107915795D03*
%TO.N,HDMI1_HPD_EXT*%
X134000990Y-82965115D03*
X124049100Y-106517595D03*
%TO.N,HDMI1_D2_P*%
X143128280Y-105915475D03*
%TO.N,HDMI1_D2_N*%
X142417080Y-105915475D03*
%TO.N,HDMI1_D1_P*%
X143128280Y-104415595D03*
%TO.N,HDMI1_D1_N*%
X142417080Y-104415595D03*
%TO.N,HDMI1_D0_P*%
X143128290Y-102915475D03*
%TO.N,HDMI1_D0_N*%
X142417090Y-102915475D03*
%TO.N,HDMI1_CLK_P*%
X143128280Y-101415595D03*
%TO.N,HDMI1_CLK_N*%
X142417080Y-101415595D03*
%TO.N,HDMI1_CEC*%
X143453910Y-99753805D03*
%TO.N,HDMI0_SDA*%
X139453910Y-98915805D03*
%TO.N,HDMI0_SCL*%
X141053910Y-98915805D03*
%TO.N,HDMI0_HPD_EXT*%
X158680030Y-98761685D03*
X172001160Y-82965605D03*
%TO.N,HDMI0_D2_P*%
X163145660Y-96889595D03*
%TO.N,HDMI0_D2_N*%
X163856860Y-96889595D03*
%TO.N,HDMI0_D1_P*%
X164645660Y-93841595D03*
%TO.N,HDMI0_D1_N*%
X165356860Y-93841595D03*
%TO.N,HDMI0_D0_P*%
X166145660Y-90793595D03*
%TO.N,HDMI0_D0_N*%
X166856860Y-90793595D03*
%TO.N,HDMI0_CLK_P*%
X167645660Y-87745595D03*
%TO.N,HDMI0_CLK_N*%
X168356860Y-87745595D03*
%TO.N,HDMI0_CEC*%
X140253910Y-98915805D03*
%TO.N,DS3_PWR_EN*%
X119726100Y-100778595D03*
X122493950Y-93666535D03*
%TO.N,VDD_3V3*%
X144551090Y-108553605D03*
X142908030Y-98761685D03*
X145401230Y-108553585D03*
X149004030Y-98761685D03*
X145956030Y-98761685D03*
X157132030Y-98761685D03*
X159680030Y-98761685D03*
X152052030Y-98761685D03*
%TO.N,GND*%
X117701090Y-90853645D03*
X133101060Y-122853585D03*
X164251260Y-91555605D03*
X135109100Y-88130615D03*
X116101100Y-119653585D03*
X173700980Y-86053655D03*
X116101100Y-114853595D03*
X156101020Y-84453655D03*
X142205080Y-88130615D03*
X148101030Y-79653665D03*
X124208350Y-98516785D03*
X132250960Y-88130615D03*
X176900970Y-87653655D03*
X135301060Y-79653665D03*
X140705090Y-88130615D03*
X117701090Y-127653575D03*
X128901070Y-110053605D03*
X153501080Y-86769645D03*
X116101100Y-94053635D03*
X172100980Y-79653665D03*
X164251260Y-96127595D03*
X121001100Y-103469595D03*
X119301090Y-119653585D03*
X146801090Y-90153605D03*
X165751260Y-93079595D03*
X173700980Y-89253645D03*
X122501080Y-119653585D03*
X165751260Y-90031595D03*
X149701030Y-83253655D03*
X139352020Y-104415675D03*
X141401090Y-102915805D03*
X127801090Y-100903605D03*
X175300980Y-90853645D03*
X145901090Y-90153605D03*
X121001100Y-101437595D03*
X129701090Y-99903605D03*
X130750980Y-89630115D03*
X145448030Y-98253685D03*
X125701080Y-106853615D03*
X170500990Y-78053675D03*
X144144270Y-102915805D03*
X141701040Y-82253655D03*
X128901070Y-106853615D03*
X129901070Y-132453565D03*
X168900990Y-100453625D03*
X131608350Y-93016675D03*
X165751260Y-96103605D03*
X170500990Y-98853625D03*
X128901070Y-111653605D03*
X178500970Y-82853665D03*
X167251260Y-96055605D03*
X156101020Y-82853665D03*
X144051090Y-90553605D03*
X143451090Y-111153605D03*
X133101060Y-127653575D03*
X118701010Y-125248535D03*
X156101020Y-86053655D03*
X127301070Y-106853615D03*
X178500970Y-92453645D03*
X128901100Y-120303595D03*
X141701040Y-79653665D03*
X118969100Y-113103605D03*
X167251260Y-94555605D03*
X127301070Y-108453615D03*
X136901040Y-111653605D03*
X139352030Y-97415685D03*
X180100970Y-90853645D03*
X131301070Y-105253615D03*
X170500990Y-79653665D03*
X148496030Y-98253685D03*
X117701090Y-89253645D03*
X123033100Y-102453595D03*
X124101080Y-111653605D03*
X176900970Y-84453655D03*
X127751000Y-88130615D03*
X157701010Y-82853665D03*
X135109100Y-92301595D03*
X162501000Y-87653655D03*
X130501070Y-81253665D03*
X135109100Y-89630115D03*
X142551090Y-110203605D03*
X136361070Y-89630115D03*
X152901020Y-89253645D03*
X151544030Y-98253685D03*
X144901040Y-82253655D03*
X138501030Y-111653605D03*
X178500970Y-90853645D03*
X152901020Y-79653665D03*
X141446990Y-95915605D03*
X134701060Y-119653585D03*
X141446960Y-94415685D03*
X120801090Y-123553605D03*
X119301090Y-86053655D03*
X116101100Y-100453625D03*
X144144270Y-105915805D03*
X122501080Y-132453565D03*
X165001170Y-82965605D03*
X133101060Y-124453575D03*
X168751260Y-94555595D03*
X159301010Y-100453625D03*
X116101100Y-127653575D03*
X139352030Y-94415685D03*
X149701030Y-81253665D03*
X125701080Y-111653605D03*
X176900970Y-90853645D03*
X116101100Y-87653655D03*
X120901090Y-81253665D03*
X150801090Y-93053605D03*
X117701090Y-95653635D03*
X116101100Y-116453595D03*
X134701060Y-113253605D03*
X175300980Y-92453645D03*
X140705090Y-85027645D03*
X167300990Y-98853625D03*
X119301090Y-87653655D03*
X135301060Y-78053675D03*
X146501030Y-82253655D03*
X135551110Y-105253675D03*
X130501070Y-111653605D03*
X134251090Y-95253605D03*
X117701090Y-86053655D03*
X116101100Y-102053625D03*
X168009160Y-82965605D03*
X131608340Y-92016665D03*
X165701000Y-98653595D03*
X133101060Y-129253565D03*
X154501020Y-78053675D03*
X140705090Y-86769635D03*
X144351090Y-110203605D03*
X172100980Y-100453625D03*
X173700980Y-94053635D03*
X137739230Y-97415685D03*
X146501030Y-79653665D03*
X116101100Y-124453575D03*
X117701090Y-84453655D03*
X178500970Y-87653655D03*
X121001100Y-114119605D03*
X138501050Y-79653665D03*
X154501020Y-79653665D03*
X175300980Y-98853625D03*
X120901090Y-118053595D03*
X148101030Y-82253655D03*
X173700980Y-100453625D03*
X133000990Y-82965115D03*
X122501080Y-90853645D03*
X143301040Y-82253655D03*
X162501000Y-98653595D03*
X139157080Y-88130615D03*
X124101080Y-110053605D03*
X121001100Y-112087605D03*
X165701000Y-79653665D03*
X167300990Y-78053675D03*
X121001100Y-104485595D03*
X123033100Y-113103605D03*
X129901070Y-130853565D03*
X144701100Y-84653595D03*
X137739230Y-94415685D03*
X134701060Y-118053595D03*
X154501020Y-81253665D03*
X128901070Y-81253665D03*
X121001100Y-113103605D03*
X117701090Y-118053595D03*
X130501090Y-118703595D03*
X130750980Y-88130615D03*
X119985100Y-102453595D03*
X165751260Y-94603605D03*
X117701090Y-92453645D03*
X117701090Y-119653585D03*
X133701060Y-78053675D03*
X153501080Y-88511625D03*
X137739220Y-91415685D03*
X127301070Y-110053605D03*
X156101020Y-100453625D03*
X143901100Y-85453605D03*
X142551090Y-109253605D03*
X140101030Y-111653605D03*
X143301040Y-79653665D03*
X119301090Y-82853665D03*
X167251260Y-93055605D03*
X124208360Y-94016665D03*
X143451090Y-110203605D03*
X116101100Y-118053595D03*
X149701030Y-100453625D03*
X128901070Y-116453595D03*
X168751260Y-93055595D03*
X157701010Y-100453625D03*
X144901040Y-81253665D03*
X173700980Y-97253635D03*
X180100970Y-87653655D03*
X119301090Y-90853645D03*
X149701030Y-79653665D03*
X157701010Y-81253665D03*
X180100970Y-86053655D03*
X135551080Y-96753555D03*
X127001000Y-82965105D03*
X160901010Y-86053655D03*
X130501070Y-108453615D03*
X175300980Y-81253665D03*
X126251000Y-88130615D03*
X131501060Y-132453565D03*
X116101100Y-121253585D03*
X135301060Y-81253665D03*
X130008990Y-82965105D03*
X131501060Y-130853565D03*
X122501080Y-130853565D03*
X162501000Y-79653665D03*
X154501020Y-90853645D03*
X137739230Y-92915555D03*
X151544020Y-92253685D03*
X119301090Y-132453565D03*
X117701090Y-97253635D03*
X132250960Y-89630115D03*
X135551080Y-108253925D03*
X134701060Y-121253585D03*
X130501070Y-110053605D03*
X126201070Y-127253625D03*
X156101020Y-89253645D03*
X176900970Y-98853625D03*
X116101100Y-113253605D03*
X130501070Y-79653665D03*
X120901090Y-129253565D03*
X120901090Y-132453565D03*
X117701090Y-87653655D03*
X159301010Y-86053655D03*
X173700980Y-95653635D03*
X134701060Y-132453565D03*
X154501020Y-82853665D03*
X162751260Y-94603605D03*
X119301090Y-92453645D03*
X120901090Y-84453655D03*
X156101020Y-90853645D03*
X164101000Y-98653595D03*
X154501020Y-89253645D03*
X119301090Y-84453655D03*
X124101080Y-108453615D03*
X127751000Y-89630115D03*
X126251000Y-86581115D03*
X128901070Y-105253615D03*
X143501110Y-88130615D03*
X133701060Y-79653665D03*
X116101100Y-111653605D03*
X122443080Y-124253605D03*
X117701090Y-94053635D03*
X119301090Y-118053595D03*
X128901070Y-108453615D03*
X176900970Y-86053655D03*
X151301020Y-100453625D03*
X160901010Y-98653595D03*
X127751000Y-86581115D03*
X144144280Y-104415935D03*
X139352020Y-91415685D03*
X167300990Y-79653665D03*
X167251260Y-90031595D03*
X145251100Y-111153605D03*
X164101000Y-81253665D03*
X117953100Y-100853595D03*
X141401090Y-104415605D03*
X140101050Y-81253665D03*
X141401090Y-101415605D03*
X122443080Y-126253605D03*
X130501070Y-106853615D03*
X124208350Y-92016665D03*
X128901150Y-124803605D03*
X122501080Y-87653655D03*
X122501080Y-118053595D03*
X172100980Y-98853625D03*
X152901020Y-84453655D03*
X121001100Y-115135605D03*
X120901090Y-130853565D03*
X170500990Y-81253665D03*
X147501090Y-88511615D03*
X117701090Y-130853565D03*
X138501050Y-82853665D03*
X136901050Y-81253665D03*
X154592020Y-92253685D03*
X131608360Y-94016665D03*
X178500970Y-84453655D03*
X127301070Y-78053675D03*
X175300980Y-87653655D03*
X120901090Y-89253645D03*
X168751260Y-91555595D03*
X168751260Y-88507595D03*
X139352020Y-95915555D03*
X138501050Y-81253665D03*
X130501070Y-116453595D03*
X157640020Y-92253685D03*
X159301010Y-81253665D03*
X178500970Y-89253645D03*
X175300980Y-100453625D03*
X159301010Y-90853645D03*
X175300980Y-97253635D03*
X143451090Y-109253605D03*
X116101100Y-89253645D03*
X145501090Y-85453605D03*
X154592030Y-98253685D03*
X134701060Y-122853585D03*
X175300980Y-94053635D03*
X146501030Y-81253665D03*
X146501030Y-78053675D03*
X125701080Y-78053675D03*
X125065100Y-102453595D03*
X157701010Y-89253645D03*
X144144280Y-101415935D03*
X162751260Y-96127595D03*
X152901020Y-81253665D03*
X172100980Y-97253635D03*
X164101000Y-78053675D03*
X178500970Y-98853625D03*
X152901020Y-100453625D03*
X180100970Y-98853625D03*
X149501090Y-88511615D03*
X172100980Y-78053675D03*
X139352020Y-99915805D03*
X119985100Y-113103605D03*
X116101100Y-105253615D03*
X119301090Y-129253565D03*
X117701090Y-129253565D03*
X134701060Y-124453575D03*
X134701060Y-130853565D03*
X162751090Y-92327595D03*
X160901010Y-79653665D03*
X131608340Y-91116665D03*
X124101080Y-78053675D03*
X137739220Y-95915555D03*
X128301070Y-130853565D03*
X146501090Y-84753605D03*
X133101060Y-130853565D03*
X141701040Y-78053675D03*
X116101100Y-122853585D03*
X164251260Y-88507595D03*
X133701060Y-81253665D03*
X150201070Y-90153605D03*
X151301020Y-90853645D03*
X116101100Y-106853615D03*
X127301070Y-79653665D03*
X134701060Y-116453595D03*
X132101060Y-78053675D03*
X170500990Y-97253635D03*
X130501070Y-113253605D03*
X134701060Y-127653575D03*
X141401080Y-99915805D03*
X151301020Y-78053675D03*
X134701060Y-129253565D03*
X156101020Y-79653665D03*
X163501180Y-82965595D03*
X159301010Y-79653665D03*
X128301070Y-132453565D03*
X130750980Y-86581115D03*
X117701090Y-132453565D03*
X131608350Y-95516545D03*
X121001100Y-102453595D03*
X128901070Y-118053595D03*
X159240020Y-92253685D03*
X144901040Y-79653665D03*
X122501080Y-89253645D03*
X157701010Y-84453655D03*
X125701080Y-79653665D03*
X148101030Y-78053675D03*
X117953100Y-102453595D03*
X148101030Y-81253665D03*
X129251000Y-88130615D03*
X124208350Y-88380615D03*
X124208350Y-90353665D03*
X175300980Y-86053655D03*
X135551090Y-106753805D03*
X128901130Y-122553595D03*
X124101080Y-81253665D03*
X125701090Y-117303605D03*
X148496020Y-91999685D03*
X173700980Y-79653665D03*
X156101020Y-87653655D03*
X116101100Y-126053575D03*
X136901050Y-79653665D03*
X175300980Y-95653635D03*
X168751260Y-90031595D03*
X125065100Y-113103605D03*
X131301070Y-102053625D03*
X156101020Y-81253665D03*
X146076090Y-101653605D03*
X173700980Y-81253665D03*
X141401090Y-105915805D03*
X134701060Y-111653605D03*
X144901040Y-78053675D03*
X161251260Y-91555605D03*
X173700980Y-92453645D03*
X132101060Y-81253665D03*
X128501000Y-82965105D03*
X116101100Y-90853645D03*
X136361070Y-92301595D03*
X132250960Y-86581115D03*
X168900990Y-81253665D03*
X124751000Y-86581105D03*
X116101100Y-98853625D03*
X116101100Y-130853565D03*
X133101060Y-121253585D03*
X173700980Y-90853645D03*
X130501150Y-123203605D03*
X180100970Y-84453655D03*
X175300980Y-89253645D03*
X143301040Y-78053675D03*
X119301090Y-130853565D03*
X127301090Y-102053605D03*
X139352030Y-92915555D03*
X131408350Y-98516785D03*
X116101100Y-103653615D03*
X176900970Y-92453645D03*
X124101080Y-79653665D03*
X164251260Y-93079595D03*
X151301020Y-79653665D03*
X140705090Y-89630115D03*
X139352030Y-105915805D03*
X162501000Y-78053675D03*
X133101060Y-132453565D03*
X168900990Y-98853625D03*
X128901070Y-79653665D03*
X176900970Y-100453625D03*
X165751260Y-91555605D03*
X132101060Y-79653665D03*
X154501020Y-100453625D03*
X130501120Y-120953605D03*
X167251260Y-88507595D03*
X178500970Y-100453625D03*
X139157080Y-86880635D03*
X159301010Y-87653655D03*
X148101030Y-100453625D03*
X119301090Y-89253645D03*
X173700980Y-87653655D03*
X139352020Y-101415675D03*
X141701040Y-81253665D03*
X157701010Y-86053655D03*
X150501110Y-84753625D03*
X162751260Y-90031595D03*
X131608350Y-97016655D03*
X125701080Y-108453615D03*
X116101100Y-129253565D03*
X164251260Y-94603605D03*
X134701060Y-114853595D03*
X176900970Y-81253665D03*
X129251000Y-89630115D03*
X164101000Y-79653665D03*
X152901020Y-78053675D03*
X143501110Y-86769635D03*
X116101100Y-86053655D03*
X167300990Y-100453625D03*
X124208350Y-95516545D03*
X130608330Y-91116675D03*
X127301070Y-81253665D03*
X122501080Y-86053655D03*
X165751260Y-88507595D03*
X125701080Y-110053605D03*
X119301090Y-95653635D03*
X167300990Y-81253665D03*
X172100980Y-95653635D03*
X170500990Y-100453625D03*
X167251260Y-91555605D03*
X142400030Y-98253685D03*
X180100970Y-92453645D03*
X124208350Y-97016655D03*
X149701030Y-78053675D03*
X120901090Y-119653585D03*
X131301070Y-103653615D03*
X119301090Y-94053635D03*
X122501080Y-81253665D03*
X166501170Y-82965605D03*
X160901010Y-81253665D03*
X143301040Y-81253665D03*
X116101100Y-97253635D03*
X126201090Y-123253605D03*
X176900970Y-82853665D03*
X172100980Y-81253665D03*
X134701060Y-126053575D03*
X129251000Y-86581115D03*
X152901020Y-90853645D03*
X171001160Y-82965605D03*
X139352030Y-102915805D03*
X116101100Y-95653635D03*
X127301070Y-111653605D03*
X168900990Y-78053675D03*
X128901070Y-78053675D03*
X125501010Y-82965095D03*
X145901090Y-105053605D03*
X142400020Y-91415685D03*
X131301070Y-100453625D03*
X157701010Y-87653655D03*
X160901010Y-89253645D03*
X129251000Y-91116685D03*
X162501000Y-81253665D03*
X132101120Y-119353605D03*
X180100970Y-89253645D03*
X165701000Y-81253665D03*
X176900970Y-89253645D03*
X142205080Y-89630115D03*
X157640030Y-98253685D03*
X140101050Y-82253655D03*
X116101100Y-92453645D03*
X152901020Y-82853665D03*
X168900990Y-79653665D03*
X124101090Y-117303605D03*
X120901090Y-82853665D03*
X133101060Y-126053575D03*
X120901090Y-87653655D03*
X128801090Y-102053605D03*
X126251090Y-96066605D03*
X130501070Y-78053675D03*
X165701000Y-78053675D03*
X120901090Y-86053655D03*
%TD*%
D26*
%TO.N,USB3_DS4_TX_P*%
X131101090Y-116703605D02*
X131101090Y-107853605D01*
X132003090Y-106951615D02*
X132003090Y-98236975D01*
X130751160Y-98016665D02*
X130820500Y-97947315D01*
X117139650Y-125145205D02*
X118381930Y-126387485D01*
X118381930Y-126387485D02*
X119141490Y-126387485D01*
X119141490Y-126387485D02*
X119316370Y-126562365D01*
X118289940Y-120853605D02*
X126951100Y-120853605D01*
X126951100Y-120853605D02*
X131101090Y-116703605D01*
X131101090Y-107853605D02*
X132003090Y-106951615D01*
X117139650Y-125145205D02*
X117139650Y-122003885D01*
X131713430Y-97947315D02*
X132003090Y-98236975D01*
X117139650Y-122003885D02*
X118289940Y-120853605D01*
X130820500Y-97947315D02*
X131713430Y-97947315D01*
%TO.N,USB3_DS4_TX_N*%
X119141490Y-126026045D02*
X119316370Y-125851165D01*
X127100810Y-121215045D02*
X131462530Y-116853315D01*
X117501090Y-124995495D02*
X117501090Y-122153605D01*
X117501090Y-124995495D02*
X118531640Y-126026045D01*
X130751150Y-97516535D02*
X130820500Y-97585875D01*
X118531640Y-126026045D02*
X119141490Y-126026045D01*
X131863150Y-97585875D02*
X132364530Y-98087255D01*
X132364530Y-107101325D02*
X132364530Y-98087255D01*
X130820500Y-97585875D02*
X131863150Y-97585875D01*
X117501090Y-122153605D02*
X118439650Y-121215045D01*
X118439650Y-121215045D02*
X127100810Y-121215045D01*
X131462530Y-108003315D02*
X132364530Y-107101325D01*
X131462530Y-116853315D02*
X131462530Y-108003315D01*
%TO.N,USB3_DS4_RX_P*%
X132401090Y-117653605D02*
X132401090Y-108553605D01*
X130820360Y-96447315D02*
X132194810Y-96447315D01*
X118781930Y-124481145D02*
X119141490Y-124481145D01*
X118456760Y-124155975D02*
X118456760Y-122753885D01*
X132194810Y-96447315D02*
X133217230Y-97469745D01*
X118456760Y-124155975D02*
X118781930Y-124481145D01*
X118456760Y-122753885D02*
X119007050Y-122203605D01*
X119007050Y-122203605D02*
X127851090Y-122203605D01*
X119141490Y-124481145D02*
X119316370Y-124656025D01*
X132401090Y-108553605D02*
X133217230Y-107737465D01*
X130751140Y-96516535D02*
X130820360Y-96447315D01*
X133217230Y-107737465D02*
X133217230Y-97469745D01*
X127851090Y-122203605D02*
X132401090Y-117653605D01*
%TO.N,USB3_DS4_RX_N*%
X130820350Y-96085875D02*
X132344520Y-96085875D01*
X119141490Y-124119705D02*
X119316370Y-123944825D01*
X118818210Y-124006265D02*
X118931640Y-124119705D01*
X119156760Y-122565045D02*
X128000810Y-122565045D01*
X118931640Y-124119705D02*
X119141490Y-124119705D01*
X128000810Y-122565045D02*
X132762530Y-117803315D01*
X118818210Y-122903595D02*
X119156760Y-122565045D01*
X132762530Y-117803315D02*
X132762530Y-108703315D01*
X130751140Y-96016665D02*
X130820350Y-96085875D01*
X132762530Y-108703315D02*
X133578680Y-107887175D01*
X133578680Y-107887175D02*
X133578680Y-97320025D01*
X118818210Y-124006265D02*
X118818210Y-122903595D01*
X132344520Y-96085875D02*
X133578680Y-97320025D01*
%TO.N,USB2_DS4_D0_P*%
X125951100Y-124303605D02*
X126101090Y-124453605D01*
X130820500Y-94947325D02*
X132494820Y-94947325D01*
X134441650Y-108451895D02*
X134441650Y-96894145D01*
X125376100Y-124773005D02*
X125376100Y-124303605D01*
X126326430Y-125078945D02*
X127275750Y-125078945D01*
X130751150Y-95016665D02*
X130820500Y-94947325D01*
X132494820Y-94947325D02*
X134441650Y-96894145D01*
X125376100Y-124303605D02*
X125951100Y-124303605D01*
X133689650Y-109203885D02*
X134441650Y-108451895D01*
X133689650Y-118665045D02*
X133689650Y-109203885D01*
X126101090Y-124853605D02*
X126326430Y-125078945D01*
X126101090Y-124853605D02*
X126101090Y-124453605D01*
X127275750Y-125078945D02*
X133689650Y-118665045D01*
X125376100Y-124773005D02*
X125501090Y-124898005D01*
%TO.N,USB2_DS4_D0_N*%
X134051090Y-118814755D02*
X134051090Y-109353605D01*
X130820500Y-94585875D02*
X132644530Y-94585875D01*
X125376100Y-126203605D02*
X125376100Y-125734205D01*
X130751150Y-94516535D02*
X130820500Y-94585875D01*
X134051090Y-109353605D02*
X134803090Y-108601605D01*
X125376100Y-126203605D02*
X125951100Y-126203605D01*
X126314320Y-125440385D02*
X127425470Y-125440385D01*
X127425470Y-125440385D02*
X134051090Y-118814755D01*
X126101090Y-126053605D02*
X126101090Y-125653605D01*
X125376100Y-125734205D02*
X125501090Y-125609205D01*
X125951100Y-126203605D02*
X126101090Y-126053605D01*
X134803090Y-108601605D02*
X134803090Y-96744435D01*
X132644530Y-94585875D02*
X134803090Y-96744435D01*
X126101090Y-125653605D02*
X126314320Y-125440385D01*
D27*
%TO.N,DS4_PWR_EN*%
X121730650Y-112624045D02*
X123551100Y-110803605D01*
X129901090Y-98966605D02*
X129901090Y-93766605D01*
X130651090Y-105903605D02*
X130651090Y-99716605D01*
X118851090Y-112153605D02*
X119321530Y-112624045D01*
X119321530Y-112624045D02*
X121730650Y-112624045D01*
X123551100Y-110803605D02*
X125751100Y-110803605D01*
X130151160Y-93516535D02*
X130751150Y-93516535D01*
X129901090Y-93766605D02*
X130151160Y-93516535D01*
X125751100Y-110803605D02*
X130651090Y-105903605D01*
X129901090Y-98966605D02*
X130651090Y-99716605D01*
D28*
%TO.N,VDD_EXT_5V*%
X129751150Y-93016675D02*
X130751150Y-93016675D01*
X129751150Y-92016665D02*
X130751150Y-92016665D01*
X122351150Y-92016665D02*
X123351150Y-92016665D01*
X122351150Y-93016675D02*
X123351150Y-93016675D01*
X129751150Y-92516545D02*
X130751150Y-92516545D01*
X122351150Y-92516545D02*
X123351150Y-92516545D01*
%TO.N,VDD_5V*%
X139151420Y-108415925D02*
X139453630Y-108718135D01*
X138596410Y-108415925D02*
X139151420Y-108415925D01*
X137739200Y-108718135D02*
X138041410Y-108415925D01*
X137739230Y-108915795D02*
X138596140Y-108915795D01*
X138041410Y-108415925D02*
X138596410Y-108415925D01*
X138596140Y-108915795D02*
X138596400Y-108916065D01*
X138596400Y-108916065D02*
X139453370Y-108916065D01*
X137739200Y-108915795D02*
X137739200Y-108718135D01*
X139453370Y-108916065D02*
X139453630Y-108915795D01*
X139453630Y-108915795D02*
X139453630Y-108718135D01*
D26*
%TO.N,USB3_DS3_TX_P*%
X134801100Y-89053595D02*
X136651090Y-89053595D01*
X123420500Y-97947325D02*
X125781530Y-97947325D01*
X138151090Y-90553605D02*
X142739930Y-90553605D01*
X149634970Y-92318765D02*
X149634970Y-91559205D01*
X123351160Y-98016665D02*
X123420500Y-97947325D01*
X127562540Y-90792165D02*
X127801090Y-90553605D01*
X127562540Y-96166315D02*
X127562540Y-90792165D01*
X127801090Y-90553605D02*
X133301090Y-90553605D01*
X125781530Y-97947325D02*
X127562540Y-96166315D01*
X136651090Y-89053595D02*
X138151090Y-90553605D01*
X148788690Y-93165045D02*
X149634970Y-92318765D01*
X145351370Y-93165045D02*
X148788690Y-93165045D01*
X142739930Y-90553605D02*
X145351370Y-93165045D01*
X149634970Y-91559205D02*
X149809850Y-91384325D01*
X133301090Y-90553605D02*
X134801100Y-89053595D01*
%TO.N,USB3_DS3_TX_N*%
X127201090Y-96016605D02*
X127201090Y-90642445D01*
X123351160Y-97516535D02*
X123420500Y-97585875D01*
X136800800Y-88692155D02*
X138300810Y-90192165D01*
X125631820Y-97585875D02*
X127201090Y-96016605D01*
X134651390Y-88692155D02*
X136800800Y-88692155D01*
X138300810Y-90192165D02*
X142889650Y-90192165D01*
X133151380Y-90192165D02*
X134651390Y-88692155D01*
X123420500Y-97585875D02*
X125631820Y-97585875D01*
X142889650Y-90192165D02*
X145501090Y-92803605D01*
X148638980Y-92803605D02*
X149273530Y-92169055D01*
X149098650Y-91384325D02*
X149273530Y-91559205D01*
X127201090Y-90642445D02*
X127651380Y-90192165D01*
X127651380Y-90192165D02*
X133151380Y-90192165D01*
X149273530Y-92169055D02*
X149273530Y-91559205D01*
X145501090Y-92803605D02*
X148638980Y-92803605D01*
%TO.N,USB3_DS3_RX_P*%
X146530270Y-92243925D02*
X147403460Y-92243925D01*
X126362540Y-95066315D02*
X126362540Y-90042165D01*
X132939650Y-89065045D02*
X134401100Y-87603595D01*
X124981530Y-96447325D02*
X126362540Y-95066315D01*
X137289940Y-87603595D02*
X138751380Y-89065045D01*
X147403460Y-92243925D02*
X147728630Y-91918765D01*
X127339650Y-89065045D02*
X132939650Y-89065045D01*
X143351380Y-89065045D02*
X146530270Y-92243925D01*
X147728630Y-91918765D02*
X147728630Y-91559205D01*
X123351140Y-96516535D02*
X123420350Y-96447325D01*
X123420350Y-96447325D02*
X124981530Y-96447325D01*
X126362540Y-90042165D02*
X127339650Y-89065045D01*
X134401100Y-87603595D02*
X137289940Y-87603595D01*
X138751380Y-89065045D02*
X143351380Y-89065045D01*
X147728630Y-91559205D02*
X147903510Y-91384325D01*
%TO.N,USB3_DS3_RX_N*%
X137439650Y-87242155D02*
X138901090Y-88703605D01*
X147253750Y-91882485D02*
X147367190Y-91769055D01*
X132789940Y-88703605D02*
X134251390Y-87242155D01*
X126001090Y-89892445D02*
X127189940Y-88703605D01*
X127189940Y-88703605D02*
X132789940Y-88703605D01*
X138901090Y-88703605D02*
X143501100Y-88703605D01*
X124831810Y-96085885D02*
X126001090Y-94916605D01*
X146679980Y-91882485D02*
X147253750Y-91882485D01*
X147367190Y-91769055D02*
X147367190Y-91559205D01*
X123420360Y-96085885D02*
X124831810Y-96085885D01*
X143501100Y-88703605D02*
X146679980Y-91882485D01*
X134251390Y-87242155D02*
X137439650Y-87242155D01*
X123351150Y-96016665D02*
X123420360Y-96085885D01*
X126001090Y-94916605D02*
X126001090Y-89892445D01*
X147192310Y-91384325D02*
X147367190Y-91559205D01*
%TO.N,USB2_DS3_D0_P*%
X125162530Y-88242155D02*
X125889650Y-87515045D01*
X140401100Y-83953595D02*
X148101100Y-83953595D01*
X124481530Y-94947325D02*
X125162530Y-94266315D01*
X138039650Y-86315045D02*
X140401100Y-83953595D01*
X148101100Y-83953595D02*
X148326430Y-84178925D01*
X132700810Y-87515045D02*
X133900810Y-86315045D01*
X147551090Y-85003595D02*
X147701090Y-84853605D01*
X123351160Y-95016665D02*
X123420500Y-94947325D01*
X147701090Y-84853605D02*
X148101090Y-84853605D01*
X133900810Y-86315045D02*
X138039650Y-86315045D01*
X123420500Y-94947325D02*
X124481530Y-94947325D01*
X148101090Y-84853605D02*
X148326430Y-84628265D01*
X147551090Y-85578595D02*
X148020490Y-85578595D01*
X147551090Y-85578595D02*
X147551090Y-85003595D01*
X148020490Y-85578595D02*
X148145490Y-85453605D01*
X148326430Y-84628265D02*
X148326430Y-84178925D01*
X125889650Y-87515045D02*
X132700810Y-87515045D01*
X125162530Y-94266315D02*
X125162530Y-88242155D01*
%TO.N,USB2_DS3_D0_N*%
X123351160Y-94516535D02*
X123420500Y-94585885D01*
X148687870Y-84640375D02*
X148901090Y-84853605D01*
X124801090Y-94116605D02*
X124801090Y-88092445D01*
X133751090Y-85953605D02*
X137889940Y-85953605D01*
X148687870Y-84640375D02*
X148687870Y-84029215D01*
X137889940Y-85953605D02*
X140251380Y-83592155D01*
X124801090Y-88092445D02*
X125739940Y-87153605D01*
X132551090Y-87153605D02*
X133751090Y-85953605D01*
X148250810Y-83592155D02*
X148687870Y-84029215D01*
X123420500Y-94585885D02*
X124331820Y-94585885D01*
X149451090Y-85578595D02*
X149451090Y-85003595D01*
X125739940Y-87153605D02*
X132551090Y-87153605D01*
X148981690Y-85578595D02*
X149451090Y-85578595D01*
X148856690Y-85453605D02*
X148981690Y-85578595D01*
X124331820Y-94585885D02*
X124801090Y-94116605D01*
X140251380Y-83592155D02*
X148250810Y-83592155D01*
X148901090Y-84853605D02*
X149301090Y-84853605D01*
X149301090Y-84853605D02*
X149451090Y-85003595D01*
D29*
%TO.N,HDMI1_SDA*%
X138596410Y-107415925D02*
X143888770Y-107415925D01*
X144253900Y-99753805D02*
X144951090Y-100450995D01*
X143888770Y-107415925D02*
X144951090Y-106353605D01*
X144951090Y-106353605D02*
X144951090Y-100450995D01*
%TO.N,HDMI1_SCL*%
X143838900Y-107915795D02*
X145251090Y-106503605D01*
X145251090Y-106503605D02*
X145251090Y-99950995D01*
X138596430Y-107915795D02*
X143838900Y-107915795D01*
X145053900Y-99753805D02*
X145251090Y-99950995D01*
%TO.N,HDMI1_HPD*%
X137739230Y-106737795D02*
X138061110Y-106415925D01*
X137739230Y-107915795D02*
X137739230Y-106737795D01*
X138061110Y-106415925D02*
X138596420Y-106415925D01*
%TO.N,HDMI1_D2_P*%
X138944090Y-105013475D02*
X139778460Y-105013475D01*
X140922890Y-104915845D02*
X141020490Y-105013445D01*
X138596430Y-104915805D02*
X138846430Y-104915805D01*
X142925080Y-105712275D02*
X142925080Y-105389435D01*
X139778460Y-105013475D02*
X139876090Y-104915845D01*
X142925080Y-105712275D02*
X143128280Y-105915475D01*
X142548810Y-105013155D02*
X142925080Y-105389435D01*
X141020490Y-105013155D02*
X142548810Y-105013155D01*
X138846430Y-104915805D02*
X138944090Y-105013475D01*
X139876090Y-104915845D02*
X140922890Y-104915845D01*
%TO.N,HDMI1_D2_N*%
X142620280Y-105712275D02*
X142620280Y-105515685D01*
X142422560Y-105317955D02*
X142620280Y-105515685D01*
X141020490Y-105317955D02*
X142422560Y-105317955D01*
X138596420Y-105415935D02*
X138846420Y-105415935D01*
X139876090Y-105415845D02*
X140922890Y-105415845D01*
X139778520Y-105318275D02*
X139876090Y-105415845D01*
X138846420Y-105415935D02*
X138944090Y-105318275D01*
X138944090Y-105318275D02*
X139778520Y-105318275D01*
X140922890Y-105415845D02*
X141020490Y-105318245D01*
X142417080Y-105915475D02*
X142620280Y-105712275D01*
%TO.N,HDMI1_D1_P*%
X142925080Y-104212395D02*
X143128280Y-104415595D01*
X138944090Y-103513345D02*
X139778460Y-103513345D01*
X140922890Y-103415725D02*
X141020490Y-103513325D01*
X142548810Y-103513285D02*
X142925080Y-103889555D01*
X138596420Y-103415685D02*
X138846420Y-103415685D01*
X142925080Y-104212395D02*
X142925080Y-103889555D01*
X138846420Y-103415685D02*
X138944090Y-103513345D01*
X141020500Y-103513285D02*
X142548810Y-103513285D01*
X139778460Y-103513345D02*
X139876080Y-103415725D01*
X139876080Y-103415725D02*
X140922890Y-103415725D01*
%TO.N,HDMI1_D1_N*%
X141020500Y-103818085D02*
X142422560Y-103818085D01*
X138944080Y-103818145D02*
X139778520Y-103818145D01*
X139778520Y-103818145D02*
X139876090Y-103915715D01*
X140922890Y-103915715D02*
X141020490Y-103818125D01*
X142422560Y-103818085D02*
X142620280Y-104015805D01*
X142620280Y-104212395D02*
X142620280Y-104015805D01*
X138596420Y-103915815D02*
X138846420Y-103915815D01*
X139876090Y-103915715D02*
X140922890Y-103915715D01*
X142417080Y-104415595D02*
X142620280Y-104212395D01*
X138846420Y-103915815D02*
X138944080Y-103818145D01*
%TO.N,HDMI1_D0_P*%
X140922900Y-101915845D02*
X141020500Y-102013445D01*
X141020500Y-102013155D02*
X142548810Y-102013155D01*
X139876090Y-101915845D02*
X140922900Y-101915845D01*
X139778470Y-102013475D02*
X139876090Y-101915845D01*
X138944100Y-102013475D02*
X139778470Y-102013475D01*
X142548810Y-102013155D02*
X142925090Y-102389435D01*
X142925090Y-102712275D02*
X142925090Y-102389435D01*
X142925090Y-102712275D02*
X143128290Y-102915475D01*
X138596430Y-101915815D02*
X138846430Y-101915815D01*
X138846430Y-101915815D02*
X138944100Y-102013475D01*
%TO.N,HDMI1_D0_N*%
X139778530Y-102318275D02*
X139876100Y-102415845D01*
X142422560Y-102317955D02*
X142620290Y-102515685D01*
X139876100Y-102415845D02*
X140922900Y-102415845D01*
X141020500Y-102317955D02*
X142422560Y-102317955D01*
X138944090Y-102318275D02*
X139778530Y-102318275D01*
X140922900Y-102415845D02*
X141020500Y-102318245D01*
X142417090Y-102915475D02*
X142620290Y-102712275D01*
X138846430Y-102415935D02*
X138944090Y-102318275D01*
X142620290Y-102712275D02*
X142620290Y-102515685D01*
X138596430Y-102415935D02*
X138846430Y-102415935D01*
%TO.N,HDMI1_CLK_P*%
X140922890Y-100415725D02*
X141020490Y-100513325D01*
X139778460Y-100513345D02*
X139876090Y-100415725D01*
X139876090Y-100415725D02*
X140797890Y-100415725D01*
X138846430Y-100415685D02*
X138944090Y-100513345D01*
X142925080Y-101212395D02*
X143128280Y-101415595D01*
X138944090Y-100513345D02*
X139778460Y-100513345D01*
X141020490Y-100513285D02*
X142548800Y-100513285D01*
X140797890Y-100415725D02*
X140922890Y-100415725D01*
X138596430Y-100415685D02*
X138846430Y-100415685D01*
X142548800Y-100513285D02*
X142925080Y-100889555D01*
X142925080Y-101212395D02*
X142925080Y-100889555D01*
%TO.N,HDMI1_CLK_N*%
X139876090Y-100915725D02*
X140001090Y-100915725D01*
X138846420Y-100915815D02*
X138944090Y-100818145D01*
X140001090Y-100915725D02*
X140797890Y-100915725D01*
X142620280Y-101212395D02*
X142620280Y-101015805D01*
X138596420Y-100915815D02*
X138846420Y-100915815D01*
X142422550Y-100818085D02*
X142620280Y-101015805D01*
X138944090Y-100818145D02*
X139778520Y-100818145D01*
X140797890Y-100915725D02*
X140922890Y-100915725D01*
X142417080Y-101415595D02*
X142620280Y-101212395D01*
X141020490Y-100818085D02*
X142422550Y-100818085D01*
X140922890Y-100915725D02*
X141020490Y-100818125D01*
X139778520Y-100818145D02*
X139876090Y-100915725D01*
%TO.N,HDMI1_CEC*%
X143453910Y-99753805D02*
X144651090Y-100950995D01*
X143938910Y-106915795D02*
X144651090Y-106203605D01*
X144651090Y-106203605D02*
X144651090Y-100950995D01*
X138596430Y-106915795D02*
X143938910Y-106915795D01*
%TO.N,HDMI0_SDA*%
X138596420Y-98915805D02*
X139453910Y-98915805D01*
%TO.N,HDMI0_SCL*%
X138596430Y-99415675D02*
X140554040Y-99415675D01*
X140554040Y-99415675D02*
X141053910Y-98915805D01*
%TO.N,HDMI0_HPD*%
X146951090Y-99253605D02*
X147251090Y-98953605D01*
X142189090Y-99253605D02*
X146951090Y-99253605D01*
X148601090Y-99553605D02*
X149776090Y-99553605D01*
X140851300Y-97915805D02*
X142189090Y-99253605D01*
X147251090Y-98953605D02*
X148001090Y-98953605D01*
X138596430Y-97915805D02*
X140851300Y-97915805D01*
X148001090Y-98953605D02*
X148601090Y-99553605D01*
%TO.N,HDMI0_HPD_EXT*%
X157888120Y-99553605D02*
X158680030Y-98761685D01*
X151026100Y-99553605D02*
X157888120Y-99553605D01*
%TO.N,HDMI0_D2_P*%
X163145660Y-96889595D02*
X163348860Y-97092795D01*
X138596430Y-96415685D02*
X138846430Y-96415685D01*
X138846430Y-96415685D02*
X138944090Y-96513355D01*
X140922890Y-96415605D02*
X141020490Y-96513195D01*
X141020490Y-96513195D02*
X141741750Y-96513195D01*
X163348860Y-97238265D02*
X163348860Y-97092795D01*
X139778460Y-96513355D02*
X139876090Y-96415725D01*
X142579870Y-97351325D02*
X163235810Y-97351325D01*
X139876090Y-96415605D02*
X140922890Y-96415605D01*
X141741750Y-96513195D02*
X142579870Y-97351325D01*
X163235810Y-97351325D02*
X163348860Y-97238265D01*
X138944090Y-96513355D02*
X139778460Y-96513355D01*
%TO.N,HDMI0_D2_N*%
X141615490Y-96817995D02*
X142453620Y-97656125D01*
X163362060Y-97656125D02*
X163653660Y-97364515D01*
X138944090Y-96818155D02*
X139778520Y-96818155D01*
X138846430Y-96915815D02*
X138944090Y-96818155D01*
X141020490Y-96817995D02*
X141615490Y-96817995D01*
X139876090Y-96915595D02*
X140922890Y-96915595D01*
X139778520Y-96818155D02*
X139876090Y-96915725D01*
X163653660Y-97092795D02*
X163856860Y-96889595D01*
X140922890Y-96915595D02*
X141020490Y-96817995D01*
X163653660Y-97364515D02*
X163653660Y-97092795D01*
X142453620Y-97656125D02*
X163362060Y-97656125D01*
X138596430Y-96915815D02*
X138846430Y-96915815D01*
%TO.N,HDMI0_D1_P*%
X141841750Y-95013205D02*
X143077350Y-96248805D01*
X138846430Y-94915565D02*
X138944090Y-95013225D01*
X140922890Y-94915605D02*
X141020490Y-95013205D01*
X138596420Y-94915565D02*
X138846430Y-94915565D01*
X164848860Y-94897835D02*
X164848860Y-94044795D01*
X141020490Y-95013205D02*
X141841750Y-95013205D01*
X139778460Y-95013225D02*
X139876090Y-94915605D01*
X143077350Y-96248805D02*
X161374840Y-96248805D01*
X164645660Y-93841595D02*
X164848860Y-94044795D01*
X162370040Y-95253605D02*
X164493090Y-95253605D01*
X139876090Y-94915605D02*
X140922890Y-94915605D01*
X164493090Y-95253605D02*
X164848860Y-94897835D01*
X161374840Y-96248805D02*
X162370040Y-95253605D01*
X138944090Y-95013225D02*
X139778460Y-95013225D01*
%TO.N,HDMI0_D1_N*%
X138596420Y-95415695D02*
X138846420Y-95415695D01*
X138944080Y-95318025D02*
X139778520Y-95318025D01*
X141715490Y-95318005D02*
X142951090Y-96553605D01*
X139778520Y-95318025D02*
X139876090Y-95415595D01*
X165153660Y-95024085D02*
X165153660Y-94044795D01*
X139876090Y-95415595D02*
X140922890Y-95415595D01*
X161501090Y-96553605D02*
X162496290Y-95558405D01*
X165153660Y-94044795D02*
X165356860Y-93841595D01*
X141020490Y-95318005D02*
X141715490Y-95318005D01*
X142951090Y-96553605D02*
X161501090Y-96553605D01*
X138846420Y-95415695D02*
X138944080Y-95318025D01*
X164619350Y-95558405D02*
X165153660Y-95024085D01*
X140922890Y-95415595D02*
X141020490Y-95318005D01*
X162496290Y-95558405D02*
X164619350Y-95558405D01*
%TO.N,HDMI0_D0_P*%
X165993090Y-92205605D02*
X166348860Y-91849835D01*
X166145660Y-90793595D02*
X166348860Y-90996795D01*
X140922900Y-93415725D02*
X141020500Y-93513325D01*
X139876100Y-93415725D02*
X140922900Y-93415725D01*
X138846440Y-93415685D02*
X138944100Y-93513355D01*
X138596430Y-93415685D02*
X138846440Y-93415685D01*
X138944100Y-93513355D02*
X139778470Y-93513355D01*
X139778470Y-93513355D02*
X139876100Y-93415725D01*
X160855900Y-95148805D02*
X163799090Y-92205605D01*
X143527350Y-95148805D02*
X160855900Y-95148805D01*
X166348860Y-91849835D02*
X166348860Y-90996795D01*
X141020500Y-93513325D02*
X141891870Y-93513325D01*
X141891870Y-93513325D02*
X143527350Y-95148805D01*
X163799090Y-92205605D02*
X165993090Y-92205605D01*
%TO.N,HDMI0_D0_N*%
X139876100Y-93915725D02*
X140922900Y-93915725D01*
X141765620Y-93818125D02*
X143401090Y-95453605D01*
X143401090Y-95453605D02*
X160982150Y-95453605D01*
X166119350Y-92510405D02*
X166653660Y-91976085D01*
X141020500Y-93818125D02*
X141765620Y-93818125D01*
X166653660Y-91976085D02*
X166653660Y-90996795D01*
X163925350Y-92510405D02*
X166119350Y-92510405D01*
X138846430Y-93915815D02*
X138944090Y-93818155D01*
X140922900Y-93915725D02*
X141020500Y-93818125D01*
X138944090Y-93818155D02*
X139778530Y-93818155D01*
X166653660Y-90996795D02*
X166856860Y-90793595D01*
X160982150Y-95453605D02*
X163925350Y-92510405D01*
X138596430Y-93915815D02*
X138846430Y-93915815D01*
X139778530Y-93818155D02*
X139876100Y-93915725D01*
%TO.N,HDMI0_CLK_P*%
X167645660Y-87745595D02*
X167848860Y-87948795D01*
X143977350Y-94048805D02*
X159655890Y-94048805D01*
X139778460Y-92013225D02*
X139876090Y-91915605D01*
X138596430Y-91915565D02*
X138846430Y-91915565D01*
X140922890Y-91915605D02*
X141020490Y-92013205D01*
X140001090Y-91915605D02*
X140797890Y-91915605D01*
X167493090Y-89157605D02*
X167848860Y-88801835D01*
X159655890Y-94048805D02*
X164547090Y-89157605D01*
X167848860Y-88801835D02*
X167848860Y-87948795D01*
X141941750Y-92013205D02*
X143977350Y-94048805D01*
X141020490Y-92013205D02*
X141941750Y-92013205D01*
X164547090Y-89157605D02*
X167493090Y-89157605D01*
X138846430Y-91915565D02*
X138944090Y-92013225D01*
X139876090Y-91915605D02*
X140001090Y-91915605D01*
X138944090Y-92013225D02*
X139778460Y-92013225D01*
X140797890Y-91915605D02*
X140922890Y-91915605D01*
%TO.N,HDMI0_CLK_N*%
X140797890Y-92415605D02*
X140922890Y-92415605D01*
X139876090Y-92415605D02*
X140001090Y-92415605D01*
X168153660Y-88928085D02*
X168153660Y-87948795D01*
X168153660Y-87948795D02*
X168356860Y-87745595D01*
X140001090Y-92415605D02*
X140797890Y-92415605D01*
X164673350Y-89462405D02*
X167619350Y-89462405D01*
X139778520Y-92318025D02*
X139876090Y-92415605D01*
X138944090Y-92318025D02*
X139778520Y-92318025D01*
X140922890Y-92415605D02*
X141020490Y-92318005D01*
X159782150Y-94353605D02*
X164673350Y-89462405D01*
X141815490Y-92318005D02*
X143851100Y-94353605D01*
X138846430Y-92415695D02*
X138944090Y-92318025D01*
X138596430Y-92415695D02*
X138846430Y-92415695D01*
X143851100Y-94353605D02*
X159782150Y-94353605D01*
X141020490Y-92318005D02*
X141815490Y-92318005D01*
X167619350Y-89462405D02*
X168153660Y-88928085D01*
%TO.N,HDMI0_CEC*%
X139753780Y-98415675D02*
X140253910Y-98915805D01*
X138596430Y-98415675D02*
X139753780Y-98415675D01*
%TO.N,DS3_PWR_EN*%
X122493950Y-93666535D02*
X122643950Y-93516535D01*
X122643950Y-93516535D02*
X123351150Y-93516535D01*
D28*
%TO.N,GND*%
X139352070Y-92915605D02*
X140001090Y-92915605D01*
X123351160Y-94016665D02*
X124208360Y-94016665D01*
X140001090Y-104415675D02*
X140797890Y-104415675D01*
X130751150Y-95516545D02*
X131608350Y-95516545D01*
D30*
X141562030Y-97415685D02*
X142400030Y-98253685D01*
D28*
X140797850Y-95915555D02*
X140797890Y-95915605D01*
X140797850Y-92915555D02*
X140797890Y-92915605D01*
X137739220Y-99915805D02*
X138596420Y-99915805D01*
X140797890Y-101415725D02*
X140798010Y-101415605D01*
X140001090Y-101415675D02*
X140797850Y-101415675D01*
X123351150Y-98516785D02*
X124208350Y-98516785D01*
X137739220Y-95915555D02*
X139352020Y-95915555D01*
X138596420Y-99915805D02*
X139352020Y-99915805D01*
X138596430Y-92915555D02*
X139352030Y-92915555D01*
X138596420Y-91415685D02*
X139352020Y-91415685D01*
X137739230Y-97415685D02*
X138596430Y-97415685D01*
X137739230Y-92915555D02*
X138596430Y-92915555D01*
X139352030Y-105915805D02*
X141401090Y-105915805D01*
X139352030Y-102915805D02*
X141401090Y-102915805D01*
X123351150Y-97016655D02*
X124208350Y-97016655D01*
X138596430Y-97415685D02*
X139352030Y-97415685D01*
X140797850Y-101415675D02*
X140797890Y-101415725D01*
X139352020Y-99915805D02*
X141401080Y-99915805D01*
X138596420Y-104415675D02*
X139352020Y-104415675D01*
X139352060Y-95915605D02*
X140001090Y-95915605D01*
X140001090Y-95915555D02*
X140797850Y-95915555D01*
D31*
X174751170Y-79704005D02*
X174751170Y-77773595D01*
D28*
X130751150Y-97016655D02*
X131608350Y-97016655D01*
D30*
X139352030Y-97415685D02*
X141562030Y-97415685D01*
D28*
X137739220Y-91415685D02*
X138596420Y-91415685D01*
X138596430Y-105915805D02*
X139352030Y-105915805D01*
X138596420Y-101415675D02*
X139352020Y-101415675D01*
X140798010Y-101415605D02*
X141401090Y-101415605D01*
X140798010Y-104415605D02*
X141401090Y-104415605D01*
X137739230Y-94415685D02*
X138596430Y-94415685D01*
X139352060Y-104415725D02*
X140001090Y-104415725D01*
X139352070Y-101415725D02*
X140001090Y-101415725D01*
X130751150Y-98516785D02*
X131408350Y-98516785D01*
X139352020Y-91415685D02*
X142400020Y-91415685D01*
X140001090Y-92915555D02*
X140797850Y-92915555D01*
X138596430Y-94415685D02*
X139352030Y-94415685D01*
D31*
X122251000Y-79703515D02*
X122251000Y-77773095D01*
D28*
X130751160Y-94016665D02*
X131608360Y-94016665D01*
X138596430Y-102915805D02*
X139352030Y-102915805D01*
X123351150Y-95516545D02*
X124208350Y-95516545D01*
%TD*%
%TA.AperFunction,Conductor*%
%TO.N,GND*%
G36*
X138511210Y-89305215D02*
G01*
X138621400Y-89378835D01*
X138751380Y-89404695D01*
X138751390Y-89404685D01*
X143210700Y-89404685D01*
X144883780Y-91077775D01*
X144850340Y-91188015D01*
X144816380Y-91194775D01*
X144690360Y-91278985D01*
X144654360Y-91332855D01*
X144523560Y-91345735D01*
X143129820Y-89951995D01*
X143019630Y-89878365D01*
X142889650Y-89852515D01*
X142889640Y-89852515D01*
X138441490Y-89852515D01*
X137040970Y-88451985D01*
X136930780Y-88378365D01*
X136800800Y-88352505D01*
X136800790Y-88352505D01*
X134651400Y-88352505D01*
X134651390Y-88352505D01*
X134521410Y-88378365D01*
X134411220Y-88451985D01*
X133010690Y-89852515D01*
X127651380Y-89852515D01*
X127521400Y-89878365D01*
X127411210Y-89951995D01*
X127411210Y-89952005D01*
X126960930Y-90402285D01*
X126887300Y-90512475D01*
X126861440Y-90642445D01*
X126861450Y-90642465D01*
X126861450Y-95875915D01*
X125491130Y-97246235D01*
X124005150Y-97246235D01*
X124005150Y-97112535D01*
X122860070Y-97112535D01*
X122860070Y-96920535D01*
X124005140Y-96920535D01*
X124005140Y-96786965D01*
X124981510Y-96786965D01*
X124981530Y-96786975D01*
X125111500Y-96761115D01*
X125221690Y-96687485D01*
X126602690Y-95306485D01*
X126602700Y-95306485D01*
X126676330Y-95196295D01*
X126702180Y-95066315D01*
X126702180Y-95066305D01*
X126702180Y-90182845D01*
X127480340Y-89404685D01*
X132939640Y-89404685D01*
X132939650Y-89404695D01*
X133069630Y-89378835D01*
X133179820Y-89305215D01*
X134541790Y-87943245D01*
X137149250Y-87943245D01*
X138511210Y-89305215D01*
G37*
%TD.AperFunction*%
%TA.AperFunction,Conductor*%
G36*
X135699390Y-77135845D02*
G01*
X135687900Y-77223095D01*
X135687900Y-77582585D01*
X136750990Y-77582585D01*
X137814090Y-77582585D01*
X137814090Y-77223095D01*
X137802610Y-77135845D01*
X137813000Y-77123995D01*
X137898160Y-77083225D01*
X138195230Y-77380295D01*
X138195230Y-78253605D01*
X138197210Y-78263555D01*
X138195880Y-78273605D01*
X138204440Y-78404135D01*
X138212240Y-78433225D01*
X138214210Y-78463295D01*
X138281770Y-78715445D01*
X138299470Y-78751335D01*
X138312330Y-78789215D01*
X138442850Y-79015295D01*
X138469230Y-79045375D01*
X138491460Y-79078645D01*
X138676050Y-79263235D01*
X138709320Y-79285465D01*
X138739400Y-79311845D01*
X138965480Y-79442375D01*
X139003360Y-79455225D01*
X139039250Y-79472925D01*
X139291400Y-79540495D01*
X139331330Y-79543105D01*
X139370570Y-79550915D01*
X139631620Y-79550915D01*
X139670860Y-79543105D01*
X139710780Y-79540495D01*
X139962940Y-79472925D01*
X139998830Y-79455225D01*
X140036710Y-79442375D01*
X140262780Y-79311845D01*
X140292860Y-79285465D01*
X140326130Y-79263235D01*
X140510730Y-79078645D01*
X140532950Y-79045375D01*
X140559340Y-79015295D01*
X140689860Y-78789215D01*
X140702720Y-78751335D01*
X140720420Y-78715445D01*
X140787980Y-78463295D01*
X140789950Y-78433235D01*
X140797750Y-78404135D01*
X140806300Y-78273615D01*
X140804980Y-78263555D01*
X140806960Y-78253605D01*
X140806960Y-77380295D01*
X141127790Y-77059465D01*
X155874390Y-77059465D01*
X156195230Y-77380295D01*
X156195230Y-78253605D01*
X156197210Y-78263555D01*
X156195880Y-78273605D01*
X156204440Y-78404135D01*
X156212240Y-78433225D01*
X156214210Y-78463295D01*
X156281770Y-78715445D01*
X156299470Y-78751335D01*
X156312330Y-78789215D01*
X156442850Y-79015295D01*
X156469230Y-79045375D01*
X156491460Y-79078645D01*
X156676050Y-79263235D01*
X156709320Y-79285465D01*
X156739400Y-79311845D01*
X156965480Y-79442375D01*
X157003360Y-79455225D01*
X157039250Y-79472925D01*
X157291400Y-79540495D01*
X157331330Y-79543105D01*
X157370570Y-79550915D01*
X157631620Y-79550915D01*
X157670860Y-79543105D01*
X157710780Y-79540495D01*
X157962940Y-79472925D01*
X157998830Y-79455225D01*
X158036710Y-79442375D01*
X158262780Y-79311845D01*
X158292860Y-79285465D01*
X158326130Y-79263235D01*
X158510730Y-79078645D01*
X158532950Y-79045375D01*
X158559340Y-79015295D01*
X158689860Y-78789215D01*
X158702720Y-78751335D01*
X158720420Y-78715445D01*
X158787980Y-78463295D01*
X158789950Y-78433235D01*
X158797750Y-78404135D01*
X158803026Y-78323595D01*
X158806300Y-78273615D01*
X158804980Y-78263555D01*
X158806960Y-78253605D01*
X158806960Y-77964105D01*
X159188080Y-77964105D01*
X159188080Y-78323595D01*
X159224300Y-78598735D01*
X159330510Y-78855135D01*
X159499450Y-79075315D01*
X159719630Y-79244255D01*
X159976020Y-79350465D01*
X160060680Y-79361605D01*
X160441680Y-79361605D01*
X160526320Y-79350465D01*
X160782720Y-79244255D01*
X161002890Y-79075315D01*
X161171840Y-78855135D01*
X161278040Y-78598735D01*
X161314270Y-78323595D01*
X161314270Y-77964105D01*
X173688070Y-77964105D01*
X173688070Y-78323595D01*
X173724300Y-78598735D01*
X173830500Y-78855135D01*
X173999450Y-79075315D01*
X174219620Y-79244255D01*
X174476020Y-79350465D01*
X174560660Y-79361605D01*
X174560660Y-77964105D01*
X173688070Y-77964105D01*
X161314270Y-77964105D01*
X160441680Y-77964105D01*
X160441680Y-79361605D01*
X160060680Y-79361605D01*
X160060680Y-77964105D01*
X159188080Y-77964105D01*
X158806960Y-77964105D01*
X158806960Y-77380295D01*
X159104090Y-77083165D01*
X159188980Y-77123715D01*
X159199630Y-77135845D01*
X159188080Y-77223585D01*
X159188080Y-77583105D01*
X160251180Y-77583105D01*
X161314270Y-77583105D01*
X161314270Y-77223585D01*
X161302720Y-77135845D01*
X161369710Y-77059465D01*
X173374400Y-77059465D01*
X173688070Y-77373135D01*
X173688070Y-77583105D01*
X174751160Y-77583105D01*
X174751160Y-77773605D01*
X174941660Y-77773605D01*
X174941660Y-79361605D01*
X175026320Y-79350465D01*
X175282710Y-79244255D01*
X175439150Y-79124215D01*
X181195230Y-84880295D01*
X181195230Y-99126905D01*
X179374400Y-100947735D01*
X166806960Y-100947735D01*
X166806960Y-99253615D01*
X166783670Y-99136555D01*
X166717370Y-99037325D01*
X166618130Y-98971025D01*
X166501080Y-98947735D01*
X160501110Y-98947735D01*
X160384050Y-98971025D01*
X160284820Y-99037325D01*
X160218520Y-99136555D01*
X160195230Y-99253615D01*
X160195230Y-100947735D01*
X147501110Y-100947735D01*
X147501100Y-100947735D01*
X147384050Y-100971025D01*
X147284810Y-101037325D01*
X146284820Y-102037315D01*
X146218520Y-102136555D01*
X146195230Y-102253605D01*
X146195230Y-111126905D01*
X145374400Y-111947735D01*
X135501110Y-111947735D01*
X135384050Y-111971025D01*
X135284820Y-112037325D01*
X135218510Y-112136565D01*
X135195230Y-112253615D01*
X135195230Y-132947735D01*
X117627790Y-132947735D01*
X116524150Y-131844095D01*
X123314340Y-131844095D01*
X123320330Y-131889585D01*
X123411420Y-132109495D01*
X123556320Y-132298335D01*
X123745160Y-132443235D01*
X123965070Y-132534325D01*
X124201060Y-132565395D01*
X124860570Y-132565395D01*
X125241570Y-132565395D01*
X125901060Y-132565395D01*
X126137050Y-132534325D01*
X126356950Y-132443235D01*
X126545790Y-132298335D01*
X126690700Y-132109495D01*
X126781780Y-131889585D01*
X126787770Y-131844095D01*
X125241570Y-131844095D01*
X125241570Y-132565395D01*
X124860570Y-132565395D01*
X124860570Y-131844095D01*
X123314340Y-131844095D01*
X116524150Y-131844095D01*
X116143150Y-131463095D01*
X123314340Y-131463095D01*
X124860570Y-131463095D01*
X124860570Y-130741795D01*
X125241570Y-130741795D01*
X125241570Y-131463095D01*
X126787770Y-131463095D01*
X126781780Y-131417605D01*
X126690700Y-131197695D01*
X126545790Y-131008855D01*
X126356950Y-130863955D01*
X126137050Y-130772865D01*
X125901060Y-130741795D01*
X125241570Y-130741795D01*
X124860570Y-130741795D01*
X124201060Y-130741795D01*
X123965070Y-130772865D01*
X123745160Y-130863955D01*
X123556320Y-131008855D01*
X123411420Y-131197695D01*
X123320330Y-131417605D01*
X123314340Y-131463095D01*
X116143150Y-131463095D01*
X115806960Y-131126905D01*
X115806960Y-119044045D01*
X123314360Y-119044045D01*
X123320350Y-119089535D01*
X123411440Y-119309445D01*
X123556340Y-119498285D01*
X123745180Y-119643185D01*
X123965080Y-119734275D01*
X124201080Y-119765345D01*
X124860590Y-119765345D01*
X125241590Y-119765345D01*
X125901070Y-119765345D01*
X126137060Y-119734275D01*
X126356970Y-119643185D01*
X126545810Y-119498285D01*
X126690710Y-119309445D01*
X126781800Y-119089535D01*
X126787790Y-119044045D01*
X125241590Y-119044045D01*
X125241590Y-119765345D01*
X124860590Y-119765345D01*
X124860590Y-119044045D01*
X123314360Y-119044045D01*
X115806960Y-119044045D01*
X115806960Y-118663045D01*
X123314360Y-118663045D01*
X124860590Y-118663045D01*
X124860590Y-117941745D01*
X125241590Y-117941745D01*
X125241590Y-118663045D01*
X126787790Y-118663045D01*
X126781800Y-118617555D01*
X126690710Y-118397645D01*
X126545810Y-118208805D01*
X126356970Y-118063905D01*
X126137060Y-117972815D01*
X125901070Y-117941745D01*
X125241590Y-117941745D01*
X124860590Y-117941745D01*
X124201080Y-117941745D01*
X123965080Y-117972815D01*
X123745180Y-118063905D01*
X123556340Y-118208805D01*
X123411440Y-118397645D01*
X123320350Y-118617555D01*
X123314360Y-118663045D01*
X115806960Y-118663045D01*
X115806960Y-116151605D01*
X117564630Y-116151605D01*
X117594200Y-116300255D01*
X117678410Y-116426285D01*
X117804440Y-116510495D01*
X117953100Y-116540065D01*
X118101760Y-116510495D01*
X118227780Y-116426285D01*
X118311990Y-116300255D01*
X118341560Y-116151605D01*
X118580630Y-116151605D01*
X118610200Y-116300255D01*
X118694410Y-116426285D01*
X118820440Y-116510495D01*
X118969100Y-116540065D01*
X119117760Y-116510495D01*
X119243780Y-116426285D01*
X119325752Y-116303605D01*
X121542120Y-116303605D01*
X121561830Y-116402715D01*
X121617970Y-116486735D01*
X121617980Y-116486735D01*
X121817960Y-116686715D01*
X121817970Y-116686725D01*
X121901990Y-116742865D01*
X122001090Y-116762575D01*
X127901090Y-116762575D01*
X128000200Y-116742865D01*
X128084220Y-116686725D01*
X128284220Y-116486725D01*
X128340360Y-116402705D01*
X128360070Y-116303605D01*
X128360070Y-113503605D01*
X128340360Y-113404495D01*
X128284220Y-113320475D01*
X128084220Y-113120475D01*
X128000200Y-113064335D01*
X127901090Y-113044625D01*
X126101090Y-113044625D01*
X126001990Y-113064335D01*
X125917970Y-113120475D01*
X125493820Y-113544625D01*
X122865090Y-113544625D01*
X122865090Y-113544605D01*
X121737090Y-113544605D01*
X121737090Y-113701355D01*
X121617970Y-113820475D01*
X121561830Y-113904495D01*
X121542120Y-114003605D01*
X121542120Y-116303605D01*
X119325752Y-116303605D01*
X119327990Y-116300255D01*
X119357560Y-116151605D01*
X119327990Y-116002945D01*
X119243780Y-115876915D01*
X119117760Y-115792705D01*
X118969100Y-115763135D01*
X118820440Y-115792705D01*
X118694410Y-115876915D01*
X118610200Y-116002945D01*
X118580630Y-116151605D01*
X118341560Y-116151605D01*
X118311990Y-116002945D01*
X118227780Y-115876915D01*
X118101760Y-115792705D01*
X117953100Y-115763135D01*
X117804440Y-115792705D01*
X117678410Y-115876915D01*
X117594200Y-116002945D01*
X117564630Y-116151605D01*
X115806960Y-116151605D01*
X115806960Y-115135605D01*
X117564630Y-115135605D01*
X117594200Y-115284255D01*
X117678410Y-115410285D01*
X117804440Y-115494495D01*
X117953100Y-115524065D01*
X118101760Y-115494495D01*
X118227780Y-115410285D01*
X118311990Y-115284255D01*
X118341560Y-115135605D01*
X118580630Y-115135605D01*
X118610200Y-115284255D01*
X118694410Y-115410285D01*
X118820440Y-115494495D01*
X118969100Y-115524065D01*
X119117760Y-115494495D01*
X119243780Y-115410285D01*
X119327990Y-115284255D01*
X119357560Y-115135605D01*
X119327990Y-114986945D01*
X119243780Y-114860915D01*
X119117760Y-114776705D01*
X118969100Y-114747135D01*
X118820440Y-114776705D01*
X118694410Y-114860915D01*
X118610200Y-114986945D01*
X118580630Y-115135605D01*
X118341560Y-115135605D01*
X118311990Y-114986945D01*
X118227780Y-114860915D01*
X118101760Y-114776705D01*
X117953100Y-114747135D01*
X117804440Y-114776705D01*
X117678410Y-114860915D01*
X117594200Y-114986945D01*
X117564630Y-115135605D01*
X115806960Y-115135605D01*
X115806960Y-114003605D01*
X115806960Y-108999835D01*
X116001090Y-108999835D01*
X116097170Y-109482825D01*
X116285620Y-109937795D01*
X116559210Y-110347265D01*
X116907430Y-110695485D01*
X117316900Y-110969075D01*
X117771870Y-111157525D01*
X118254860Y-111253605D01*
X118747320Y-111253605D01*
X119230310Y-111157525D01*
X119685290Y-110969075D01*
X120094750Y-110695485D01*
X120442970Y-110347265D01*
X120716560Y-109937795D01*
X120905020Y-109482825D01*
X121001090Y-108999835D01*
X121001090Y-108507375D01*
X120905020Y-108024385D01*
X120716560Y-107569405D01*
X120442970Y-107159945D01*
X120094750Y-106811725D01*
X119685290Y-106538135D01*
X119230310Y-106349675D01*
X118747320Y-106253605D01*
X118254860Y-106253605D01*
X117771870Y-106349675D01*
X117316900Y-106538135D01*
X116907430Y-106811725D01*
X116559210Y-107159945D01*
X116285620Y-107569405D01*
X116097170Y-108024385D01*
X116001090Y-108507375D01*
X116001090Y-108999835D01*
X115806960Y-108999835D01*
X115806960Y-108507375D01*
X115806960Y-105753605D01*
X116492120Y-105753605D01*
X116511830Y-105852705D01*
X116567970Y-105936725D01*
X116667970Y-106036725D01*
X116751990Y-106092865D01*
X116851090Y-106112575D01*
X119401090Y-106112575D01*
X119500200Y-106092865D01*
X119584220Y-106036725D01*
X119684220Y-105936725D01*
X119740360Y-105852705D01*
X119760070Y-105753605D01*
X119760070Y-105653605D01*
X121542120Y-105653605D01*
X121561830Y-105752715D01*
X121617970Y-105836725D01*
X121617980Y-105836735D01*
X121817960Y-106036715D01*
X121817970Y-106036725D01*
X121901990Y-106092865D01*
X122001090Y-106112575D01*
X123786600Y-106112575D01*
X123817420Y-106214175D01*
X123774410Y-106242915D01*
X123690200Y-106368935D01*
X123660630Y-106517595D01*
X123690200Y-106666255D01*
X123774410Y-106792285D01*
X123900440Y-106876495D01*
X124049100Y-106906065D01*
X124197760Y-106876495D01*
X124323780Y-106792285D01*
X124407990Y-106666255D01*
X124437560Y-106517595D01*
X124407990Y-106368935D01*
X124323780Y-106242915D01*
X124280780Y-106214175D01*
X124311600Y-106112575D01*
X127901090Y-106112575D01*
X128000200Y-106092865D01*
X128084220Y-106036725D01*
X128284220Y-105836725D01*
X128340360Y-105752705D01*
X128360070Y-105653595D01*
X128360070Y-102853595D01*
X128340360Y-102754495D01*
X128284220Y-102670475D01*
X128084220Y-102470475D01*
X128000200Y-102414335D01*
X127901090Y-102394625D01*
X126101090Y-102394625D01*
X126001990Y-102414335D01*
X125917970Y-102470475D01*
X125493820Y-102894625D01*
X122865090Y-102894625D01*
X122865090Y-102894605D01*
X121737090Y-102894605D01*
X121737090Y-103051355D01*
X121617970Y-103170475D01*
X121561830Y-103254495D01*
X121542120Y-103353595D01*
X121542120Y-105653605D01*
X119760070Y-105653605D01*
X119760070Y-103353595D01*
X119760070Y-102210875D01*
X120708370Y-101262575D01*
X126001090Y-101262575D01*
X126100200Y-101242865D01*
X126184220Y-101186725D01*
X127503170Y-99867775D01*
X127597030Y-99906655D01*
X127597030Y-99970525D01*
X128905030Y-99970525D01*
X128905030Y-99062525D01*
X128441160Y-99062525D01*
X128402280Y-98968665D01*
X129444660Y-97926285D01*
X129538530Y-97965165D01*
X129538530Y-98966595D01*
X129538520Y-98966605D01*
X129566130Y-99105355D01*
X129644720Y-99222975D01*
X130288530Y-99866785D01*
X130288530Y-105753415D01*
X125600910Y-110441035D01*
X123551110Y-110441035D01*
X123551100Y-110441035D01*
X123412350Y-110468635D01*
X123294720Y-110547225D01*
X123294720Y-110547235D01*
X121580470Y-112261475D01*
X119471710Y-112261475D01*
X119199520Y-111989285D01*
X119125780Y-111878915D01*
X118999750Y-111794705D01*
X118851090Y-111765135D01*
X118702430Y-111794705D01*
X118576410Y-111878915D01*
X118492200Y-112004945D01*
X118462630Y-112153605D01*
X118492200Y-112302265D01*
X118576410Y-112428285D01*
X118686770Y-112502035D01*
X119065150Y-112880405D01*
X119065160Y-112880415D01*
X119182780Y-112959005D01*
X119321530Y-112986605D01*
X121730640Y-112986605D01*
X121730650Y-112986615D01*
X121869400Y-112959005D01*
X121987030Y-112880415D01*
X123701280Y-111166165D01*
X125751080Y-111166165D01*
X125751100Y-111166175D01*
X125889840Y-111138565D01*
X126007470Y-111059975D01*
X130907470Y-106159975D01*
X130986060Y-106042345D01*
X131013660Y-105903605D01*
X131013660Y-105903585D01*
X131013660Y-99716605D01*
X130986060Y-99577855D01*
X130907470Y-99460225D01*
X130907460Y-99460225D01*
X130263660Y-98816425D01*
X130263660Y-98420665D01*
X131405160Y-98420665D01*
X131405160Y-98286965D01*
X131572750Y-98286965D01*
X131663440Y-98377655D01*
X131663440Y-106810925D01*
X130860930Y-107613435D01*
X130787300Y-107723625D01*
X130761440Y-107853605D01*
X130761450Y-107853615D01*
X130761450Y-116562915D01*
X126810410Y-120513955D01*
X118289940Y-120513955D01*
X118159960Y-120539805D01*
X118049770Y-120613435D01*
X118049770Y-120613445D01*
X116899490Y-121763725D01*
X116825860Y-121873915D01*
X116800000Y-122003885D01*
X116800010Y-122003905D01*
X116800010Y-125145195D01*
X116800000Y-125145205D01*
X116825860Y-125275185D01*
X116899490Y-125385375D01*
X118141760Y-126627655D01*
X118251950Y-126701275D01*
X118381930Y-126727135D01*
X118381940Y-126727135D01*
X118968240Y-126727135D01*
X119041680Y-126837055D01*
X119167710Y-126921255D01*
X119316370Y-126950825D01*
X119465030Y-126921255D01*
X119591060Y-126837055D01*
X119675260Y-126711025D01*
X119704830Y-126562365D01*
X119675260Y-126413705D01*
X119591060Y-126287675D01*
X119545990Y-126257565D01*
X119545990Y-126155965D01*
X119591060Y-126125855D01*
X119675260Y-125999825D01*
X119704830Y-125851165D01*
X119675260Y-125702505D01*
X119591060Y-125576475D01*
X119465030Y-125492275D01*
X119316370Y-125462695D01*
X119167710Y-125492275D01*
X119041680Y-125576475D01*
X118968240Y-125686395D01*
X118672330Y-125686395D01*
X117840740Y-124854805D01*
X117840740Y-122294285D01*
X118580340Y-121554685D01*
X127100800Y-121554685D01*
X127100810Y-121554695D01*
X127230790Y-121528835D01*
X127340980Y-121455205D01*
X131702690Y-117093485D01*
X131702700Y-117093485D01*
X131776330Y-116983295D01*
X131802180Y-116853315D01*
X131802180Y-116853305D01*
X131802180Y-108144005D01*
X132604690Y-107341495D01*
X132678320Y-107231305D01*
X132704170Y-107101325D01*
X132704170Y-98087255D01*
X132678320Y-97957285D01*
X132604690Y-97847095D01*
X132604690Y-97847085D01*
X132103310Y-97345705D01*
X131993120Y-97272085D01*
X131863150Y-97246225D01*
X131863130Y-97246235D01*
X131405150Y-97246235D01*
X131405150Y-97112535D01*
X130263660Y-97112535D01*
X130263660Y-96920535D01*
X131405140Y-96920535D01*
X131405140Y-96786965D01*
X132054120Y-96786965D01*
X132877590Y-97610425D01*
X132877590Y-107596775D01*
X132160930Y-108313435D01*
X132087300Y-108423625D01*
X132061440Y-108553605D01*
X132061450Y-108553615D01*
X132061450Y-117512915D01*
X127710410Y-121863955D01*
X119007050Y-121863955D01*
X118877070Y-121889805D01*
X118766880Y-121963435D01*
X118216600Y-122513715D01*
X118142970Y-122623905D01*
X118117120Y-122753885D01*
X118117120Y-122753895D01*
X118117120Y-124155965D01*
X118117120Y-124155975D01*
X118142970Y-124285955D01*
X118216600Y-124396145D01*
X118541760Y-124721305D01*
X118651950Y-124794935D01*
X118781930Y-124820795D01*
X118781940Y-124820785D01*
X118968240Y-124820785D01*
X119041680Y-124930705D01*
X119167710Y-125014915D01*
X119316370Y-125044485D01*
X119465030Y-125014915D01*
X119591060Y-124930705D01*
X119675260Y-124804675D01*
X119704830Y-124656025D01*
X119675260Y-124507365D01*
X119591060Y-124381335D01*
X119545990Y-124351225D01*
X119545990Y-124249625D01*
X119591060Y-124219505D01*
X119675260Y-124093475D01*
X119704830Y-123944825D01*
X119675260Y-123796165D01*
X119591060Y-123670135D01*
X119465030Y-123585925D01*
X119316370Y-123556355D01*
X119259450Y-123567675D01*
X119157850Y-123484295D01*
X119157850Y-123044285D01*
X119297450Y-122904685D01*
X128000790Y-122904685D01*
X128000810Y-122904695D01*
X128130780Y-122878835D01*
X128240970Y-122805205D01*
X133002690Y-118043485D01*
X133002700Y-118043485D01*
X133076330Y-117933295D01*
X133102180Y-117803315D01*
X133102180Y-117803305D01*
X133102180Y-108844005D01*
X133818840Y-108127345D01*
X133892470Y-108017155D01*
X133918320Y-107887175D01*
X133918320Y-107887165D01*
X133918320Y-97320045D01*
X133918320Y-97320025D01*
X133892470Y-97190055D01*
X133818840Y-97079865D01*
X133818830Y-97079855D01*
X132584690Y-95845715D01*
X132474500Y-95772085D01*
X132344520Y-95746225D01*
X132344510Y-95746235D01*
X131405140Y-95746235D01*
X131405140Y-95612665D01*
X130263660Y-95612665D01*
X130263660Y-95420665D01*
X131405150Y-95420665D01*
X131405150Y-95286965D01*
X132354130Y-95286965D01*
X134102000Y-97034835D01*
X134102000Y-108311205D01*
X133449490Y-108963725D01*
X133375860Y-109073915D01*
X133350000Y-109203885D01*
X133350010Y-109203905D01*
X133350010Y-118524355D01*
X127135070Y-124739295D01*
X126467110Y-124739295D01*
X126440740Y-124712925D01*
X126440740Y-124453615D01*
X126440740Y-124453605D01*
X126414880Y-124323625D01*
X126341260Y-124213435D01*
X126191260Y-124063435D01*
X126081070Y-123989815D01*
X126055100Y-123984645D01*
X126055100Y-123774605D01*
X124697100Y-123774605D01*
X124697100Y-124832605D01*
X125048300Y-124832605D01*
X125062300Y-124902985D01*
X125135370Y-125012345D01*
X125142200Y-125046665D01*
X125226410Y-125172695D01*
X125271480Y-125202805D01*
X125271480Y-125304405D01*
X125226410Y-125334515D01*
X125142200Y-125460545D01*
X125135370Y-125494865D01*
X125062300Y-125604225D01*
X125048300Y-125674605D01*
X124697100Y-125674605D01*
X124697100Y-126732605D01*
X126055100Y-126732605D01*
X126055100Y-126522565D01*
X126081070Y-126517395D01*
X126191260Y-126443775D01*
X126341260Y-126293775D01*
X126414880Y-126183585D01*
X126440740Y-126053605D01*
X126440740Y-126053595D01*
X126440740Y-125794295D01*
X126455000Y-125780025D01*
X127425450Y-125780025D01*
X127425470Y-125780035D01*
X127555440Y-125754175D01*
X127665630Y-125680555D01*
X134291250Y-119054925D01*
X134291260Y-119054925D01*
X134364890Y-118944735D01*
X134390740Y-118814755D01*
X134390740Y-109494285D01*
X135043250Y-108841775D01*
X135116880Y-108731585D01*
X135142740Y-108601605D01*
X135142730Y-108601595D01*
X135142730Y-96744435D01*
X135116880Y-96614455D01*
X135043250Y-96504265D01*
X132884700Y-94345715D01*
X132774510Y-94272085D01*
X132644530Y-94246225D01*
X132644520Y-94246235D01*
X131405150Y-94246235D01*
X131405150Y-94203605D01*
X133592120Y-94203605D01*
X133611830Y-94302705D01*
X133667970Y-94386725D01*
X135592120Y-96310875D01*
X135592120Y-96514755D01*
X135611830Y-96613855D01*
X135647250Y-96666875D01*
X135673110Y-96729285D01*
X135673110Y-96777825D01*
X135647250Y-96840235D01*
X135611830Y-96893255D01*
X135592120Y-96992355D01*
X135592120Y-105014855D01*
X135611830Y-105113955D01*
X135647290Y-105167035D01*
X135673130Y-105229405D01*
X135673130Y-105277955D01*
X135647290Y-105340325D01*
X135611830Y-105393405D01*
X135592120Y-105492505D01*
X135592120Y-106514995D01*
X135611830Y-106614095D01*
X135647270Y-106667135D01*
X135673120Y-106729535D01*
X135673120Y-106778075D01*
X135647270Y-106840475D01*
X135611830Y-106893515D01*
X135592120Y-106992615D01*
X135592120Y-108015125D01*
X135611830Y-108114235D01*
X135647250Y-108167235D01*
X135673100Y-108229655D01*
X135673100Y-108278195D01*
X135647250Y-108340615D01*
X135611830Y-108393625D01*
X135592120Y-108492725D01*
X135592120Y-109353605D01*
X135593480Y-109360455D01*
X135510100Y-109462055D01*
X135442250Y-109462055D01*
X135442250Y-110370055D01*
X136523140Y-110370055D01*
X136567120Y-110435885D01*
X137367970Y-111236725D01*
X137451990Y-111292865D01*
X137551090Y-111312575D01*
X139651090Y-111312575D01*
X139750200Y-111292865D01*
X139834220Y-111236725D01*
X139917350Y-111153595D01*
X142162630Y-111153595D01*
X142192200Y-111302255D01*
X142276410Y-111428285D01*
X142402430Y-111512495D01*
X142551090Y-111542065D01*
X142699750Y-111512495D01*
X142825780Y-111428285D01*
X142909990Y-111302255D01*
X142939560Y-111153595D01*
X142909990Y-111004945D01*
X142825780Y-110878915D01*
X142699750Y-110794705D01*
X142551090Y-110765135D01*
X142402430Y-110794705D01*
X142276410Y-110878915D01*
X142192200Y-111004945D01*
X142162630Y-111153595D01*
X139917350Y-111153595D01*
X139934220Y-111136725D01*
X139990360Y-111052705D01*
X140010070Y-110953605D01*
X140010070Y-109203605D01*
X139990360Y-109104495D01*
X139934220Y-109020475D01*
X139861610Y-108947875D01*
X139867990Y-108915795D01*
X139867990Y-108718135D01*
X139836450Y-108559565D01*
X139832468Y-108553605D01*
X144162630Y-108553605D01*
X144192200Y-108702265D01*
X144276410Y-108828285D01*
X144402440Y-108912495D01*
X144551090Y-108942065D01*
X144699750Y-108912495D01*
X144825780Y-108828285D01*
X144909990Y-108702265D01*
X144924370Y-108629975D01*
X145027960Y-108629975D01*
X145042330Y-108702245D01*
X145126540Y-108828275D01*
X145252570Y-108912475D01*
X145401230Y-108942045D01*
X145549890Y-108912475D01*
X145675910Y-108828275D01*
X145760120Y-108702245D01*
X145789690Y-108553585D01*
X145760120Y-108404925D01*
X145675910Y-108278895D01*
X145549890Y-108194695D01*
X145401230Y-108165115D01*
X145252570Y-108194695D01*
X145126540Y-108278895D01*
X145042330Y-108404925D01*
X145027950Y-108477205D01*
X144924360Y-108477205D01*
X144909990Y-108404945D01*
X144825780Y-108278915D01*
X144699750Y-108194705D01*
X144551090Y-108165135D01*
X144402440Y-108194705D01*
X144276410Y-108278915D01*
X144192200Y-108404945D01*
X144162630Y-108553605D01*
X139832468Y-108553605D01*
X139746630Y-108425135D01*
X139654880Y-108333385D01*
X139693760Y-108239515D01*
X143838900Y-108239515D01*
X143962780Y-108214875D01*
X144067800Y-108144705D01*
X145480000Y-106732505D01*
X145550170Y-106627485D01*
X145574810Y-106503605D01*
X145574810Y-99950995D01*
X145550170Y-99827115D01*
X145480000Y-99722095D01*
X145436830Y-99678925D01*
X145441670Y-99649115D01*
X145507100Y-99577325D01*
X146597090Y-99577325D01*
X146597090Y-99582605D01*
X147905090Y-99582605D01*
X147905090Y-99448155D01*
X147998960Y-99409275D01*
X148372190Y-99782505D01*
X148477210Y-99852685D01*
X148601090Y-99877325D01*
X149147090Y-99877325D01*
X149147090Y-100207605D01*
X151655100Y-100207605D01*
X151655100Y-99877325D01*
X157888120Y-99877325D01*
X158012000Y-99852685D01*
X158117020Y-99782505D01*
X158766600Y-99132925D01*
X158828690Y-99120575D01*
X158954720Y-99036365D01*
X159038930Y-98910345D01*
X159068500Y-98761685D01*
X159291570Y-98761685D01*
X159321140Y-98910345D01*
X159405350Y-99036365D01*
X159531370Y-99120575D01*
X159680030Y-99150145D01*
X159828690Y-99120575D01*
X159954720Y-99036365D01*
X160038930Y-98910345D01*
X160068500Y-98761685D01*
X160038930Y-98613025D01*
X159954720Y-98486995D01*
X159828690Y-98402785D01*
X159680030Y-98373215D01*
X159531370Y-98402785D01*
X159405350Y-98486995D01*
X159321140Y-98613025D01*
X159291570Y-98761685D01*
X159068500Y-98761685D01*
X159038930Y-98613025D01*
X158954720Y-98486995D01*
X158828690Y-98402785D01*
X158680030Y-98373215D01*
X158531380Y-98402785D01*
X158405350Y-98486995D01*
X158321140Y-98613025D01*
X158308790Y-98675125D01*
X157754030Y-99229885D01*
X157251970Y-99229885D01*
X157241960Y-99128285D01*
X157280690Y-99120575D01*
X157406720Y-99036365D01*
X157490930Y-98910345D01*
X157520500Y-98761685D01*
X157490930Y-98613025D01*
X157406720Y-98486995D01*
X157280690Y-98402785D01*
X157132030Y-98373215D01*
X156983370Y-98402785D01*
X156857350Y-98486995D01*
X156773140Y-98613025D01*
X156743570Y-98761685D01*
X156773140Y-98910345D01*
X156857350Y-99036365D01*
X156983370Y-99120575D01*
X157022100Y-99128285D01*
X157012090Y-99229885D01*
X152171970Y-99229885D01*
X152161960Y-99128285D01*
X152200690Y-99120575D01*
X152326720Y-99036365D01*
X152410930Y-98910345D01*
X152440500Y-98761685D01*
X152410930Y-98613025D01*
X152326720Y-98486995D01*
X152200690Y-98402785D01*
X152052030Y-98373215D01*
X151903370Y-98402785D01*
X151777350Y-98486995D01*
X151693140Y-98613025D01*
X151663570Y-98761685D01*
X151672200Y-98805085D01*
X151587410Y-98899605D01*
X149445140Y-98899605D01*
X149380680Y-98821065D01*
X149392500Y-98761685D01*
X149362930Y-98613025D01*
X149278720Y-98486995D01*
X149152690Y-98402785D01*
X149004030Y-98373215D01*
X148855370Y-98402785D01*
X148729350Y-98486995D01*
X148645140Y-98613025D01*
X148615570Y-98761685D01*
X148645140Y-98910345D01*
X148729350Y-99036365D01*
X148855370Y-99120575D01*
X148894100Y-99128285D01*
X148884090Y-99229885D01*
X148735180Y-99229885D01*
X148230000Y-98724695D01*
X148124980Y-98654525D01*
X148001090Y-98629885D01*
X147905090Y-98629885D01*
X147905090Y-98324605D01*
X146597090Y-98324605D01*
X146597090Y-98929885D01*
X146414630Y-98929885D01*
X146331250Y-98828275D01*
X146344500Y-98761685D01*
X146314930Y-98613025D01*
X146230720Y-98486995D01*
X146104690Y-98402785D01*
X145956030Y-98373215D01*
X145807370Y-98402785D01*
X145681350Y-98486995D01*
X145597140Y-98613025D01*
X145567570Y-98761685D01*
X145580810Y-98828275D01*
X145497430Y-98929885D01*
X143366630Y-98929885D01*
X143283250Y-98828275D01*
X143296500Y-98761685D01*
X143266930Y-98613025D01*
X143182720Y-98486995D01*
X143056690Y-98402785D01*
X142908030Y-98373215D01*
X142759370Y-98402785D01*
X142633350Y-98486995D01*
X142549140Y-98613025D01*
X142519570Y-98761685D01*
X142532810Y-98828275D01*
X142449430Y-98929885D01*
X142323180Y-98929885D01*
X141080200Y-97686905D01*
X140975180Y-97616725D01*
X140851300Y-97592085D01*
X139250430Y-97592085D01*
X139250430Y-97511805D01*
X137942430Y-97511805D01*
X137942430Y-98319805D01*
X137942430Y-98511805D01*
X137942420Y-98511805D01*
X137942420Y-99319805D01*
X137942440Y-99319805D01*
X137942440Y-99819675D01*
X139250430Y-99819675D01*
X139250430Y-99739395D01*
X140554040Y-99739395D01*
X140677920Y-99714755D01*
X140782950Y-99644585D01*
X141140470Y-99287055D01*
X141202570Y-99274705D01*
X141328600Y-99190495D01*
X141407060Y-99073065D01*
X141430700Y-99056985D01*
X141510470Y-99032785D01*
X141960190Y-99482505D01*
X142065210Y-99552685D01*
X142189090Y-99577325D01*
X143000710Y-99577325D01*
X143080340Y-99678925D01*
X143065440Y-99753805D01*
X143095010Y-99902465D01*
X143179220Y-100028495D01*
X143305250Y-100112705D01*
X143367340Y-100125055D01*
X144327370Y-101085085D01*
X144327370Y-106069515D01*
X143804820Y-106592075D01*
X139250430Y-106592075D01*
X139250430Y-106511795D01*
X139250420Y-106511795D01*
X139250420Y-106011925D01*
X137942430Y-106011925D01*
X137942430Y-106115815D01*
X137937220Y-106116845D01*
X137832200Y-106187025D01*
X137703940Y-106315285D01*
X137610070Y-106276405D01*
X137610070Y-104319805D01*
X137942410Y-104319805D01*
X139250410Y-104319805D01*
X139250410Y-104141865D01*
X139472090Y-104141865D01*
X139472090Y-104319675D01*
X140268890Y-104319675D01*
X141326890Y-104319675D01*
X141326890Y-104141805D01*
X142034030Y-104141805D01*
X142081930Y-104231405D01*
X142058190Y-104266935D01*
X142028620Y-104415595D01*
X142058190Y-104564255D01*
X142081960Y-104599835D01*
X142034070Y-104689435D01*
X141326880Y-104689435D01*
X141326880Y-104511675D01*
X139472090Y-104511675D01*
X139472090Y-104689755D01*
X139250420Y-104689755D01*
X139250420Y-104511795D01*
X137942420Y-104511795D01*
X137942420Y-105319795D01*
X137942430Y-105319795D01*
X137942430Y-105819675D01*
X139250430Y-105819675D01*
X139250430Y-105641995D01*
X139472090Y-105641995D01*
X139472090Y-105819675D01*
X141326880Y-105819675D01*
X141326880Y-105641685D01*
X142034030Y-105641685D01*
X142081930Y-105731285D01*
X142058190Y-105766815D01*
X142028610Y-105915475D01*
X142058190Y-106064135D01*
X142142390Y-106190165D01*
X142268420Y-106274365D01*
X142417080Y-106303935D01*
X142565740Y-106274365D01*
X142691770Y-106190165D01*
X142721880Y-106145095D01*
X142823480Y-106145095D01*
X142853590Y-106190165D01*
X142979620Y-106274365D01*
X143128280Y-106303935D01*
X143276940Y-106274365D01*
X143402970Y-106190165D01*
X143487170Y-106064135D01*
X143516750Y-105915475D01*
X143487170Y-105766815D01*
X143402970Y-105640785D01*
X143276940Y-105556585D01*
X143248800Y-105550985D01*
X143248800Y-105389435D01*
X143224160Y-105265545D01*
X143153980Y-105160525D01*
X142777710Y-104784255D01*
X142752930Y-104767695D01*
X142736440Y-104746815D01*
X142750200Y-104718405D01*
X142789090Y-104707825D01*
X142871060Y-104701955D01*
X142979620Y-104774495D01*
X143128280Y-104804065D01*
X143276940Y-104774495D01*
X143402970Y-104690285D01*
X143487180Y-104564255D01*
X143516750Y-104415595D01*
X143487180Y-104266935D01*
X143402970Y-104140915D01*
X143276940Y-104056705D01*
X143248800Y-104051105D01*
X143248800Y-103889555D01*
X143224160Y-103765675D01*
X143153990Y-103660655D01*
X142777710Y-103284375D01*
X142752820Y-103267745D01*
X142736260Y-103246695D01*
X142750110Y-103218155D01*
X142789120Y-103207605D01*
X142871010Y-103201795D01*
X142979630Y-103274365D01*
X143128290Y-103303935D01*
X143276950Y-103274365D01*
X143402970Y-103190155D01*
X143487180Y-103064135D01*
X143516750Y-102915475D01*
X143487180Y-102766815D01*
X143402970Y-102640785D01*
X143276950Y-102556575D01*
X143248810Y-102550985D01*
X143248810Y-102389435D01*
X143224170Y-102265545D01*
X143153990Y-102160525D01*
X142777720Y-101784255D01*
X142752930Y-101767695D01*
X142736440Y-101746815D01*
X142750190Y-101718415D01*
X142789080Y-101707835D01*
X142871060Y-101701955D01*
X142979620Y-101774495D01*
X143128280Y-101804065D01*
X143276940Y-101774495D01*
X143402960Y-101690285D01*
X143487170Y-101564255D01*
X143516740Y-101415595D01*
X143487170Y-101266935D01*
X143402960Y-101140915D01*
X143276940Y-101056705D01*
X143248800Y-101051105D01*
X143248800Y-100889555D01*
X143224160Y-100765675D01*
X143153980Y-100660655D01*
X142777710Y-100284375D01*
X142672690Y-100214205D01*
X142548800Y-100189565D01*
X141326890Y-100189565D01*
X141326890Y-100011725D01*
X140268890Y-100011725D01*
X139472090Y-100011725D01*
X139472090Y-100189625D01*
X139250430Y-100189625D01*
X139250430Y-100011685D01*
X137942430Y-100011685D01*
X137942430Y-100511815D01*
X137942430Y-101319815D01*
X139250420Y-101319815D01*
X139250420Y-101141865D01*
X139472090Y-101141865D01*
X139472090Y-101319725D01*
X141326890Y-101319725D01*
X141326890Y-101141805D01*
X142034030Y-101141805D01*
X142081920Y-101231405D01*
X142058180Y-101266935D01*
X142028610Y-101415595D01*
X142058180Y-101564255D01*
X142081950Y-101599835D01*
X142034060Y-101689435D01*
X141326890Y-101689435D01*
X141326890Y-101511725D01*
X139472090Y-101511725D01*
X139472090Y-101689755D01*
X139250430Y-101689755D01*
X139250430Y-101511815D01*
X137942430Y-101511815D01*
X137942430Y-102011675D01*
X137942430Y-102819675D01*
X139250430Y-102819675D01*
X139250430Y-102641995D01*
X139472090Y-102641995D01*
X139472090Y-102819715D01*
X141326890Y-102819715D01*
X141326890Y-102641675D01*
X142034040Y-102641675D01*
X142081930Y-102731285D01*
X142058190Y-102766815D01*
X142028620Y-102915475D01*
X142058190Y-103064135D01*
X142082130Y-103099955D01*
X142034240Y-103189565D01*
X141326890Y-103189565D01*
X141326890Y-103011675D01*
X140530080Y-103011675D01*
X139472090Y-103011675D01*
X139472090Y-103189625D01*
X139250420Y-103189625D01*
X139250420Y-103011685D01*
X137942420Y-103011685D01*
X137942420Y-103511805D01*
X137942410Y-103511805D01*
X137942410Y-104319805D01*
X137610070Y-104319805D01*
X137610070Y-103511805D01*
X137610070Y-100047715D01*
X137605090Y-100022705D01*
X137605090Y-99997195D01*
X137588900Y-99915805D01*
X137605090Y-99834425D01*
X137605090Y-99808915D01*
X137610070Y-99783905D01*
X137610070Y-97547515D01*
X137605090Y-97522495D01*
X137605090Y-97496995D01*
X137588920Y-97415685D01*
X137605090Y-97334375D01*
X137605090Y-97308865D01*
X137610070Y-97283855D01*
X137610070Y-96047435D01*
X137605090Y-96022425D01*
X137605090Y-96011675D01*
X137942430Y-96011675D01*
X137942430Y-96819675D01*
X137942430Y-97319555D01*
X139250430Y-97319555D01*
X139250430Y-97141875D01*
X139472090Y-97141875D01*
X139472090Y-97319555D01*
X141326890Y-97319555D01*
X141326890Y-97141725D01*
X141481400Y-97141725D01*
X142224710Y-97885025D01*
X142329730Y-97955205D01*
X142453620Y-97979845D01*
X163362060Y-97979845D01*
X163485940Y-97955205D01*
X163590960Y-97885025D01*
X163882570Y-97593425D01*
X163952740Y-97488405D01*
X163977380Y-97364515D01*
X163977380Y-97254095D01*
X164005520Y-97248495D01*
X164131550Y-97164285D01*
X164215760Y-97038255D01*
X164245330Y-96889595D01*
X164215760Y-96740945D01*
X164131550Y-96614915D01*
X164005520Y-96530705D01*
X163856860Y-96501135D01*
X163708210Y-96530705D01*
X163582180Y-96614915D01*
X163552070Y-96659985D01*
X163450460Y-96659985D01*
X163420350Y-96614915D01*
X163294320Y-96530705D01*
X163145660Y-96501135D01*
X162997010Y-96530705D01*
X162870980Y-96614915D01*
X162786770Y-96740945D01*
X162757200Y-96889595D01*
X162769030Y-96949065D01*
X162704570Y-97027605D01*
X142713960Y-97027605D01*
X141970650Y-96284295D01*
X141865630Y-96214115D01*
X141741750Y-96189475D01*
X141326890Y-96189475D01*
X141326890Y-96011555D01*
X139472090Y-96011555D01*
X139472090Y-96189635D01*
X139250420Y-96189635D01*
X139250420Y-96011675D01*
X137942430Y-96011675D01*
X137605090Y-96011675D01*
X137605090Y-95996915D01*
X137588910Y-95915555D01*
X137605090Y-95834195D01*
X137605090Y-95819685D01*
X137942420Y-95819685D01*
X139250410Y-95819685D01*
X139250410Y-95641745D01*
X139472090Y-95641745D01*
X139472090Y-95819555D01*
X141326890Y-95819555D01*
X141326890Y-95641725D01*
X141581400Y-95641725D01*
X142722190Y-96782505D01*
X142827210Y-96852685D01*
X142951090Y-96877325D01*
X161501090Y-96877325D01*
X161624980Y-96852685D01*
X161730000Y-96782505D01*
X162630380Y-95882125D01*
X164619350Y-95882125D01*
X164743230Y-95857485D01*
X164848250Y-95787305D01*
X165135720Y-95499835D01*
X176001090Y-95499835D01*
X176097170Y-95982825D01*
X176285620Y-96437795D01*
X176559220Y-96847265D01*
X176907440Y-97195475D01*
X177316900Y-97469075D01*
X177771870Y-97657525D01*
X178254860Y-97753605D01*
X178747320Y-97753605D01*
X179230320Y-97657525D01*
X179685290Y-97469075D01*
X180094750Y-97195475D01*
X180442970Y-96847265D01*
X180716560Y-96437795D01*
X180905020Y-95982825D01*
X181001090Y-95499835D01*
X181001090Y-95007375D01*
X180905020Y-94524375D01*
X180716560Y-94069405D01*
X180442970Y-93659945D01*
X180094750Y-93311725D01*
X179685290Y-93038135D01*
X179230320Y-92849675D01*
X178747320Y-92753605D01*
X178254860Y-92753605D01*
X177771870Y-92849675D01*
X177316900Y-93038135D01*
X176907440Y-93311725D01*
X176559220Y-93659945D01*
X176285620Y-94069405D01*
X176097170Y-94524375D01*
X176001090Y-95007375D01*
X176001090Y-95499835D01*
X165135720Y-95499835D01*
X165382570Y-95252985D01*
X165452740Y-95147965D01*
X165477380Y-95024085D01*
X165477380Y-95007375D01*
X165477380Y-94206095D01*
X165505520Y-94200495D01*
X165631550Y-94116285D01*
X165715760Y-93990255D01*
X165745330Y-93841595D01*
X165715760Y-93692945D01*
X165631550Y-93566915D01*
X165505520Y-93482705D01*
X165356860Y-93453135D01*
X165208210Y-93482705D01*
X165082180Y-93566915D01*
X165052060Y-93611985D01*
X164950460Y-93611985D01*
X164920350Y-93566915D01*
X164794320Y-93482705D01*
X164645660Y-93453135D01*
X164497010Y-93482705D01*
X164370980Y-93566915D01*
X164286770Y-93692945D01*
X164257200Y-93841595D01*
X164286770Y-93990255D01*
X164370980Y-94116285D01*
X164497010Y-94200495D01*
X164525140Y-94206095D01*
X164525140Y-94763745D01*
X164359000Y-94929885D01*
X162370040Y-94929885D01*
X162246160Y-94954525D01*
X162141140Y-95024695D01*
X161240750Y-95925085D01*
X143211440Y-95925085D01*
X142070650Y-94784295D01*
X141965630Y-94714125D01*
X141841750Y-94689475D01*
X141326890Y-94689475D01*
X141326890Y-94511555D01*
X139472090Y-94511555D01*
X139472090Y-94689505D01*
X139250420Y-94689505D01*
X139250420Y-94511565D01*
X137942430Y-94511565D01*
X137942430Y-95011685D01*
X137942420Y-95011685D01*
X137942420Y-95819685D01*
X137605090Y-95819685D01*
X137605090Y-95808695D01*
X137610070Y-95783675D01*
X137610070Y-95011685D01*
X137610070Y-94547525D01*
X137605090Y-94522515D01*
X137605090Y-94497005D01*
X137588920Y-94415685D01*
X137605090Y-94334365D01*
X137605090Y-94319555D01*
X137942430Y-94319555D01*
X139250430Y-94319555D01*
X139250430Y-94141875D01*
X139472090Y-94141875D01*
X139472090Y-94319595D01*
X141326890Y-94319595D01*
X141326890Y-94141845D01*
X141631530Y-94141845D01*
X143172190Y-95682505D01*
X143277210Y-95752685D01*
X143401090Y-95777325D01*
X160982150Y-95777325D01*
X161106030Y-95752685D01*
X161211050Y-95682505D01*
X164059440Y-92834125D01*
X166119350Y-92834125D01*
X166243230Y-92809485D01*
X166348250Y-92739305D01*
X166882570Y-92204985D01*
X166952740Y-92099965D01*
X166977380Y-91976085D01*
X166977380Y-91158095D01*
X167005520Y-91152495D01*
X167131550Y-91068285D01*
X167215760Y-90942255D01*
X167245330Y-90793595D01*
X167215760Y-90644945D01*
X167131550Y-90518915D01*
X167005520Y-90434705D01*
X166856860Y-90405135D01*
X166708200Y-90434705D01*
X166582180Y-90518915D01*
X166552060Y-90563985D01*
X166450460Y-90563985D01*
X166420350Y-90518915D01*
X166294320Y-90434705D01*
X166145660Y-90405135D01*
X165997000Y-90434705D01*
X165870980Y-90518915D01*
X165786770Y-90644945D01*
X165757200Y-90793595D01*
X165786770Y-90942255D01*
X165870980Y-91068285D01*
X165997000Y-91152495D01*
X166025140Y-91158095D01*
X166025140Y-91715745D01*
X165859000Y-91881885D01*
X163799090Y-91881885D01*
X163675210Y-91906525D01*
X163570190Y-91976695D01*
X160721810Y-94825085D01*
X143661440Y-94825085D01*
X142120780Y-93284425D01*
X142015750Y-93214245D01*
X141891870Y-93189605D01*
X141326890Y-93189605D01*
X141326890Y-93011605D01*
X139472090Y-93011605D01*
X139472090Y-93189635D01*
X139250430Y-93189635D01*
X139250430Y-93011695D01*
X137942440Y-93011695D01*
X137942440Y-93511555D01*
X137942430Y-93511555D01*
X137942430Y-94319555D01*
X137605090Y-94319555D01*
X137605090Y-94308855D01*
X137610070Y-94283835D01*
X137610070Y-93511555D01*
X137610070Y-93047415D01*
X137605090Y-93022395D01*
X137605090Y-92996895D01*
X137594210Y-92942205D01*
X137584450Y-92918635D01*
X137579480Y-92893615D01*
X137565300Y-92872405D01*
X137555550Y-92848845D01*
X137537510Y-92830805D01*
X137523340Y-92809595D01*
X137434220Y-92720475D01*
X137350200Y-92664335D01*
X137251090Y-92644625D01*
X133951090Y-92644625D01*
X133851990Y-92664335D01*
X133767970Y-92720475D01*
X133667970Y-92820475D01*
X133611830Y-92904495D01*
X133592120Y-93003605D01*
X133592120Y-94203605D01*
X131405150Y-94203605D01*
X131405150Y-94112535D01*
X130263660Y-94112535D01*
X130263660Y-93920535D01*
X131405150Y-93920535D01*
X131405150Y-93003605D01*
X131405150Y-92920545D01*
X131405150Y-92112545D01*
X131405140Y-92112545D01*
X131405140Y-91612665D01*
X130803250Y-91612665D01*
X130751150Y-91602305D01*
X129751150Y-91602305D01*
X129592580Y-91633845D01*
X129576450Y-91644625D01*
X128401090Y-91644625D01*
X128301990Y-91664335D01*
X128217970Y-91720475D01*
X128117970Y-91820475D01*
X128061830Y-91904495D01*
X128042120Y-92003605D01*
X128042120Y-96496335D01*
X125893820Y-98644625D01*
X124901090Y-98644625D01*
X124801980Y-98664335D01*
X124717970Y-98720475D01*
X124393820Y-99044625D01*
X122860070Y-99044625D01*
X122860070Y-98420665D01*
X124005160Y-98420665D01*
X124005160Y-98286965D01*
X125781520Y-98286965D01*
X125781530Y-98286975D01*
X125911500Y-98261115D01*
X126021690Y-98187485D01*
X127802700Y-96406485D01*
X127876330Y-96296295D01*
X127902180Y-96166315D01*
X127902180Y-96166305D01*
X127902180Y-91511565D01*
X137942430Y-91511565D01*
X137942430Y-92011695D01*
X137942430Y-92819695D01*
X139250430Y-92819695D01*
X139250430Y-92641745D01*
X139472090Y-92641745D01*
X139472090Y-92819605D01*
X141326890Y-92819605D01*
X141326890Y-92641725D01*
X141681400Y-92641725D01*
X143622190Y-94582505D01*
X143727210Y-94652685D01*
X143851100Y-94677325D01*
X159782150Y-94677325D01*
X159906030Y-94652685D01*
X160011050Y-94582505D01*
X164807440Y-89786125D01*
X167619350Y-89786125D01*
X167743230Y-89761485D01*
X167848250Y-89691305D01*
X168382570Y-89156985D01*
X168452740Y-89051965D01*
X168477380Y-88928085D01*
X168477380Y-88110095D01*
X168505520Y-88104495D01*
X168631550Y-88020285D01*
X168715760Y-87894255D01*
X168745330Y-87745595D01*
X168715760Y-87596945D01*
X168631550Y-87470915D01*
X168505520Y-87386705D01*
X168356860Y-87357135D01*
X168208200Y-87386705D01*
X168082180Y-87470915D01*
X168052060Y-87515985D01*
X167950460Y-87515985D01*
X167920350Y-87470915D01*
X167794320Y-87386705D01*
X167645660Y-87357135D01*
X167497000Y-87386705D01*
X167370980Y-87470915D01*
X167286770Y-87596945D01*
X167257200Y-87745595D01*
X167286770Y-87894255D01*
X167370980Y-88020285D01*
X167497000Y-88104495D01*
X167525140Y-88110095D01*
X167525140Y-88667745D01*
X167359000Y-88833885D01*
X164547090Y-88833885D01*
X164423210Y-88858525D01*
X164318190Y-88928695D01*
X159521800Y-93725085D01*
X144111440Y-93725085D01*
X142170650Y-91784295D01*
X142065630Y-91714125D01*
X141941750Y-91689485D01*
X141326890Y-91689485D01*
X141326890Y-91511605D01*
X139472090Y-91511605D01*
X139472090Y-91689505D01*
X139250430Y-91689505D01*
X139250430Y-91511565D01*
X137942430Y-91511565D01*
X127902180Y-91511565D01*
X127902180Y-91470675D01*
X128905030Y-91470675D01*
X128905030Y-90893245D01*
X133301080Y-90893245D01*
X133301090Y-90893255D01*
X133419510Y-90869695D01*
X133431070Y-90867395D01*
X133541260Y-90793765D01*
X134373336Y-89961695D01*
X135442310Y-89961695D01*
X135442310Y-90869695D01*
X136750300Y-90869695D01*
X136750300Y-89961695D01*
X135442310Y-89961695D01*
X134373336Y-89961695D01*
X134941790Y-89393245D01*
X136510400Y-89393245D01*
X137910930Y-90793765D01*
X138021120Y-90867395D01*
X138151090Y-90893255D01*
X138151110Y-90893245D01*
X142599250Y-90893245D01*
X143138060Y-91432065D01*
X143113020Y-91497245D01*
X143092350Y-91530035D01*
X142952440Y-91557875D01*
X142826410Y-91642075D01*
X142742200Y-91768105D01*
X142712630Y-91916765D01*
X142742200Y-92065425D01*
X142826410Y-92191455D01*
X142952440Y-92275655D01*
X143101090Y-92305225D01*
X143249750Y-92275655D01*
X143375780Y-92191455D01*
X143459990Y-92065425D01*
X143487820Y-91925505D01*
X143520610Y-91904835D01*
X143585800Y-91879795D01*
X145111200Y-93405205D01*
X145111210Y-93405205D01*
X145221400Y-93478835D01*
X145351370Y-93504695D01*
X145351390Y-93504685D01*
X148788680Y-93504685D01*
X148788690Y-93504695D01*
X148918670Y-93478835D01*
X149028860Y-93405205D01*
X149875140Y-92558935D01*
X149948760Y-92448735D01*
X149974620Y-92318765D01*
X149974620Y-91732455D01*
X150084540Y-91659015D01*
X150168750Y-91532985D01*
X150198320Y-91384325D01*
X150168750Y-91235665D01*
X150084540Y-91109635D01*
X149958510Y-91025435D01*
X149809850Y-90995855D01*
X149661190Y-91025435D01*
X149535170Y-91109635D01*
X149505050Y-91154705D01*
X149403450Y-91154705D01*
X149373340Y-91109635D01*
X149247310Y-91025435D01*
X149098650Y-90995855D01*
X148949990Y-91025435D01*
X148823970Y-91109635D01*
X148739760Y-91235665D01*
X148710190Y-91384325D01*
X148739760Y-91532985D01*
X148823970Y-91659015D01*
X148933880Y-91732455D01*
X148933880Y-92028365D01*
X148498290Y-92463955D01*
X147796520Y-92463955D01*
X147757640Y-92370085D01*
X147968790Y-92158935D01*
X147968800Y-92158935D01*
X148042420Y-92048745D01*
X148068280Y-91918765D01*
X148068280Y-91918755D01*
X148068280Y-91732455D01*
X148178190Y-91659015D01*
X148262400Y-91532985D01*
X148291970Y-91384325D01*
X148262400Y-91235665D01*
X148178190Y-91109635D01*
X148052170Y-91025435D01*
X147903510Y-90995855D01*
X147754850Y-91025435D01*
X147628820Y-91109635D01*
X147598710Y-91154705D01*
X147497110Y-91154705D01*
X147466990Y-91109635D01*
X147340970Y-91025435D01*
X147192310Y-90995855D01*
X147043650Y-91025435D01*
X146917620Y-91109635D01*
X146833410Y-91235665D01*
X146803840Y-91384325D01*
X146709710Y-91431885D01*
X145981010Y-90703185D01*
X151392120Y-90703185D01*
X151411830Y-90802295D01*
X151423050Y-90829375D01*
X151423050Y-90877915D01*
X151411830Y-90905005D01*
X151392120Y-91004105D01*
X151392120Y-91703605D01*
X151411830Y-91802705D01*
X151467970Y-91886725D01*
X151567970Y-91986725D01*
X151651990Y-92042865D01*
X151751090Y-92062575D01*
X160201090Y-92062575D01*
X160300200Y-92042865D01*
X160384210Y-91986725D01*
X166108360Y-86262575D01*
X170093820Y-86262575D01*
X170142120Y-86310875D01*
X170142120Y-94403605D01*
X170161830Y-94502705D01*
X170217970Y-94586725D01*
X170317970Y-94686725D01*
X170401990Y-94742865D01*
X170501090Y-94762575D01*
X171801090Y-94762575D01*
X171900200Y-94742865D01*
X171984220Y-94686725D01*
X172084220Y-94586725D01*
X172140360Y-94502705D01*
X172160070Y-94403605D01*
X172160070Y-84623595D01*
X172160070Y-84053605D01*
X172142269Y-83964095D01*
X173688080Y-83964095D01*
X173688080Y-84623595D01*
X173724300Y-84898735D01*
X173830500Y-85155145D01*
X173999450Y-85375315D01*
X174219620Y-85544255D01*
X174476020Y-85650465D01*
X174560660Y-85661605D01*
X174941660Y-85661605D01*
X175026320Y-85650465D01*
X175282720Y-85544255D01*
X175502890Y-85375315D01*
X175671840Y-85155145D01*
X175778040Y-84898735D01*
X175814260Y-84623595D01*
X175814260Y-83964095D01*
X174941660Y-83964095D01*
X174941660Y-85661605D01*
X174560660Y-85661605D01*
X174560660Y-83964095D01*
X173688080Y-83964095D01*
X172142269Y-83964095D01*
X172140360Y-83954495D01*
X172084220Y-83870475D01*
X171796840Y-83583095D01*
X173688080Y-83583095D01*
X174560660Y-83583095D01*
X174941660Y-83583095D01*
X175814260Y-83583095D01*
X175814260Y-82923595D01*
X175778040Y-82648445D01*
X175671840Y-82392045D01*
X175502890Y-82171875D01*
X175282720Y-82002925D01*
X175026320Y-81896725D01*
X174941660Y-81885575D01*
X174941660Y-83583095D01*
X174560660Y-83583095D01*
X174560660Y-81885585D01*
X174476020Y-81896725D01*
X174219620Y-82002925D01*
X173999450Y-82171875D01*
X173830500Y-82392045D01*
X173724300Y-82648445D01*
X173688080Y-82923595D01*
X173688080Y-83583095D01*
X171796840Y-83583095D01*
X171684220Y-83470475D01*
X171600200Y-83414335D01*
X171501090Y-83394625D01*
X164451090Y-83394625D01*
X164351990Y-83414335D01*
X164267970Y-83470475D01*
X159293820Y-88444625D01*
X153833950Y-88444625D01*
X153734850Y-88464335D01*
X153650830Y-88520465D01*
X153622700Y-88562575D01*
X153570200Y-88615075D01*
X153525350Y-88633655D01*
X153476800Y-88633655D01*
X153431960Y-88615075D01*
X153379450Y-88562575D01*
X153351330Y-88520475D01*
X153351320Y-88520475D01*
X153267310Y-88464335D01*
X153168200Y-88444625D01*
X151751090Y-88444625D01*
X151651990Y-88464335D01*
X151567970Y-88520475D01*
X151467970Y-88620475D01*
X151411830Y-88704495D01*
X151392120Y-88803605D01*
X151392120Y-90703185D01*
X145981010Y-90703185D01*
X144081430Y-88803605D01*
X143741260Y-88463435D01*
X143631070Y-88389805D01*
X143501100Y-88363955D01*
X143501080Y-88363955D01*
X139041780Y-88363955D01*
X137679810Y-87001985D01*
X137569620Y-86928365D01*
X137439650Y-86902505D01*
X137439630Y-86902515D01*
X134251400Y-86902515D01*
X134251390Y-86902505D01*
X134121410Y-86928365D01*
X134011220Y-87001985D01*
X132649250Y-88363955D01*
X127189950Y-88363955D01*
X127189940Y-88363955D01*
X127059960Y-88389805D01*
X126949770Y-88463435D01*
X126949770Y-88463445D01*
X125760930Y-89652285D01*
X125687300Y-89762475D01*
X125661440Y-89892445D01*
X125661450Y-89892465D01*
X125661450Y-94775915D01*
X124691130Y-95746235D01*
X124005140Y-95746235D01*
X124005140Y-95612665D01*
X122860070Y-95612665D01*
X122860070Y-95420665D01*
X124005150Y-95420665D01*
X124005150Y-95286965D01*
X124481520Y-95286965D01*
X124481530Y-95286975D01*
X124611510Y-95261115D01*
X124721700Y-95187485D01*
X125402690Y-94506495D01*
X125402700Y-94506485D01*
X125476330Y-94396295D01*
X125502180Y-94266315D01*
X125502180Y-94266305D01*
X125502180Y-88382845D01*
X126030340Y-87854695D01*
X132700790Y-87854695D01*
X132700810Y-87854695D01*
X132830780Y-87828835D01*
X132940970Y-87755215D01*
X133942571Y-86753605D01*
X134041490Y-86654685D01*
X138039640Y-86654685D01*
X138039650Y-86654695D01*
X138169630Y-86628835D01*
X138279820Y-86555215D01*
X138740918Y-86094115D01*
X141189260Y-86094115D01*
X141189260Y-86753605D01*
X141220330Y-86989595D01*
X141311420Y-87209505D01*
X141456320Y-87398345D01*
X141645160Y-87543245D01*
X141865060Y-87634335D01*
X141910550Y-87640325D01*
X142291550Y-87640325D01*
X142337050Y-87634335D01*
X142556960Y-87543245D01*
X142745790Y-87398345D01*
X142890700Y-87209505D01*
X142981790Y-86989595D01*
X143012847Y-86753625D01*
X143012850Y-86753605D01*
X143012850Y-86094115D01*
X142291550Y-86094115D01*
X142291550Y-87640325D01*
X141910550Y-87640325D01*
X141910550Y-86094115D01*
X141189260Y-86094115D01*
X138740918Y-86094115D01*
X140541780Y-84293245D01*
X141448960Y-84293245D01*
X141481620Y-84389455D01*
X141456320Y-84408875D01*
X141311420Y-84597705D01*
X141220330Y-84817615D01*
X141189260Y-85053605D01*
X141189260Y-85713115D01*
X142101050Y-85713115D01*
X143012850Y-85713115D01*
X143012850Y-85053605D01*
X142981790Y-84817615D01*
X142890700Y-84597705D01*
X142745790Y-84408875D01*
X142720490Y-84389455D01*
X142753150Y-84293245D01*
X147960410Y-84293245D01*
X147986780Y-84319615D01*
X147986780Y-84487585D01*
X147960410Y-84513955D01*
X147701100Y-84513955D01*
X147701090Y-84513955D01*
X147571110Y-84539805D01*
X147460920Y-84613435D01*
X147310930Y-84763435D01*
X147237300Y-84873625D01*
X147232130Y-84899595D01*
X147022090Y-84899595D01*
X147022090Y-86257595D01*
X148080090Y-86257595D01*
X148080090Y-85906395D01*
X148150470Y-85892395D01*
X148259830Y-85819325D01*
X148294150Y-85812495D01*
X148420180Y-85728285D01*
X148450290Y-85683215D01*
X148551890Y-85683215D01*
X148582010Y-85728285D01*
X148708030Y-85812495D01*
X148742350Y-85819325D01*
X148851710Y-85892395D01*
X148922090Y-85906395D01*
X148922090Y-86257595D01*
X149980090Y-86257595D01*
X149980090Y-86094125D01*
X153989300Y-86094125D01*
X153989300Y-86753625D01*
X154020370Y-86989615D01*
X154111460Y-87209525D01*
X154256370Y-87398365D01*
X154445200Y-87543265D01*
X154665110Y-87634355D01*
X154710610Y-87640345D01*
X155091610Y-87640345D01*
X155137100Y-87634355D01*
X155357000Y-87543265D01*
X155545840Y-87398365D01*
X155690740Y-87209525D01*
X155781830Y-86989615D01*
X155812900Y-86753625D01*
X155812900Y-86094125D01*
X155091610Y-86094125D01*
X155091610Y-87640345D01*
X154710610Y-87640345D01*
X154710610Y-86094125D01*
X153989300Y-86094125D01*
X149980090Y-86094125D01*
X149980090Y-85713125D01*
X153989300Y-85713125D01*
X154710610Y-85713125D01*
X154710610Y-84166905D01*
X155091610Y-84166905D01*
X155091610Y-85713125D01*
X155812900Y-85713125D01*
X155812900Y-85053625D01*
X155781830Y-84817635D01*
X155701460Y-84623605D01*
X155690740Y-84597725D01*
X155545840Y-84408885D01*
X155357000Y-84263985D01*
X155137100Y-84172895D01*
X155091610Y-84166905D01*
X154710610Y-84166905D01*
X154665110Y-84172895D01*
X154445200Y-84263985D01*
X154256370Y-84408885D01*
X154111460Y-84597725D01*
X154020370Y-84817635D01*
X153989300Y-85053625D01*
X153989300Y-85713125D01*
X149980090Y-85713125D01*
X149980090Y-85053625D01*
X149980090Y-84899595D01*
X149770050Y-84899595D01*
X149764880Y-84873625D01*
X149691260Y-84763435D01*
X149541260Y-84613435D01*
X149431070Y-84539805D01*
X149301090Y-84513955D01*
X149301080Y-84513955D01*
X149041780Y-84513955D01*
X149027520Y-84499695D01*
X149027520Y-84029215D01*
X149014566Y-83964105D01*
X159188080Y-83964105D01*
X159188080Y-84623605D01*
X159224300Y-84898755D01*
X159330500Y-85155155D01*
X159499450Y-85375325D01*
X159719620Y-85544275D01*
X159976020Y-85650475D01*
X160060680Y-85661625D01*
X160060680Y-85661615D01*
X160060680Y-83964105D01*
X160441680Y-83964105D01*
X160441680Y-85661615D01*
X160526320Y-85650475D01*
X160782720Y-85544275D01*
X161002890Y-85375325D01*
X161171840Y-85155155D01*
X161278040Y-84898755D01*
X161314260Y-84623605D01*
X161314260Y-83964105D01*
X160441680Y-83964105D01*
X160060680Y-83964105D01*
X159188080Y-83964105D01*
X149014566Y-83964105D01*
X149001660Y-83899235D01*
X148928040Y-83789045D01*
X148722100Y-83583105D01*
X159188080Y-83583105D01*
X160060680Y-83583105D01*
X160060680Y-81885595D01*
X160441680Y-81885595D01*
X160441680Y-83583105D01*
X161314260Y-83583105D01*
X161314260Y-82965605D01*
X171612690Y-82965605D01*
X171642260Y-83114265D01*
X171726470Y-83240295D01*
X171852500Y-83324505D01*
X172001160Y-83354075D01*
X172149820Y-83324505D01*
X172275840Y-83240295D01*
X172360050Y-83114265D01*
X172389620Y-82965605D01*
X172381263Y-82923595D01*
X172360050Y-82816955D01*
X172275840Y-82690925D01*
X172149820Y-82606715D01*
X172001160Y-82577145D01*
X171852500Y-82606715D01*
X171726470Y-82690925D01*
X171642260Y-82816955D01*
X171612690Y-82965605D01*
X161314260Y-82965605D01*
X161314260Y-82923605D01*
X161278040Y-82648455D01*
X161171840Y-82392065D01*
X161002890Y-82171885D01*
X160782720Y-82002945D01*
X160526320Y-81896735D01*
X160441680Y-81885595D01*
X160060680Y-81885595D01*
X159976020Y-81896735D01*
X159719620Y-82002945D01*
X159499450Y-82171885D01*
X159330500Y-82392065D01*
X159224300Y-82648455D01*
X159188080Y-82923605D01*
X159188080Y-83583105D01*
X148722100Y-83583105D01*
X148490980Y-83351985D01*
X148380790Y-83278365D01*
X148250810Y-83252505D01*
X148250800Y-83252505D01*
X140251400Y-83252505D01*
X140251380Y-83252505D01*
X140121410Y-83278365D01*
X140011220Y-83351985D01*
X140011210Y-83351995D01*
X137749250Y-85613955D01*
X137357960Y-85613955D01*
X137323470Y-85512355D01*
X137502720Y-85374815D01*
X137671670Y-85154645D01*
X137777870Y-84898245D01*
X137814090Y-84623095D01*
X137814090Y-83963595D01*
X136750990Y-83963595D01*
X135687910Y-83963595D01*
X135687910Y-84623095D01*
X135724130Y-84898245D01*
X135830330Y-85154645D01*
X135999280Y-85374815D01*
X136178530Y-85512355D01*
X136144040Y-85613955D01*
X133751090Y-85613955D01*
X133621120Y-85639815D01*
X133510930Y-85713435D01*
X133510920Y-85713445D01*
X132410400Y-86813955D01*
X125739940Y-86813955D01*
X125609960Y-86839815D01*
X125499770Y-86913435D01*
X125499770Y-86913445D01*
X124560930Y-87852275D01*
X124487300Y-87962465D01*
X124461440Y-88092445D01*
X124461450Y-88092455D01*
X124461450Y-93975915D01*
X124191130Y-94246235D01*
X124005150Y-94246235D01*
X124005150Y-94112535D01*
X122888460Y-94112535D01*
X122858260Y-94011685D01*
X122888160Y-93952385D01*
X122912730Y-93928275D01*
X122926350Y-93920535D01*
X124005150Y-93920535D01*
X124005150Y-92920545D01*
X124005150Y-92112545D01*
X124005140Y-92112545D01*
X124005140Y-91612665D01*
X123403250Y-91612665D01*
X123351150Y-91602305D01*
X122716040Y-91602305D01*
X122684220Y-91570475D01*
X122600200Y-91514335D01*
X122501090Y-91494625D01*
X121596710Y-91494625D01*
X121505030Y-91470675D01*
X121505030Y-91393025D01*
X121505030Y-90562675D01*
X120197030Y-90562675D01*
X120197030Y-91470675D01*
X120334460Y-91470675D01*
X120365980Y-91564555D01*
X120366170Y-91572275D01*
X120267970Y-91670475D01*
X120211830Y-91754495D01*
X120192120Y-91853605D01*
X120192120Y-96196325D01*
X116567970Y-99820475D01*
X116511830Y-99904495D01*
X116492120Y-100003605D01*
X116492120Y-105753605D01*
X115806960Y-105753605D01*
X115806960Y-100003605D01*
X115806960Y-85661125D01*
X115806960Y-84880295D01*
X116064150Y-84623105D01*
X116723650Y-83963605D01*
X121187900Y-83963605D01*
X121187900Y-84623105D01*
X121224130Y-84898255D01*
X121330330Y-85154655D01*
X121499280Y-85374825D01*
X121719450Y-85543775D01*
X121975850Y-85649975D01*
X122060480Y-85661115D01*
X122060480Y-83963605D01*
X122441480Y-83963605D01*
X122441480Y-85661125D01*
X122526150Y-85649975D01*
X122782540Y-85543775D01*
X123002720Y-85374825D01*
X123171670Y-85154655D01*
X123277870Y-84898255D01*
X123314090Y-84623105D01*
X123314090Y-83963605D01*
X122441480Y-83963605D01*
X122060480Y-83963605D01*
X121187900Y-83963605D01*
X116723650Y-83963605D01*
X117104650Y-83582605D01*
X121187900Y-83582605D01*
X122060480Y-83582605D01*
X122060480Y-81885095D01*
X122441480Y-81885095D01*
X122441480Y-83582605D01*
X123314090Y-83582605D01*
X123314090Y-83582595D01*
X135687910Y-83582595D01*
X136560490Y-83582595D01*
X136941490Y-83582595D01*
X137814090Y-83582595D01*
X137814090Y-82923605D01*
X137814090Y-82923095D01*
X137777870Y-82647945D01*
X137671670Y-82391545D01*
X137502720Y-82171375D01*
X137282550Y-82002435D01*
X137026150Y-81896225D01*
X136941490Y-81885085D01*
X136941490Y-83582595D01*
X136560490Y-83582595D01*
X136560490Y-81885085D01*
X136475850Y-81896225D01*
X136219450Y-82002435D01*
X135999280Y-82171375D01*
X135830330Y-82391545D01*
X135724130Y-82647945D01*
X135687910Y-82923095D01*
X135687910Y-83582595D01*
X123314090Y-83582595D01*
X123314090Y-82965115D01*
X133612520Y-82965115D01*
X133642090Y-83113765D01*
X133726300Y-83239795D01*
X133852330Y-83324005D01*
X134000990Y-83353575D01*
X134149650Y-83324005D01*
X134275670Y-83239795D01*
X134359880Y-83113765D01*
X134389450Y-82965115D01*
X134381092Y-82923095D01*
X134359880Y-82816455D01*
X134275670Y-82690425D01*
X134149650Y-82606215D01*
X134000990Y-82576645D01*
X133852330Y-82606215D01*
X133726300Y-82690425D01*
X133642090Y-82816455D01*
X133612520Y-82965115D01*
X123314090Y-82965115D01*
X123314090Y-82923105D01*
X123277870Y-82647965D01*
X123171670Y-82391565D01*
X123002720Y-82171385D01*
X122782540Y-82002445D01*
X122526150Y-81896235D01*
X122441480Y-81885095D01*
X122060480Y-81885095D01*
X121975850Y-81896235D01*
X121719450Y-82002445D01*
X121499280Y-82171385D01*
X121330330Y-82391565D01*
X121224130Y-82647965D01*
X121187900Y-82923105D01*
X121187900Y-83582605D01*
X117104650Y-83582605D01*
X117764150Y-82923105D01*
X121563310Y-79123945D01*
X121719450Y-79243755D01*
X121975850Y-79349965D01*
X122060520Y-79361115D01*
X122060520Y-79361105D01*
X122060520Y-77963585D01*
X122441520Y-77963585D01*
X122441520Y-79361105D01*
X122526150Y-79349965D01*
X122782550Y-79243755D01*
X123002720Y-79074815D01*
X123171670Y-78854635D01*
X123277870Y-78598245D01*
X123314100Y-78323095D01*
X123314100Y-77963585D01*
X135687900Y-77963585D01*
X135687900Y-78323095D01*
X135724130Y-78598245D01*
X135830330Y-78854635D01*
X135999280Y-79074815D01*
X136219450Y-79243755D01*
X136475850Y-79349965D01*
X136560490Y-79361105D01*
X136941490Y-79361105D01*
X137026150Y-79349965D01*
X137282550Y-79243755D01*
X137502720Y-79074815D01*
X137671660Y-78854635D01*
X137777870Y-78598245D01*
X137814090Y-78323095D01*
X137814090Y-77963585D01*
X136941490Y-77963585D01*
X136941490Y-79361105D01*
X136560490Y-79361105D01*
X136560490Y-77963585D01*
X135687900Y-77963585D01*
X123314100Y-77963585D01*
X122441520Y-77963585D01*
X122060520Y-77963585D01*
X122060520Y-77773085D01*
X122251020Y-77773085D01*
X122251020Y-77582585D01*
X123314100Y-77582585D01*
X123314100Y-77373155D01*
X123627790Y-77059465D01*
X135632400Y-77059465D01*
X135699390Y-77135845D01*
G37*
%TD.AperFunction*%
%TD*%
%TA.AperFunction,Conductor*%
%TO.N,VUSB_DS3*%
G36*
X128101090Y-102853595D02*
G01*
X128101090Y-105653595D01*
X127901090Y-105853595D01*
X122001090Y-105853595D01*
X121801090Y-105653605D01*
X121801090Y-103353595D01*
X122001090Y-103153595D01*
X125601090Y-103153595D01*
X126101090Y-102653595D01*
X127901090Y-102653595D01*
X128101090Y-102853595D01*
G37*
%TD.AperFunction*%
%TD*%
%TA.AperFunction,Conductor*%
%TO.N,VDD_EXT_5V*%
G36*
X122601090Y-91853605D02*
G01*
X122601090Y-93201345D01*
X122520070Y-93217455D01*
X122418180Y-93285535D01*
X122418170Y-93285535D01*
X122278130Y-93343545D01*
X122170960Y-93450715D01*
X122112950Y-93590755D01*
X122112950Y-93742325D01*
X122170960Y-93882355D01*
X122278130Y-93989535D01*
X122418170Y-94047535D01*
X122569740Y-94047535D01*
X122601090Y-94068495D01*
X122601090Y-99203605D01*
X122701090Y-99303605D01*
X124501090Y-99303605D01*
X124901090Y-98903605D01*
X126001100Y-98903605D01*
X128301090Y-96603605D01*
X128301090Y-92003605D01*
X128401090Y-91903605D01*
X129701090Y-91903605D01*
X129801090Y-92003605D01*
X129801090Y-93353855D01*
X129644720Y-93510225D01*
X129566130Y-93627855D01*
X129538520Y-93766605D01*
X129538530Y-93766615D01*
X129538530Y-97466165D01*
X127942170Y-99062525D01*
X127597030Y-99062525D01*
X127597030Y-99407665D01*
X126001090Y-101003605D01*
X120601090Y-101003605D01*
X119501090Y-102103605D01*
X119501090Y-105753605D01*
X119401090Y-105853605D01*
X116851090Y-105853605D01*
X116751090Y-105753605D01*
X116751090Y-102529385D01*
X117572100Y-102529385D01*
X117630100Y-102669415D01*
X117737280Y-102776595D01*
X117877310Y-102834595D01*
X118028880Y-102834595D01*
X118168920Y-102776595D01*
X118276090Y-102669415D01*
X118334100Y-102529385D01*
X118334100Y-102377815D01*
X118276090Y-102237775D01*
X118168920Y-102130605D01*
X118028880Y-102072595D01*
X117877310Y-102072595D01*
X117737280Y-102130605D01*
X117630100Y-102237775D01*
X117572100Y-102377815D01*
X117572100Y-102529385D01*
X116751090Y-102529385D01*
X116751090Y-102377815D01*
X116751090Y-100929385D01*
X117572100Y-100929385D01*
X117630100Y-101069415D01*
X117737280Y-101176595D01*
X117877310Y-101234595D01*
X118028880Y-101234595D01*
X118168920Y-101176595D01*
X118276090Y-101069415D01*
X118334100Y-100929385D01*
X118334100Y-100854375D01*
X119345100Y-100854375D01*
X119403100Y-100994415D01*
X119510280Y-101101595D01*
X119650310Y-101159595D01*
X119801880Y-101159595D01*
X119941920Y-101101595D01*
X120049090Y-100994415D01*
X120107100Y-100854375D01*
X120107100Y-100702805D01*
X120049090Y-100562775D01*
X119941920Y-100455595D01*
X119801880Y-100397595D01*
X119650310Y-100397595D01*
X119510280Y-100455595D01*
X119403100Y-100562775D01*
X119345100Y-100702805D01*
X119345100Y-100854375D01*
X118334100Y-100854375D01*
X118334100Y-100777815D01*
X118303026Y-100702805D01*
X118276090Y-100637785D01*
X118168920Y-100530605D01*
X118028880Y-100472595D01*
X117877310Y-100472595D01*
X117737280Y-100530605D01*
X117630100Y-100637785D01*
X117572100Y-100777815D01*
X117572100Y-100929385D01*
X116751090Y-100929385D01*
X116751090Y-100777815D01*
X116751090Y-100003605D01*
X116784170Y-99970525D01*
X117692170Y-99062525D01*
X120197030Y-99062525D01*
X120197030Y-99970525D01*
X121505030Y-99970525D01*
X121505030Y-99062525D01*
X120197030Y-99062525D01*
X117692170Y-99062525D01*
X120451090Y-96303605D01*
X120451090Y-91853605D01*
X120551090Y-91753605D01*
X122501090Y-91753605D01*
X122601090Y-91853605D01*
G37*
%TD.AperFunction*%
%TD*%
%TA.AperFunction,Conductor*%
%TO.N,VDD_5V*%
G36*
X171901090Y-84053605D02*
G01*
X171901090Y-94403605D01*
X171801090Y-94503605D01*
X170501090Y-94503605D01*
X170401090Y-94403605D01*
X170401090Y-86203605D01*
X170201090Y-86003605D01*
X166001090Y-86003605D01*
X160201090Y-91803605D01*
X151751090Y-91803605D01*
X151651090Y-91703605D01*
X151651090Y-91004105D01*
X151682020Y-90929435D01*
X152520020Y-90929435D01*
X152578020Y-91069465D01*
X152685200Y-91176645D01*
X152825240Y-91234645D01*
X152976810Y-91234645D01*
X153116840Y-91176645D01*
X153224020Y-91069465D01*
X153282020Y-90929435D01*
X154120020Y-90929435D01*
X154178020Y-91069465D01*
X154285200Y-91176645D01*
X154425230Y-91234645D01*
X154576800Y-91234645D01*
X154716840Y-91176645D01*
X154824010Y-91069465D01*
X154882020Y-90929435D01*
X155720020Y-90929435D01*
X155778020Y-91069465D01*
X155885200Y-91176645D01*
X156025230Y-91234645D01*
X156176800Y-91234645D01*
X156316830Y-91176645D01*
X156424010Y-91069465D01*
X156482020Y-90929435D01*
X158920010Y-90929435D01*
X158978010Y-91069465D01*
X159085190Y-91176645D01*
X159225220Y-91234645D01*
X159376790Y-91234645D01*
X159516830Y-91176645D01*
X159624010Y-91069465D01*
X159682010Y-90929435D01*
X159682010Y-90777855D01*
X159624010Y-90637825D01*
X159516830Y-90530645D01*
X159376790Y-90472645D01*
X159225220Y-90472645D01*
X159085190Y-90530645D01*
X158978010Y-90637825D01*
X158920010Y-90777855D01*
X158920010Y-90929435D01*
X156482020Y-90929435D01*
X156482020Y-90777855D01*
X156424010Y-90637825D01*
X156316830Y-90530645D01*
X156176800Y-90472645D01*
X156025230Y-90472645D01*
X155885200Y-90530645D01*
X155778020Y-90637825D01*
X155720020Y-90777855D01*
X155720020Y-90929435D01*
X154882020Y-90929435D01*
X154882020Y-90777855D01*
X154824010Y-90637825D01*
X154716840Y-90530645D01*
X154576800Y-90472645D01*
X154425230Y-90472645D01*
X154285200Y-90530645D01*
X154178020Y-90637825D01*
X154120020Y-90777855D01*
X154120020Y-90929435D01*
X153282020Y-90929435D01*
X153282020Y-90777855D01*
X153224020Y-90637825D01*
X153116840Y-90530645D01*
X152976810Y-90472645D01*
X152825240Y-90472645D01*
X152685200Y-90530645D01*
X152578020Y-90637825D01*
X152520020Y-90777855D01*
X152520020Y-90929435D01*
X151682020Y-90929435D01*
X151682020Y-90777855D01*
X151651090Y-90703185D01*
X151651090Y-89329435D01*
X152520020Y-89329435D01*
X152578020Y-89469465D01*
X152685200Y-89576645D01*
X152825240Y-89634645D01*
X152976810Y-89634645D01*
X153116840Y-89576645D01*
X153224020Y-89469465D01*
X153282020Y-89329435D01*
X154120020Y-89329435D01*
X154178020Y-89469465D01*
X154285200Y-89576645D01*
X154425230Y-89634645D01*
X154576800Y-89634645D01*
X154716840Y-89576645D01*
X154824010Y-89469465D01*
X154882020Y-89329435D01*
X155720020Y-89329435D01*
X155778020Y-89469465D01*
X155885200Y-89576645D01*
X156025230Y-89634645D01*
X156176800Y-89634645D01*
X156316830Y-89576645D01*
X156424010Y-89469465D01*
X156482020Y-89329435D01*
X157320010Y-89329435D01*
X157378020Y-89469465D01*
X157485190Y-89576645D01*
X157625230Y-89634645D01*
X157776800Y-89634645D01*
X157916830Y-89576645D01*
X158024010Y-89469465D01*
X158082010Y-89329435D01*
X160520010Y-89329435D01*
X160578010Y-89469465D01*
X160685190Y-89576645D01*
X160825220Y-89634645D01*
X160976790Y-89634645D01*
X161116820Y-89576645D01*
X161224000Y-89469465D01*
X161282010Y-89329435D01*
X161282010Y-89177865D01*
X161224000Y-89037825D01*
X161116820Y-88930655D01*
X160976790Y-88872645D01*
X160825220Y-88872645D01*
X160685190Y-88930655D01*
X160578010Y-89037825D01*
X160520010Y-89177865D01*
X160520010Y-89329435D01*
X158082010Y-89329435D01*
X158082010Y-89177865D01*
X158024010Y-89037825D01*
X157916830Y-88930655D01*
X157776800Y-88872645D01*
X157625230Y-88872645D01*
X157485190Y-88930655D01*
X157378020Y-89037825D01*
X157320010Y-89177865D01*
X157320010Y-89329435D01*
X156482020Y-89329435D01*
X156482020Y-89177865D01*
X156424010Y-89037825D01*
X156316830Y-88930655D01*
X156176800Y-88872645D01*
X156025230Y-88872645D01*
X155885200Y-88930655D01*
X155778020Y-89037825D01*
X155720020Y-89177865D01*
X155720020Y-89329435D01*
X154882020Y-89329435D01*
X154882020Y-89177865D01*
X154824010Y-89037825D01*
X154716840Y-88930655D01*
X154576800Y-88872645D01*
X154425230Y-88872645D01*
X154285200Y-88930655D01*
X154178020Y-89037825D01*
X154120020Y-89177865D01*
X154120020Y-89329435D01*
X153282020Y-89329435D01*
X153282020Y-89177865D01*
X153224020Y-89037825D01*
X153116840Y-88930655D01*
X152976810Y-88872645D01*
X152825240Y-88872645D01*
X152685200Y-88930655D01*
X152578020Y-89037825D01*
X152520020Y-89177865D01*
X152520020Y-89329435D01*
X151651090Y-89329435D01*
X151651090Y-89177865D01*
X151651090Y-88803605D01*
X151751090Y-88703605D01*
X153168200Y-88703605D01*
X153178080Y-88727445D01*
X153285260Y-88834625D01*
X153425290Y-88892625D01*
X153576860Y-88892625D01*
X153716890Y-88834625D01*
X153824070Y-88727445D01*
X153833950Y-88703605D01*
X159401090Y-88703605D01*
X160375260Y-87729435D01*
X162120000Y-87729435D01*
X162178010Y-87869475D01*
X162285180Y-87976645D01*
X162425220Y-88034655D01*
X162576790Y-88034655D01*
X162716820Y-87976645D01*
X162824000Y-87869475D01*
X162882000Y-87729435D01*
X162882000Y-87577865D01*
X162824000Y-87437835D01*
X162716820Y-87330655D01*
X162576790Y-87272655D01*
X162425220Y-87272655D01*
X162285180Y-87330655D01*
X162178010Y-87437835D01*
X162120000Y-87577865D01*
X162120000Y-87729435D01*
X160375260Y-87729435D01*
X160526830Y-87577865D01*
X164451090Y-83653605D01*
X171501090Y-83653605D01*
X171901090Y-84053605D01*
G37*
%TD.AperFunction*%
%TD*%
%TA.AperFunction,Conductor*%
%TO.N,VUSB_DS4*%
G36*
X128101090Y-113503605D02*
G01*
X128101090Y-116303605D01*
X127901090Y-116503605D01*
X122001090Y-116503605D01*
X121801090Y-116303605D01*
X121801090Y-114003605D01*
X122001090Y-113803605D01*
X125601090Y-113803605D01*
X126101090Y-113303605D01*
X127901090Y-113303605D01*
X128101090Y-113503605D01*
G37*
%TD.AperFunction*%
%TD*%
%TA.AperFunction,Conductor*%
%TO.N,VDD_5V*%
G36*
X137340210Y-92992725D02*
G01*
X137351090Y-93047415D01*
X137351090Y-94283835D01*
X137324870Y-94415685D01*
X137351090Y-94547525D01*
X137351090Y-95783675D01*
X137324860Y-95915555D01*
X137351090Y-96047435D01*
X137351090Y-97283855D01*
X137324870Y-97415685D01*
X137351090Y-97547515D01*
X137351090Y-99783905D01*
X137324850Y-99915805D01*
X137351090Y-100047715D01*
X137351090Y-108303605D01*
X137942400Y-108894905D01*
X137942400Y-109320055D01*
X139250400Y-109320055D01*
X139250400Y-109103925D01*
X139651420Y-109103925D01*
X139751090Y-109203605D01*
X139751090Y-110953605D01*
X139651090Y-111053605D01*
X137551090Y-111053605D01*
X136750250Y-110252755D01*
X136750250Y-109462055D01*
X135959550Y-109462055D01*
X135851090Y-109353605D01*
X135851090Y-108492725D01*
X135874070Y-108469745D01*
X135932080Y-108329715D01*
X135932080Y-108178145D01*
X135874070Y-108038105D01*
X135851090Y-108015125D01*
X135851090Y-106992615D01*
X135874090Y-106969625D01*
X135932090Y-106829585D01*
X135932090Y-106678015D01*
X135874090Y-106537985D01*
X135851090Y-106514995D01*
X135851090Y-105492505D01*
X135874100Y-105469495D01*
X135932110Y-105329465D01*
X135932110Y-105177895D01*
X135874100Y-105037865D01*
X135851090Y-105014855D01*
X135851090Y-96992355D01*
X135874080Y-96969375D01*
X135932080Y-96829345D01*
X135932080Y-96677765D01*
X135874080Y-96537735D01*
X135851090Y-96514755D01*
X135851090Y-96203605D01*
X133851090Y-94203605D01*
X133851090Y-93003605D01*
X133951090Y-92903605D01*
X137251090Y-92903605D01*
X137340210Y-92992725D01*
G37*
%TD.AperFunction*%
%TD*%
M02*
