%TF.GenerationSoftware,KiCad,Pcbnew,9.0.7*%
%TF.CreationDate,2026-03-03T12:01:18+08:00*%
%TF.ProjectId,AI_Pyramid_PCB_HDMI_V0.3_20251031,41495f50-7972-4616-9d69-645f5043425f,rev?*%
%TF.SameCoordinates,Original*%
%TF.FileFunction,Legend,Bot*%
%TF.FilePolarity,Positive*%
%FSLAX46Y46*%
G04 Gerber Fmt 4.6, Leading zero omitted, Abs format (unit mm)*
G04 Created by KiCad (PCBNEW 9.0.7) date 2026-03-03 12:01:18*
%MOMM*%
%LPD*%
G01*
G04 APERTURE LIST*
G04 Aperture macros list*
%AMRoundRect*
0 Rectangle with rounded corners*
0 $1 Rounding radius*
0 $2 $3 $4 $5 $6 $7 $8 $9 X,Y pos of 4 corners*
0 Add a 4 corners polygon primitive as box body*
4,1,4,$2,$3,$4,$5,$6,$7,$8,$9,$2,$3,0*
0 Add four circle primitives for the rounded corners*
1,1,$1+$1,$2,$3*
1,1,$1+$1,$4,$5*
1,1,$1+$1,$6,$7*
1,1,$1+$1,$8,$9*
0 Add four rect primitives between the rounded corners*
20,1,$1+$1,$2,$3,$4,$5,0*
20,1,$1+$1,$4,$5,$6,$7,0*
20,1,$1+$1,$6,$7,$8,$9,0*
20,1,$1+$1,$8,$9,$2,$3,0*%
G04 Aperture macros list end*
%ADD10C,0.127000*%
%ADD11C,0.254000*%
%ADD12C,0.000000*%
%ADD13C,0.152400*%
%ADD14C,0.200000*%
%ADD15C,0.250000*%
%ADD16C,2.000000*%
%ADD17C,2.101600*%
%ADD18O,1.701600X2.801600*%
%ADD19O,1.701600X3.401590*%
%ADD20O,3.101590X1.401600*%
%ADD21O,1.401600X3.101590*%
%ADD22RoundRect,0.050010X0.400000X-0.200000X0.400000X0.200000X-0.400000X0.200000X-0.400000X-0.200000X0*%
%ADD23RoundRect,0.050010X0.400000X-0.150000X0.400000X0.150000X-0.400000X0.150000X-0.400000X-0.150000X0*%
%ADD24RoundRect,0.050800X-0.310000X-0.260000X0.310000X-0.260000X0.310000X0.260000X-0.310000X0.260000X0*%
%ADD25RoundRect,0.050800X0.275000X-0.150000X0.275000X0.150000X-0.275000X0.150000X-0.275000X-0.150000X0*%
%ADD26RoundRect,0.050800X0.275000X-0.200000X0.275000X0.200000X-0.275000X0.200000X-0.275000X-0.200000X0*%
%ADD27RoundRect,0.050800X-0.275000X0.150000X-0.275000X-0.150000X0.275000X-0.150000X0.275000X0.150000X0*%
%ADD28RoundRect,0.050800X0.450000X0.425000X-0.450000X0.425000X-0.450000X-0.425000X0.450000X-0.425000X0*%
%ADD29RoundRect,0.050800X0.375000X-0.400000X0.375000X0.400000X-0.375000X0.400000X-0.375000X-0.400000X0*%
%ADD30RoundRect,0.050800X-0.400000X-0.375000X0.400000X-0.375000X0.400000X0.375000X-0.400000X0.375000X0*%
%ADD31RoundRect,0.050800X0.275000X0.425000X-0.275000X0.425000X-0.275000X-0.425000X0.275000X-0.425000X0*%
%ADD32RoundRect,0.050800X0.425000X-0.275000X0.425000X0.275000X-0.425000X0.275000X-0.425000X-0.275000X0*%
G04 APERTURE END LIST*
D10*
X116501400Y-99586595D02*
X120501430Y-95586555D01*
X134746320Y-111020805D02*
X135746320Y-110020805D01*
X123901400Y-99086595D02*
X127901430Y-95086565D01*
X132746320Y-111020805D02*
X135746320Y-108020805D01*
X120001430Y-100120455D02*
X120501430Y-99620455D01*
X116501400Y-94586625D02*
X120001440Y-91086595D01*
X123901400Y-97086615D02*
X127901430Y-93086575D01*
X131746320Y-95486715D02*
X135746350Y-91486675D01*
X127401430Y-100120455D02*
X127901430Y-99620455D01*
X131746320Y-104986645D02*
X135746350Y-100986605D01*
X131746350Y-92986685D02*
X133746360Y-90986685D01*
X126901430Y-100120455D02*
X127901430Y-99120455D01*
X123901400Y-95086625D02*
X127901430Y-91086595D01*
X131746320Y-96486705D02*
X135746350Y-92486665D01*
X131746320Y-109986605D02*
X135746350Y-105986575D01*
X116501400Y-98586605D02*
X120501430Y-94586565D01*
X123901400Y-98086605D02*
X127901430Y-94086565D01*
X116501440Y-91586595D02*
X117001440Y-91086595D01*
X118501430Y-100120455D02*
X120501430Y-98120455D01*
X131746320Y-97486695D02*
X135746350Y-93486665D01*
X131746320Y-96986705D02*
X135746350Y-92986665D01*
X131746350Y-93486685D02*
X134246350Y-90986685D01*
X123901440Y-92086595D02*
X124901440Y-91086595D01*
X123901440Y-100120455D02*
X123901440Y-91086595D01*
X131746320Y-111020805D02*
X131746320Y-90986685D01*
X131746320Y-99986685D02*
X135746350Y-95986645D01*
X131746320Y-103986655D02*
X135746350Y-99986615D01*
X131746320Y-99486685D02*
X135746350Y-95486645D01*
X131746320Y-100486675D02*
X135746350Y-96486645D01*
X131746320Y-95986705D02*
X135746350Y-91986675D01*
X123901400Y-96086615D02*
X127901430Y-92086585D01*
X131746350Y-90986685D02*
X135746350Y-90986685D01*
X131746320Y-94486715D02*
X135246350Y-90986685D01*
X131746320Y-102486665D02*
X135746350Y-98486625D01*
X116501400Y-97586605D02*
X120501430Y-93586575D01*
X124401440Y-100120465D02*
X127901470Y-96620425D01*
X116501440Y-100120455D02*
X120501430Y-100120455D01*
X131746320Y-107986625D02*
X135746350Y-103986585D01*
X131746320Y-105986635D02*
X135746350Y-101986605D01*
X123901440Y-94086595D02*
X126901440Y-91086595D01*
X131746320Y-101486665D02*
X135746350Y-97486635D01*
X131746320Y-110486605D02*
X135746350Y-106486575D01*
X125901430Y-100120455D02*
X127901430Y-98120455D01*
X123901440Y-91086595D02*
X127901440Y-91086595D01*
X116501440Y-92586595D02*
X118001440Y-91086595D01*
X131746320Y-102986655D02*
X135746350Y-98986625D01*
X116501400Y-95086625D02*
X120501430Y-91086595D01*
X116501440Y-92086595D02*
X117501440Y-91086595D01*
X120501430Y-100120455D02*
X120501430Y-91086595D01*
X123901440Y-91586595D02*
X124401440Y-91086595D01*
X131746320Y-111020805D02*
X135746350Y-107020775D01*
X131746320Y-98486695D02*
X135746350Y-94486655D01*
X116501400Y-97086615D02*
X120501430Y-93086575D01*
X131746320Y-105486645D02*
X135746350Y-101486605D01*
X123901400Y-95586625D02*
X127901430Y-91586585D01*
X134246310Y-111020805D02*
X135746320Y-109520795D01*
X127901430Y-100120455D02*
X127901430Y-91086595D01*
X131746320Y-108986615D02*
X135746350Y-104986585D01*
X123901440Y-93586595D02*
X126401440Y-91086595D01*
X117501440Y-100120455D02*
X120501430Y-97120455D01*
X131746320Y-107486625D02*
X135746350Y-103486595D01*
X116501440Y-94086595D02*
X119501440Y-91086595D01*
X126401430Y-100120455D02*
X127901430Y-98620455D01*
X131746320Y-109486615D02*
X135746350Y-105486575D01*
X123901440Y-100120455D02*
X127901430Y-100120455D01*
X116501440Y-100120465D02*
X120501470Y-96120425D01*
X131746320Y-108486615D02*
X135746350Y-104486585D01*
X133246320Y-111020805D02*
X135746320Y-108520805D01*
X117001440Y-100120465D02*
X120501470Y-96620425D01*
X131746320Y-94986715D02*
X135746350Y-90986685D01*
X116501400Y-95586625D02*
X120501430Y-91586585D01*
X123901400Y-96586615D02*
X127901430Y-92586585D01*
X131746350Y-91486685D02*
X132246360Y-90986685D01*
X131746350Y-93986685D02*
X134746350Y-90986685D01*
X131746350Y-91986685D02*
X132746360Y-90986685D01*
X116501400Y-99086595D02*
X120501430Y-95086565D01*
X123901400Y-98586605D02*
X127901430Y-94586565D01*
X123901400Y-97586605D02*
X127901430Y-93586575D01*
X131746320Y-98986685D02*
X135746350Y-94986655D01*
X125401430Y-100120455D02*
X127901430Y-97620455D01*
X123901400Y-94586625D02*
X127401440Y-91086595D01*
X123901440Y-92586595D02*
X125401440Y-91086595D01*
X131746350Y-92486685D02*
X133246360Y-90986685D01*
X131746320Y-100986675D02*
X135746350Y-96986635D01*
X123901400Y-99586595D02*
X127901430Y-95586555D01*
X124901440Y-100120455D02*
X127901430Y-97120455D01*
X131746320Y-111020805D02*
X135746320Y-111020805D01*
X119001430Y-100120455D02*
X120501430Y-98620455D01*
X116501440Y-91086595D02*
X120501440Y-91086595D01*
X131746320Y-101986665D02*
X135746350Y-97986635D01*
X116501400Y-98086605D02*
X120501430Y-94086565D01*
X135246310Y-111020805D02*
X135746320Y-110520805D01*
X133746320Y-111020805D02*
X135746320Y-109020795D01*
X131746320Y-106486635D02*
X135746350Y-102486595D01*
X135746320Y-111020805D02*
X135746320Y-90986685D01*
X132246320Y-111020805D02*
X135746350Y-107520765D01*
X116501440Y-93586595D02*
X119001440Y-91086595D01*
X131746320Y-97986695D02*
X135746350Y-93986655D01*
X116501440Y-93086595D02*
X118501440Y-91086595D01*
X131746320Y-106986635D02*
X135746350Y-102986595D01*
X131746320Y-104486645D02*
X135746350Y-100486615D01*
X116501400Y-96586615D02*
X120501430Y-92586585D01*
X123901440Y-93086595D02*
X125901440Y-91086595D01*
X116501400Y-96086615D02*
X120501430Y-92086585D01*
X131746320Y-103486655D02*
X135746350Y-99486625D01*
X116501440Y-100120455D02*
X116501440Y-91086595D01*
X118001430Y-100120455D02*
X120501430Y-97620455D01*
X123901440Y-100120465D02*
X127901470Y-96120425D01*
X119501430Y-100120455D02*
X120501430Y-99120455D01*
D11*
%TO.C,J5*%
X135746350Y-109465595D02*
X135746350Y-90840605D01*
X136717420Y-110182805D02*
X138616370Y-110182805D01*
X136717460Y-90148685D02*
X138616390Y-90148685D01*
X138616360Y-109297115D02*
X138616370Y-110182805D01*
X138616390Y-91034535D02*
X138616390Y-90148685D01*
D10*
X137935500Y-91415695D02*
G75*
G02*
X137681500Y-91415695I-127000J0D01*
G01*
X137681500Y-91415695D02*
G75*
G02*
X137935500Y-91415695I127000J0D01*
G01*
X139511340Y-91415695D02*
G75*
G02*
X139257340Y-91415695I-127000J0D01*
G01*
X139257340Y-91415695D02*
G75*
G02*
X139511340Y-91415695I127000J0D01*
G01*
D12*
G36*
X138235390Y-90656685D02*
G01*
X137854390Y-90910685D01*
X137854390Y-90402685D01*
X138235390Y-90656685D01*
G37*
D13*
%TO.C,U7*%
X139672890Y-91490605D02*
X141164140Y-91493155D01*
X139847890Y-94340605D02*
X141172890Y-94340605D01*
D11*
X139628790Y-94515595D02*
G75*
G02*
X139516990Y-94515595I-55900J0D01*
G01*
X139516990Y-94515595D02*
G75*
G02*
X139628790Y-94515595I55900J0D01*
G01*
D13*
%TO.C,U8*%
X139672890Y-99990715D02*
X141164130Y-99993275D01*
X139847890Y-102840715D02*
X141172890Y-102840715D01*
D11*
X139628790Y-103015715D02*
G75*
G02*
X139516990Y-103015715I-55900J0D01*
G01*
X139516990Y-103015715D02*
G75*
G02*
X139628790Y-103015715I55900J0D01*
G01*
%TO.C,J6*%
X127901080Y-99066585D02*
X127901080Y-91441585D01*
X128872170Y-99783525D02*
X130771130Y-99783525D01*
X128872180Y-90749665D02*
X130771110Y-90749665D01*
X130771110Y-91635515D02*
X130771110Y-90749665D01*
X130771120Y-98897835D02*
X130771130Y-99783525D01*
D10*
X130090230Y-98516775D02*
G75*
G02*
X129836230Y-98516775I-127000J0D01*
G01*
X129836230Y-98516775D02*
G75*
G02*
X130090230Y-98516775I127000J0D01*
G01*
X131666070Y-98516775D02*
G75*
G02*
X131412070Y-98516775I-127000J0D01*
G01*
X131412070Y-98516775D02*
G75*
G02*
X131666070Y-98516775I127000J0D01*
G01*
D12*
G36*
X130390130Y-99275785D02*
G01*
X130009120Y-99529785D01*
X130009120Y-99021785D01*
X130390130Y-99275785D01*
G37*
D11*
%TO.C,J1*%
X120501080Y-99066585D02*
X120501080Y-91441585D01*
X121472170Y-99783525D02*
X123371130Y-99783525D01*
X121472180Y-90749665D02*
X123371110Y-90749665D01*
X123371110Y-91635515D02*
X123371110Y-90749665D01*
X123371120Y-98897835D02*
X123371130Y-99783525D01*
D10*
X122690230Y-98516775D02*
G75*
G02*
X122436230Y-98516775I-127000J0D01*
G01*
X122436230Y-98516775D02*
G75*
G02*
X122690230Y-98516775I127000J0D01*
G01*
X124266070Y-98516775D02*
G75*
G02*
X124012070Y-98516775I-127000J0D01*
G01*
X124012070Y-98516775D02*
G75*
G02*
X124266070Y-98516775I127000J0D01*
G01*
D12*
G36*
X122990130Y-99275785D02*
G01*
X122609120Y-99529785D01*
X122609120Y-99021785D01*
X122990130Y-99275785D01*
G37*
D13*
%TO.C,U5*%
X139672880Y-102990675D02*
X141164130Y-102993225D01*
X139847890Y-105840675D02*
X141172890Y-105840675D01*
D11*
X139628790Y-106015675D02*
G75*
G02*
X139516990Y-106015675I-55900J0D01*
G01*
X139516990Y-106015675D02*
G75*
G02*
X139628790Y-106015675I55900J0D01*
G01*
D14*
%TO.C,U3*%
X147001090Y-87703595D02*
X147001090Y-86403595D01*
X147001090Y-87703595D02*
X147826090Y-87703595D01*
X149176090Y-87703595D02*
X150001090Y-87703595D01*
X150001090Y-87703595D02*
X150001090Y-86403595D01*
D15*
X146851090Y-85578595D02*
G75*
G02*
X146601090Y-85578595I-125000J0D01*
G01*
X146601090Y-85578595D02*
G75*
G02*
X146851090Y-85578595I125000J0D01*
G01*
D14*
%TO.C,U9*%
X123251100Y-123753605D02*
X124551100Y-123753605D01*
X123251100Y-124578605D02*
X123251100Y-123753605D01*
X123251100Y-126753605D02*
X123251100Y-125928605D01*
X123251100Y-126753605D02*
X124551100Y-126753605D01*
D15*
X125501100Y-123478605D02*
G75*
G02*
X125251100Y-123478605I-125000J0D01*
G01*
X125251100Y-123478605D02*
G75*
G02*
X125501100Y-123478605I125000J0D01*
G01*
D13*
%TO.C,U6*%
X139672890Y-94490555D02*
X141164130Y-94493105D01*
X139847890Y-97340555D02*
X141172890Y-97340555D01*
D11*
X139628790Y-97515555D02*
G75*
G02*
X139516990Y-97515555I-55900J0D01*
G01*
X139516990Y-97515555D02*
G75*
G02*
X139628790Y-97515555I55900J0D01*
G01*
%TD*%
%LPC*%
D16*
X119501090Y-108753605D02*
G75*
G02*
X117501090Y-108753605I-1000000J0D01*
G01*
X117501090Y-108753605D02*
G75*
G02*
X119501090Y-108753605I1000000J0D01*
G01*
X179501090Y-95253605D02*
G75*
G02*
X177501090Y-95253605I-1000000J0D01*
G01*
X177501090Y-95253605D02*
G75*
G02*
X179501090Y-95253605I1000000J0D01*
G01*
D17*
%TO.C,*%
X178501090Y-95253605D03*
%TD*%
%TO.C,*%
X118501090Y-108753605D03*
%TD*%
D18*
%TO.C,J4*%
X122251000Y-77773095D03*
D19*
X122251000Y-83773105D03*
D18*
X136751000Y-77773095D03*
D19*
X136751000Y-83773095D03*
%TD*%
D20*
%TO.C,J7*%
X125051070Y-118853545D03*
X125051060Y-131653595D03*
%TD*%
D18*
%TO.C,J3*%
X160251170Y-77773595D03*
D19*
X160251170Y-83773605D03*
D18*
X174751170Y-77773595D03*
D19*
X174751170Y-83773595D03*
%TD*%
D21*
%TO.C,J2*%
X142101060Y-85903605D03*
X154901100Y-85903625D03*
%TD*%
D22*
%TO.C,J5*%
X136096310Y-90415695D03*
X136096250Y-109916055D03*
D23*
X138596420Y-91415685D03*
X138596430Y-91915565D03*
X138596430Y-92415695D03*
X138596430Y-92915555D03*
X138596430Y-93415685D03*
X138596430Y-93915555D03*
X138596430Y-94415685D03*
X138596420Y-94915565D03*
X138596410Y-95415685D03*
X138596420Y-95915555D03*
X138596420Y-96415675D03*
X138596430Y-96915555D03*
X138596430Y-97415685D03*
X138596430Y-97915805D03*
X138596430Y-98415675D03*
X138596420Y-98915805D03*
X138596430Y-99415675D03*
X138596420Y-99915805D03*
X138596430Y-100415685D03*
X138596420Y-100915815D03*
X138596420Y-101415675D03*
X138596430Y-101915815D03*
X138596430Y-102415675D03*
X138596430Y-102915805D03*
X138596420Y-103415685D03*
X138596410Y-103915805D03*
X138596420Y-104415675D03*
X138596420Y-104915795D03*
X138596430Y-105415675D03*
X138596430Y-105915805D03*
X138596420Y-106415925D03*
X138596430Y-106915795D03*
X138596410Y-107415925D03*
X138596430Y-107915795D03*
X138596410Y-108415925D03*
X138596400Y-108916065D03*
%TD*%
D24*
%TO.C,C2*%
X122301090Y-103408605D03*
X122301090Y-102498595D03*
%TD*%
D25*
%TO.C,U7*%
X140001090Y-93915605D03*
X140001090Y-93415605D03*
D26*
X140001090Y-92915605D03*
D27*
X140001090Y-92415605D03*
X140001090Y-91915605D03*
X140797890Y-91915605D03*
X140797890Y-92415605D03*
D26*
X140797890Y-92915605D03*
D25*
X140797890Y-93415605D03*
X140797890Y-93915605D03*
%TD*%
D28*
%TO.C,C11*%
X123901090Y-112978605D03*
X123901090Y-114228605D03*
%TD*%
D29*
%TO.C,R2*%
X151026100Y-99553605D03*
X149776090Y-99553605D03*
%TD*%
D25*
%TO.C,U8*%
X140001090Y-102415725D03*
X140001090Y-101915725D03*
D26*
X140001090Y-101415725D03*
D27*
X140001090Y-100915725D03*
X140001090Y-100415725D03*
X140797890Y-100415725D03*
X140797890Y-100915725D03*
D26*
X140797890Y-101415725D03*
D25*
X140797890Y-101915725D03*
X140797890Y-102415725D03*
%TD*%
D23*
%TO.C,J6*%
X130751150Y-98516785D03*
X130751160Y-98016665D03*
X130751150Y-97516535D03*
X130751150Y-97016655D03*
X130751140Y-96516535D03*
X130751140Y-96016665D03*
X130751150Y-95516545D03*
X130751150Y-95016665D03*
X130751150Y-94516535D03*
X130751160Y-94016665D03*
X130751150Y-93516535D03*
X130751150Y-93016675D03*
X130751150Y-92516545D03*
X130751140Y-92016665D03*
D22*
X128251030Y-99516525D03*
X128251030Y-91016675D03*
%TD*%
D23*
%TO.C,J1*%
X123351150Y-98516785D03*
X123351160Y-98016665D03*
X123351150Y-97516535D03*
X123351150Y-97016655D03*
X123351140Y-96516535D03*
X123351140Y-96016665D03*
X123351150Y-95516545D03*
X123351150Y-95016665D03*
X123351150Y-94516535D03*
X123351160Y-94016665D03*
X123351150Y-93516535D03*
X123351150Y-93016675D03*
X123351150Y-92516545D03*
X123351140Y-92016665D03*
D22*
X120851030Y-99516525D03*
X120851030Y-91016675D03*
%TD*%
D24*
%TO.C,C9*%
X122301090Y-114058605D03*
X122301090Y-113148595D03*
%TD*%
D25*
%TO.C,U5*%
X140001090Y-105415675D03*
X140001090Y-104915675D03*
D26*
X140001090Y-104415675D03*
D27*
X140001090Y-103915675D03*
X140001090Y-103415675D03*
X140797890Y-103415675D03*
X140797890Y-103915675D03*
D26*
X140797890Y-104415675D03*
D25*
X140797890Y-104915675D03*
X140797890Y-105415675D03*
%TD*%
D30*
%TO.C,R4*%
X147251090Y-100203605D03*
X147251090Y-98953605D03*
%TD*%
D31*
%TO.C,U3*%
X147551090Y-85578595D03*
X149451090Y-85578595D03*
X148501090Y-88128595D03*
%TD*%
D28*
%TO.C,C3*%
X123901090Y-102328595D03*
X123901090Y-103578595D03*
%TD*%
D32*
%TO.C,U9*%
X125376100Y-124303605D03*
X125376100Y-126203605D03*
X122826100Y-125253605D03*
%TD*%
D25*
%TO.C,U6*%
X140001090Y-96915555D03*
X140001090Y-96415555D03*
D26*
X140001090Y-95915555D03*
D27*
X140001090Y-95415555D03*
X140001090Y-94915555D03*
X140797890Y-94915555D03*
X140797890Y-95415555D03*
D26*
X140797890Y-95915555D03*
D25*
X140797890Y-96415555D03*
X140797890Y-96915555D03*
%TD*%
%LPD*%
M02*
