%TF.GenerationSoftware,KiCad,Pcbnew,9.0.7*%
%TF.CreationDate,2026-03-03T11:17:45+08:00*%
%TF.ProjectId,AI_Pyramid_PCB_HDMI_V0.3_20251031,41495f50-7972-4616-9d69-645f5043425f,rev?*%
%TF.SameCoordinates,Original*%
%TF.FileFunction,Legend,Top*%
%TF.FilePolarity,Positive*%
%FSLAX46Y46*%
G04 Gerber Fmt 4.6, Leading zero omitted, Abs format (unit mm)*
G04 Created by KiCad (PCBNEW 9.0.7) date 2026-03-03 11:17:45*
%MOMM*%
%LPD*%
G01*
G04 APERTURE LIST*
%ADD10C,0.127000*%
%ADD11C,0.152400*%
%ADD12C,0.254000*%
%ADD13C,0.250000*%
%ADD14C,0.200000*%
%ADD15C,0.000000*%
%ADD16C,0.100000*%
G04 APERTURE END LIST*
D10*
G36*
X118908898Y-91676295D02*
G01*
X118687136Y-91676295D01*
X118598997Y-91447824D01*
X118195542Y-91447824D01*
X118112205Y-91676295D01*
X117895983Y-91676295D01*
X118050500Y-91278440D01*
X118258200Y-91278440D01*
X118533632Y-91278440D01*
X118394531Y-90900282D01*
X118258200Y-91278440D01*
X118050500Y-91278440D01*
X118289159Y-90663933D01*
X118504704Y-90663933D01*
X118908898Y-91676295D01*
G37*
G36*
X119010638Y-91676295D02*
G01*
X119010638Y-90663933D01*
X119214489Y-90663933D01*
X119214489Y-91676295D01*
X119010638Y-91676295D01*
G37*
G36*
X120444372Y-93602085D02*
G01*
X119739264Y-93602085D01*
X119739264Y-93578450D01*
X119761299Y-93578450D01*
X120422337Y-93578450D01*
X120422337Y-92743350D01*
X119761299Y-92743350D01*
X119761299Y-93578450D01*
X119739264Y-93578450D01*
X119739264Y-92719715D01*
X120444372Y-92719715D01*
X120444372Y-93602085D01*
G37*
G36*
X121502033Y-93602085D02*
G01*
X120796926Y-93602085D01*
X120796926Y-93578450D01*
X120818960Y-93578450D01*
X121479999Y-93578450D01*
X121479999Y-92743350D01*
X120818960Y-92743350D01*
X120818960Y-93578450D01*
X120796926Y-93578450D01*
X120796926Y-92719715D01*
X121502033Y-92719715D01*
X121502033Y-93602085D01*
G37*
G36*
X122391666Y-93420884D02*
G01*
X122391666Y-93602085D01*
X121713455Y-93602085D01*
X121725615Y-93535832D01*
X121747512Y-93471840D01*
X121779559Y-93409497D01*
X121820876Y-93351289D01*
X121890333Y-93272571D01*
X121997135Y-93168101D01*
X122113894Y-93054400D01*
X122157532Y-93003272D01*
X122180402Y-92962063D01*
X122193319Y-92922961D01*
X122197478Y-92885159D01*
X122193187Y-92843492D01*
X122181368Y-92811127D01*
X122162703Y-92785942D01*
X122137515Y-92767163D01*
X122106087Y-92755434D01*
X122066624Y-92751228D01*
X122027772Y-92755575D01*
X121996185Y-92767830D01*
X121970238Y-92787727D01*
X121951211Y-92814435D01*
X121936982Y-92853428D01*
X121928939Y-92908794D01*
X121736167Y-92889529D01*
X121750807Y-92809699D01*
X121774295Y-92746715D01*
X121805499Y-92697438D01*
X121844247Y-92659520D01*
X121891201Y-92629673D01*
X121944006Y-92607952D01*
X122003681Y-92594439D01*
X122071487Y-92589723D01*
X122145946Y-92595325D01*
X122208609Y-92611095D01*
X122261529Y-92636056D01*
X122306297Y-92670045D01*
X122343861Y-92712929D01*
X122370216Y-92759856D01*
X122386177Y-92811709D01*
X122391666Y-92869772D01*
X122385516Y-92936307D01*
X122367230Y-92999149D01*
X122336940Y-93059852D01*
X122289740Y-93127786D01*
X122246476Y-93176129D01*
X122163072Y-93256178D01*
X122047052Y-93367336D01*
X122007475Y-93420884D01*
X122391666Y-93420884D01*
G37*
G36*
X122566157Y-93602085D02*
G01*
X122566157Y-92589723D01*
X123258217Y-92589723D01*
X123258217Y-92759107D01*
X122770008Y-92759107D01*
X122770008Y-93003334D01*
X123191436Y-93003334D01*
X123191436Y-93172717D01*
X122770008Y-93172717D01*
X122770008Y-93602085D01*
X122566157Y-93602085D01*
G37*
G36*
X124205274Y-93602085D02*
G01*
X123500167Y-93602085D01*
X123500167Y-93578450D01*
X123522201Y-93578450D01*
X124183240Y-93578450D01*
X124183240Y-92743350D01*
X123522201Y-92743350D01*
X123522201Y-93578450D01*
X123500167Y-93578450D01*
X123500167Y-92719715D01*
X124205274Y-92719715D01*
X124205274Y-93602085D01*
G37*
G36*
X125262936Y-93602085D02*
G01*
X124557828Y-93602085D01*
X124557828Y-93578450D01*
X124579863Y-93578450D01*
X125240901Y-93578450D01*
X125240901Y-92743350D01*
X124579863Y-92743350D01*
X124579863Y-93578450D01*
X124557828Y-93578450D01*
X124557828Y-92719715D01*
X125262936Y-92719715D01*
X125262936Y-93602085D01*
G37*
G36*
X122095793Y-89844104D02*
G01*
X122145317Y-89867088D01*
X122189315Y-89906373D01*
X122220577Y-89956847D01*
X122241627Y-90028203D01*
X122249614Y-90127277D01*
X122242066Y-90223835D01*
X122222409Y-90291672D01*
X122193643Y-90338179D01*
X122152803Y-90374202D01*
X122106816Y-90395312D01*
X122053811Y-90402517D01*
X121999144Y-90394195D01*
X121948095Y-90368900D01*
X121898880Y-90323946D01*
X121862822Y-90267757D01*
X121839584Y-90194982D01*
X121831080Y-90100926D01*
X121838748Y-90015760D01*
X121859471Y-89951490D01*
X121891282Y-89903296D01*
X121935042Y-89865684D01*
X121983571Y-89843723D01*
X122038712Y-89836265D01*
X122095793Y-89844104D01*
G37*
G36*
X124504685Y-89303356D02*
G01*
X124550304Y-89329542D01*
X124585983Y-89375573D01*
X124620797Y-89468220D01*
X124640042Y-89593466D01*
X124648783Y-89849152D01*
X124639272Y-90106233D01*
X124617623Y-90242393D01*
X124586691Y-90323133D01*
X124550785Y-90367607D01*
X124504763Y-90393808D01*
X124452883Y-90402517D01*
X124401124Y-90393927D01*
X124355558Y-90368184D01*
X124331783Y-90341903D01*
X124308082Y-90298066D01*
X124285065Y-90230083D01*
X124265818Y-90104764D01*
X124257080Y-89849152D01*
X124266573Y-89591858D01*
X124288239Y-89454756D01*
X124319150Y-89374005D01*
X124354981Y-89329542D01*
X124401070Y-89303334D01*
X124452883Y-89294632D01*
X124504685Y-89303356D01*
G37*
G36*
X119334394Y-90002448D02*
G01*
X118904031Y-90002448D01*
X119117049Y-89411575D01*
X119334394Y-90002448D01*
G37*
G36*
X126726422Y-90829869D02*
G01*
X118163067Y-90829869D01*
X118163067Y-90624095D01*
X118338067Y-90624095D01*
X118675914Y-90624095D01*
X118806129Y-90267109D01*
X119436527Y-90267109D01*
X119574244Y-90624095D01*
X119920746Y-90624095D01*
X119929113Y-90624095D01*
X120311103Y-90624095D01*
X120662030Y-90088328D01*
X121011514Y-90624095D01*
X121395619Y-90624095D01*
X120891428Y-89859923D01*
X121492174Y-89859923D01*
X121500033Y-90039138D01*
X121509183Y-90100926D01*
X121521588Y-90184696D01*
X121554250Y-90301869D01*
X121596110Y-90395334D01*
X121646047Y-90469067D01*
X121712212Y-90537013D01*
X121783569Y-90588476D01*
X121860883Y-90625002D01*
X121945389Y-90647234D01*
X122038712Y-90654869D01*
X122147871Y-90645308D01*
X122243484Y-90617800D01*
X122328082Y-90573012D01*
X122403487Y-90510132D01*
X122464424Y-90433696D01*
X122508472Y-90345752D01*
X122535898Y-90244087D01*
X122537500Y-90224409D01*
X122721331Y-90224409D01*
X122742457Y-90320289D01*
X122776979Y-90403327D01*
X122824597Y-90475509D01*
X122885975Y-90538214D01*
X122957614Y-90587989D01*
X123039513Y-90624259D01*
X123133549Y-90646917D01*
X123242095Y-90654869D01*
X123349352Y-90645946D01*
X123443681Y-90620269D01*
X123527401Y-90578550D01*
X123602237Y-90520242D01*
X123669189Y-90443582D01*
X123718657Y-90363546D01*
X123753734Y-90278950D01*
X123774963Y-90188784D01*
X123782189Y-90091790D01*
X123772775Y-89975142D01*
X123745856Y-89873879D01*
X123732138Y-89845882D01*
X123940775Y-89845882D01*
X123940901Y-89849152D01*
X123948339Y-90041665D01*
X123968797Y-90196196D01*
X123999217Y-90316408D01*
X124037331Y-90408478D01*
X124081665Y-90477723D01*
X124158518Y-90555860D01*
X124244550Y-90610386D01*
X124341664Y-90643436D01*
X124452883Y-90654869D01*
X124564647Y-90644073D01*
X124659354Y-90613329D01*
X124740439Y-90563503D01*
X124810157Y-90493302D01*
X124860169Y-90415954D01*
X124902300Y-90317509D01*
X124935294Y-90193668D01*
X124957119Y-90039423D01*
X124965088Y-89849152D01*
X124965004Y-89847132D01*
X125177433Y-89847132D01*
X125186518Y-89997857D01*
X125212384Y-90129409D01*
X125253520Y-90244512D01*
X125309234Y-90345467D01*
X125379679Y-90434061D01*
X125465127Y-90511364D01*
X125558174Y-90570772D01*
X125659917Y-90613458D01*
X125771937Y-90639670D01*
X125896212Y-90648714D01*
X126022825Y-90640127D01*
X126133285Y-90615628D01*
X126230078Y-90576455D01*
X126315227Y-90522923D01*
X126388914Y-90455030D01*
X126452942Y-90370064D01*
X126507362Y-90265454D01*
X126551422Y-90137856D01*
X126242618Y-90039377D01*
X126207629Y-90152511D01*
X126163442Y-90236111D01*
X126111345Y-90296249D01*
X126046499Y-90341573D01*
X125974458Y-90368628D01*
X125892942Y-90377898D01*
X125809474Y-90369651D01*
X125736332Y-90345817D01*
X125671371Y-90306597D01*
X125613182Y-90250664D01*
X125570594Y-90185408D01*
X125536885Y-90096793D01*
X125514093Y-89978615D01*
X125505567Y-89823474D01*
X125514029Y-89678252D01*
X125536844Y-89565785D01*
X125570986Y-89479713D01*
X125614720Y-89414749D01*
X125673609Y-89359408D01*
X125739592Y-89320455D01*
X125814124Y-89296708D01*
X125899385Y-89288477D01*
X125981506Y-89296738D01*
X126052647Y-89320519D01*
X126115096Y-89359547D01*
X126166929Y-89411843D01*
X126205751Y-89475642D01*
X126231847Y-89553138D01*
X126547095Y-89479279D01*
X126502767Y-89357316D01*
X126448695Y-89261980D01*
X126385720Y-89188748D01*
X126290601Y-89115179D01*
X126182336Y-89062112D01*
X126058424Y-89029183D01*
X125915542Y-89017660D01*
X125783772Y-89027006D01*
X125666434Y-89053934D01*
X125561269Y-89097492D01*
X125466462Y-89157707D01*
X125380737Y-89235583D01*
X125310564Y-89325099D01*
X125254654Y-89428637D01*
X125213064Y-89548303D01*
X125186733Y-89686759D01*
X125177433Y-89847132D01*
X124965004Y-89847132D01*
X124957135Y-89658101D01*
X124935387Y-89503718D01*
X124902571Y-89380226D01*
X124860752Y-89282478D01*
X124811215Y-89206059D01*
X124740856Y-89134753D01*
X124659353Y-89084262D01*
X124564494Y-89053177D01*
X124452883Y-89042280D01*
X124341171Y-89053074D01*
X124246495Y-89083816D01*
X124165424Y-89133641D01*
X124095705Y-89203847D01*
X124045641Y-89281229D01*
X124003500Y-89379541D01*
X123970526Y-89503025D01*
X123948729Y-89656624D01*
X123940775Y-89845882D01*
X123732138Y-89845882D01*
X123702456Y-89785307D01*
X123642261Y-89707396D01*
X123567515Y-89641891D01*
X123486817Y-89596201D01*
X123398747Y-89568699D01*
X123301240Y-89559293D01*
X123232083Y-89564748D01*
X123163477Y-89581230D01*
X123094665Y-89609302D01*
X123141981Y-89343871D01*
X123712273Y-89343871D01*
X123712273Y-89060745D01*
X122912807Y-89060745D01*
X122757876Y-89880215D01*
X123003207Y-89916279D01*
X123059119Y-89863074D01*
X123116011Y-89827195D01*
X123174764Y-89806298D01*
X123236709Y-89799335D01*
X123302882Y-89807894D01*
X123358513Y-89832577D01*
X123406162Y-89873964D01*
X123440356Y-89927529D01*
X123462874Y-90000152D01*
X123471270Y-90097657D01*
X123462727Y-90202035D01*
X123439925Y-90279325D01*
X123405585Y-90335871D01*
X123357551Y-90380487D01*
X123304832Y-90406176D01*
X123245365Y-90414827D01*
X123192416Y-90408243D01*
X123144105Y-90388688D01*
X123098993Y-90355201D01*
X123063048Y-90311844D01*
X123037505Y-90258609D01*
X123022634Y-90193250D01*
X122721331Y-90224409D01*
X122537500Y-90224409D01*
X122545531Y-90125738D01*
X122536477Y-90014413D01*
X122510553Y-89917501D01*
X122468683Y-89832466D01*
X122410508Y-89757405D01*
X122338296Y-89694031D01*
X122261124Y-89650026D01*
X122177697Y-89623666D01*
X122086124Y-89614688D01*
X122005341Y-89623096D01*
X121932773Y-89647698D01*
X121866504Y-89688773D01*
X121805306Y-89748172D01*
X121826053Y-89561856D01*
X121855426Y-89447652D01*
X121888686Y-89383205D01*
X121937802Y-89332680D01*
X121991057Y-89304138D01*
X122050637Y-89294632D01*
X122096900Y-89299759D01*
X122135407Y-89314346D01*
X122167869Y-89338197D01*
X122192753Y-89370046D01*
X122211748Y-89413893D01*
X122223840Y-89473125D01*
X122516488Y-89440426D01*
X122493559Y-89344616D01*
X122460517Y-89264870D01*
X122418119Y-89198727D01*
X122366365Y-89144317D01*
X122304868Y-89100410D01*
X122235797Y-89068726D01*
X122157747Y-89049113D01*
X122068910Y-89042280D01*
X121968352Y-89050270D01*
X121878006Y-89073439D01*
X121796081Y-89111309D01*
X121721200Y-89164368D01*
X121652491Y-89234044D01*
X121600336Y-89310279D01*
X121556708Y-89406622D01*
X121522726Y-89527087D01*
X121500332Y-89676407D01*
X121492174Y-89859923D01*
X120891428Y-89859923D01*
X120851390Y-89799239D01*
X121347149Y-89042280D01*
X120978142Y-89042280D01*
X120664241Y-89515632D01*
X120351975Y-89042280D01*
X119979699Y-89042280D01*
X120474785Y-89801259D01*
X119929113Y-90624095D01*
X119920746Y-90624095D01*
X119289194Y-89042280D01*
X118952404Y-89042280D01*
X118579499Y-90002448D01*
X118338067Y-90624095D01*
X118163067Y-90624095D01*
X118163067Y-88842660D01*
X126726422Y-88842660D01*
X126726422Y-90829869D01*
G37*
G36*
X118203445Y-95035085D02*
G01*
X117842643Y-94022723D01*
X118063667Y-94022723D01*
X118319157Y-94771162D01*
X118566339Y-94022723D01*
X118782561Y-94022723D01*
X118421021Y-95035085D01*
X118203445Y-95035085D01*
G37*
G36*
X119242183Y-94029697D02*
G01*
X119302893Y-94049592D01*
X119355055Y-94081906D01*
X119400084Y-94127542D01*
X119431788Y-94176450D01*
X119458552Y-94239008D01*
X119479554Y-94318043D01*
X119493473Y-94416849D01*
X119498563Y-94539121D01*
X119493463Y-94660894D01*
X119479495Y-94759612D01*
X119458379Y-94838870D01*
X119431415Y-94901875D01*
X119399407Y-94951378D01*
X119354788Y-94996306D01*
X119302894Y-95028194D01*
X119242281Y-95047871D01*
X119170752Y-95054780D01*
X119099572Y-95047463D01*
X119037419Y-95026311D01*
X118982358Y-94991414D01*
X118933172Y-94941407D01*
X118904799Y-94897090D01*
X118880406Y-94838165D01*
X118860937Y-94761230D01*
X118847844Y-94662330D01*
X118843084Y-94539121D01*
X119045438Y-94539121D01*
X119051031Y-94702713D01*
X119063349Y-94782917D01*
X119078079Y-94826426D01*
X119093248Y-94854482D01*
X119108464Y-94871302D01*
X119137626Y-94887777D01*
X119170752Y-94893275D01*
X119203955Y-94887701D01*
X119233409Y-94870933D01*
X119256389Y-94842469D01*
X119276186Y-94790796D01*
X119290041Y-94703653D01*
X119296128Y-94539121D01*
X119290534Y-94375482D01*
X119278217Y-94295325D01*
X119255936Y-94236031D01*
X119233101Y-94206571D01*
X119203905Y-94189812D01*
X119170752Y-94184228D01*
X119137592Y-94189798D01*
X119108095Y-94206571D01*
X119085163Y-94235027D01*
X119065380Y-94286708D01*
X119051514Y-94374453D01*
X119045438Y-94539121D01*
X118843084Y-94539121D01*
X118843003Y-94537028D01*
X118848093Y-94415903D01*
X118862043Y-94317600D01*
X118883147Y-94238571D01*
X118910117Y-94175650D01*
X118942158Y-94126126D01*
X118986778Y-94081194D01*
X119038664Y-94049306D01*
X119099256Y-94029631D01*
X119170752Y-94022723D01*
X119242183Y-94029697D01*
G37*
G36*
X119668931Y-95035085D02*
G01*
X119668931Y-94842066D01*
X119862380Y-94842066D01*
X119862380Y-95035085D01*
X119668931Y-95035085D01*
G37*
G36*
X120012622Y-94763345D02*
G01*
X120199916Y-94739648D01*
X120209959Y-94787855D01*
X120226234Y-94825189D01*
X120248109Y-94853822D01*
X120276284Y-94875836D01*
X120307594Y-94888838D01*
X120343141Y-94893275D01*
X120381103Y-94888190D01*
X120414300Y-94873264D01*
X120444020Y-94847790D01*
X120466153Y-94815203D01*
X120480038Y-94774968D01*
X120485012Y-94725000D01*
X120480247Y-94677740D01*
X120466951Y-94639777D01*
X120445744Y-94609103D01*
X120417353Y-94585128D01*
X120385843Y-94571096D01*
X120350035Y-94566326D01*
X120311391Y-94569599D01*
X120261219Y-94580790D01*
X120282577Y-94424516D01*
X120333765Y-94421181D01*
X120372744Y-94409490D01*
X120402351Y-94390664D01*
X120425188Y-94364299D01*
X120438917Y-94332973D01*
X120443713Y-94295140D01*
X120440099Y-94262627D01*
X120429908Y-94236159D01*
X120413369Y-94214388D01*
X120391507Y-94197930D01*
X120365104Y-94187809D01*
X120332862Y-94184228D01*
X120301170Y-94188082D01*
X120273238Y-94199358D01*
X120248109Y-94218388D01*
X120228601Y-94243257D01*
X120214197Y-94275856D01*
X120205456Y-94318159D01*
X120027086Y-94288123D01*
X120042615Y-94227555D01*
X120061516Y-94179131D01*
X120083219Y-94140898D01*
X120111060Y-94107263D01*
X120145642Y-94078456D01*
X120187853Y-94054298D01*
X120233581Y-94037001D01*
X120283497Y-94026379D01*
X120338340Y-94022723D01*
X120408365Y-94028820D01*
X120468700Y-94046238D01*
X120521146Y-94074393D01*
X120566996Y-94113693D01*
X120598725Y-94153168D01*
X120620592Y-94193935D01*
X120633544Y-94236565D01*
X120637900Y-94281845D01*
X120632359Y-94331721D01*
X120616042Y-94376895D01*
X120588519Y-94418606D01*
X120548221Y-94457602D01*
X120492583Y-94494067D01*
X120547343Y-94511982D01*
X120593104Y-94539677D01*
X120631314Y-94577528D01*
X120659921Y-94623115D01*
X120677301Y-94674749D01*
X120683324Y-94734047D01*
X120677163Y-94798611D01*
X120659131Y-94857138D01*
X120629158Y-94910954D01*
X120586199Y-94960979D01*
X120534911Y-95001879D01*
X120478324Y-95030914D01*
X120415363Y-95048652D01*
X120344557Y-95054780D01*
X120276933Y-95049415D01*
X120217379Y-95033988D01*
X120164507Y-95008990D01*
X120117256Y-94974212D01*
X120077149Y-94931119D01*
X120046549Y-94882258D01*
X120024982Y-94826751D01*
X120012622Y-94763345D01*
G37*
G36*
X123012784Y-94853884D02*
G01*
X123012784Y-95035085D01*
X122334573Y-95035085D01*
X122346734Y-94968832D01*
X122368630Y-94904840D01*
X122400677Y-94842497D01*
X122441995Y-94784289D01*
X122511451Y-94705571D01*
X122618253Y-94601101D01*
X122735013Y-94487400D01*
X122778651Y-94436272D01*
X122801520Y-94395063D01*
X122814437Y-94355961D01*
X122818596Y-94318159D01*
X122814305Y-94276492D01*
X122802486Y-94244127D01*
X122783821Y-94218942D01*
X122758633Y-94200163D01*
X122727205Y-94188434D01*
X122687742Y-94184228D01*
X122648890Y-94188575D01*
X122617303Y-94200830D01*
X122591356Y-94220727D01*
X122572329Y-94247435D01*
X122558100Y-94286428D01*
X122550057Y-94341794D01*
X122357285Y-94322529D01*
X122371925Y-94242699D01*
X122395413Y-94179715D01*
X122426618Y-94130438D01*
X122465365Y-94092520D01*
X122512319Y-94062673D01*
X122565125Y-94040952D01*
X122624800Y-94027439D01*
X122692605Y-94022723D01*
X122767064Y-94028325D01*
X122829727Y-94044095D01*
X122882647Y-94069056D01*
X122927415Y-94103045D01*
X122964979Y-94145929D01*
X122991334Y-94192856D01*
X123007295Y-94244709D01*
X123012784Y-94302772D01*
X123006634Y-94369307D01*
X122988349Y-94432149D01*
X122958058Y-94492852D01*
X122910858Y-94560786D01*
X122867594Y-94609129D01*
X122784190Y-94689178D01*
X122668170Y-94800336D01*
X122628594Y-94853884D01*
X123012784Y-94853884D01*
G37*
G36*
X123145976Y-94779286D02*
G01*
X123338810Y-94759344D01*
X123348327Y-94801174D01*
X123364675Y-94835244D01*
X123387680Y-94862993D01*
X123416551Y-94884424D01*
X123447471Y-94896940D01*
X123481358Y-94901153D01*
X123519417Y-94895616D01*
X123553157Y-94879176D01*
X123583899Y-94850622D01*
X123605876Y-94814432D01*
X123620470Y-94764966D01*
X123625937Y-94698164D01*
X123620563Y-94635761D01*
X123606152Y-94589283D01*
X123584268Y-94555001D01*
X123553773Y-94528514D01*
X123518169Y-94512716D01*
X123475818Y-94507239D01*
X123436173Y-94511695D01*
X123398571Y-94525069D01*
X123362160Y-94548032D01*
X123326377Y-94582082D01*
X123169365Y-94559001D01*
X123268521Y-94034541D01*
X123780179Y-94034541D01*
X123780179Y-94215742D01*
X123415192Y-94215742D01*
X123384910Y-94385617D01*
X123428949Y-94367651D01*
X123472857Y-94357102D01*
X123517118Y-94353612D01*
X123579523Y-94359632D01*
X123635887Y-94377232D01*
X123687534Y-94406474D01*
X123735371Y-94448398D01*
X123773896Y-94498260D01*
X123801672Y-94554946D01*
X123818900Y-94619755D01*
X123824925Y-94694410D01*
X123820300Y-94756486D01*
X123806714Y-94814192D01*
X123784264Y-94868333D01*
X123752605Y-94919557D01*
X123709756Y-94968619D01*
X123661861Y-95005936D01*
X123608280Y-95032636D01*
X123547909Y-95049069D01*
X123479265Y-95054780D01*
X123409795Y-95049691D01*
X123349613Y-95035190D01*
X123297197Y-95011977D01*
X123251348Y-94980121D01*
X123212066Y-94939990D01*
X123181591Y-94893793D01*
X123159497Y-94840649D01*
X123145976Y-94779286D01*
G37*
G36*
X124422199Y-95035085D02*
G01*
X124228688Y-95035085D01*
X124228688Y-94307942D01*
X124154151Y-94368646D01*
X124071170Y-94417915D01*
X123978737Y-94456030D01*
X123978737Y-94278768D01*
X124027531Y-94258807D01*
X124082081Y-94228091D01*
X124143319Y-94184598D01*
X124197539Y-94134453D01*
X124237640Y-94080696D01*
X124265187Y-94022723D01*
X124422199Y-94022723D01*
X124422199Y-95035085D01*
G37*
G36*
X125109491Y-94029697D02*
G01*
X125170201Y-94049592D01*
X125222363Y-94081906D01*
X125267392Y-94127542D01*
X125299096Y-94176450D01*
X125325860Y-94239008D01*
X125346862Y-94318043D01*
X125360781Y-94416849D01*
X125365871Y-94539121D01*
X125360771Y-94660894D01*
X125346803Y-94759612D01*
X125325687Y-94838870D01*
X125298723Y-94901875D01*
X125266715Y-94951378D01*
X125222096Y-94996306D01*
X125170202Y-95028194D01*
X125109589Y-95047871D01*
X125038060Y-95054780D01*
X124966880Y-95047463D01*
X124904727Y-95026311D01*
X124849666Y-94991414D01*
X124800480Y-94941407D01*
X124772107Y-94897090D01*
X124747714Y-94838165D01*
X124728245Y-94761230D01*
X124715152Y-94662330D01*
X124710392Y-94539121D01*
X124912746Y-94539121D01*
X124918339Y-94702713D01*
X124930657Y-94782917D01*
X124945387Y-94826426D01*
X124960556Y-94854482D01*
X124975772Y-94871302D01*
X125004934Y-94887777D01*
X125038060Y-94893275D01*
X125071263Y-94887701D01*
X125100717Y-94870933D01*
X125123697Y-94842469D01*
X125143494Y-94790796D01*
X125157349Y-94703653D01*
X125163436Y-94539121D01*
X125157842Y-94375482D01*
X125145525Y-94295325D01*
X125123244Y-94236031D01*
X125100409Y-94206571D01*
X125071213Y-94189812D01*
X125038060Y-94184228D01*
X125004900Y-94189798D01*
X124975403Y-94206571D01*
X124952471Y-94235027D01*
X124932688Y-94286708D01*
X124918822Y-94374453D01*
X124912746Y-94539121D01*
X124710392Y-94539121D01*
X124710311Y-94537028D01*
X124715401Y-94415903D01*
X124729351Y-94317600D01*
X124750455Y-94238571D01*
X124777425Y-94175650D01*
X124809466Y-94126126D01*
X124854086Y-94081194D01*
X124905972Y-94049306D01*
X124966564Y-94029631D01*
X125038060Y-94022723D01*
X125109491Y-94029697D01*
G37*
G36*
X125487985Y-94763345D02*
G01*
X125675279Y-94739648D01*
X125685322Y-94787855D01*
X125701596Y-94825189D01*
X125723472Y-94853822D01*
X125751647Y-94875836D01*
X125782957Y-94888838D01*
X125818504Y-94893275D01*
X125856465Y-94888190D01*
X125889663Y-94873264D01*
X125919383Y-94847790D01*
X125941516Y-94815203D01*
X125955401Y-94774968D01*
X125960375Y-94725000D01*
X125955610Y-94677740D01*
X125942314Y-94639777D01*
X125921106Y-94609103D01*
X125892715Y-94585128D01*
X125861206Y-94571096D01*
X125825397Y-94566326D01*
X125786754Y-94569599D01*
X125736582Y-94580790D01*
X125757939Y-94424516D01*
X125809128Y-94421181D01*
X125848107Y-94409490D01*
X125877714Y-94390664D01*
X125900551Y-94364299D01*
X125914280Y-94332973D01*
X125919075Y-94295140D01*
X125915462Y-94262627D01*
X125905270Y-94236159D01*
X125888732Y-94214388D01*
X125866870Y-94197930D01*
X125840467Y-94187809D01*
X125808225Y-94184228D01*
X125776533Y-94188082D01*
X125748601Y-94199358D01*
X125723472Y-94218388D01*
X125703963Y-94243257D01*
X125689560Y-94275856D01*
X125680818Y-94318159D01*
X125502449Y-94288123D01*
X125517977Y-94227555D01*
X125536879Y-94179131D01*
X125558582Y-94140898D01*
X125586423Y-94107263D01*
X125621005Y-94078456D01*
X125663215Y-94054298D01*
X125708944Y-94037001D01*
X125758860Y-94026379D01*
X125813703Y-94022723D01*
X125883728Y-94028820D01*
X125944063Y-94046238D01*
X125996508Y-94074393D01*
X126042358Y-94113693D01*
X126074087Y-94153168D01*
X126095954Y-94193935D01*
X126108907Y-94236565D01*
X126113263Y-94281845D01*
X126107722Y-94331721D01*
X126091405Y-94376895D01*
X126063881Y-94418606D01*
X126023583Y-94457602D01*
X125967945Y-94494067D01*
X126022706Y-94511982D01*
X126068466Y-94539677D01*
X126106677Y-94577528D01*
X126135284Y-94623115D01*
X126152664Y-94674749D01*
X126158686Y-94734047D01*
X126152526Y-94798611D01*
X126134494Y-94857138D01*
X126104521Y-94910954D01*
X126061562Y-94960979D01*
X126010274Y-95001879D01*
X125953687Y-95030914D01*
X125890726Y-95048652D01*
X125819919Y-95054780D01*
X125752295Y-95049415D01*
X125692742Y-95033988D01*
X125639870Y-95008990D01*
X125592618Y-94974212D01*
X125552512Y-94931119D01*
X125521912Y-94882258D01*
X125500345Y-94826751D01*
X125487985Y-94763345D01*
G37*
G36*
X126773871Y-95035085D02*
G01*
X126580360Y-95035085D01*
X126580360Y-94307942D01*
X126505823Y-94368646D01*
X126422842Y-94417915D01*
X126330409Y-94456030D01*
X126330409Y-94278768D01*
X126379203Y-94258807D01*
X126433753Y-94228091D01*
X126494991Y-94184598D01*
X126549211Y-94134453D01*
X126589312Y-94080696D01*
X126616859Y-94022723D01*
X126773871Y-94022723D01*
X126773871Y-95035085D01*
G37*
G36*
X121149490Y-91194671D02*
G01*
X121221871Y-91204926D01*
X121276193Y-91225851D01*
X121324317Y-91258480D01*
X121367189Y-91304020D01*
X121398792Y-91357693D01*
X121418647Y-91422451D01*
X121425722Y-91501039D01*
X121421618Y-91562438D01*
X121410098Y-91614141D01*
X121391993Y-91657743D01*
X121366867Y-91697889D01*
X121338322Y-91730883D01*
X121306255Y-91757515D01*
X121252882Y-91788049D01*
X121200514Y-91805461D01*
X121119339Y-91815765D01*
X120989092Y-91819987D01*
X120856207Y-91819987D01*
X120856207Y-92202085D01*
X120652418Y-92202085D01*
X120652418Y-91650604D01*
X120856207Y-91650604D01*
X120967735Y-91650604D01*
X121078301Y-91645469D01*
X121128870Y-91634478D01*
X121165330Y-91613637D01*
X121192574Y-91584069D01*
X121209745Y-91547403D01*
X121215655Y-91504178D01*
X121211847Y-91468029D01*
X121200992Y-91437600D01*
X121183280Y-91411670D01*
X121159827Y-91390442D01*
X121132760Y-91375349D01*
X121101358Y-91366123D01*
X121055739Y-91361351D01*
X120954686Y-91359107D01*
X120856207Y-91359107D01*
X120856207Y-91650604D01*
X120652418Y-91650604D01*
X120652418Y-91189723D01*
X120979490Y-91189723D01*
X121149490Y-91194671D01*
G37*
G36*
X121857982Y-92202085D02*
G01*
X121857982Y-91775979D01*
X121488195Y-91189723D01*
X121727190Y-91189723D01*
X121964708Y-91591024D01*
X122197488Y-91189723D01*
X122432298Y-91189723D01*
X122061094Y-91777395D01*
X122061094Y-92202085D01*
X121857982Y-92202085D01*
G37*
G36*
X123072149Y-91193582D02*
G01*
X123147866Y-91203435D01*
X123198154Y-91217051D01*
X123243591Y-91239859D01*
X123282490Y-91271937D01*
X123315590Y-91314299D01*
X123339851Y-91362531D01*
X123354594Y-91415441D01*
X123359659Y-91474142D01*
X123355195Y-91530499D01*
X123342377Y-91579973D01*
X123321636Y-91623749D01*
X123292817Y-91662729D01*
X123257348Y-91694960D01*
X123213324Y-91721517D01*
X123159236Y-91742245D01*
X123093151Y-91756468D01*
X123154826Y-91797998D01*
X123202278Y-91841222D01*
X123247259Y-91897437D01*
X123318360Y-92005127D01*
X123441581Y-92202085D01*
X123197847Y-92202085D01*
X123050498Y-91982108D01*
X122976900Y-91875980D01*
X122943094Y-91833897D01*
X122912511Y-91807584D01*
X122881791Y-91791982D01*
X122844646Y-91783997D01*
X122779189Y-91780596D01*
X122737889Y-91780596D01*
X122737889Y-92202085D01*
X122534039Y-92202085D01*
X122534039Y-91619091D01*
X122737889Y-91619091D01*
X122888685Y-91619091D01*
X123021953Y-91614850D01*
X123071855Y-91606534D01*
X123104538Y-91589276D01*
X123128973Y-91563204D01*
X123144193Y-91529660D01*
X123149654Y-91486329D01*
X123146376Y-91452805D01*
X123137175Y-91425389D01*
X123122449Y-91402807D01*
X123090554Y-91377322D01*
X123045697Y-91362615D01*
X122896933Y-91359107D01*
X122737889Y-91359107D01*
X122737889Y-91619091D01*
X122534039Y-91619091D01*
X122534039Y-91189723D01*
X122963036Y-91189723D01*
X123072149Y-91193582D01*
G37*
G36*
X124461944Y-92202085D02*
G01*
X124240182Y-92202085D01*
X124152044Y-91973614D01*
X123748589Y-91973614D01*
X123665251Y-92202085D01*
X123449029Y-92202085D01*
X123603546Y-91804230D01*
X123811246Y-91804230D01*
X124086679Y-91804230D01*
X123947577Y-91426072D01*
X123811246Y-91804230D01*
X123603546Y-91804230D01*
X123842205Y-91189723D01*
X124057750Y-91189723D01*
X124461944Y-92202085D01*
G37*
G36*
X124567132Y-92202085D02*
G01*
X124567132Y-91189723D01*
X124872169Y-91189723D01*
X125055340Y-91880305D01*
X125236418Y-91189723D01*
X125542194Y-91189723D01*
X125542194Y-92202085D01*
X125352807Y-92202085D01*
X125352807Y-91405207D01*
X125152464Y-92202085D01*
X124956184Y-92202085D01*
X124756519Y-91405207D01*
X124756519Y-92202085D01*
X124567132Y-92202085D01*
G37*
G36*
X125738536Y-92202085D02*
G01*
X125738536Y-91189723D01*
X125942387Y-91189723D01*
X125942387Y-92202085D01*
X125738536Y-92202085D01*
G37*
G36*
X126626993Y-91195344D02*
G01*
X126700611Y-91209050D01*
X126757201Y-91231151D01*
X126807680Y-91262085D01*
X126852823Y-91302297D01*
X126891119Y-91349475D01*
X126923257Y-91403850D01*
X126949209Y-91466325D01*
X126966731Y-91531824D01*
X126978145Y-91610817D01*
X126982261Y-91705567D01*
X126978486Y-91788652D01*
X126967871Y-91859966D01*
X126951301Y-91921051D01*
X126921412Y-91992034D01*
X126885304Y-92051114D01*
X126843159Y-92099851D01*
X126805415Y-92130691D01*
X126758217Y-92157727D01*
X126699934Y-92180665D01*
X126626645Y-92196046D01*
X126519534Y-92202085D01*
X126136021Y-92202085D01*
X126136021Y-92032701D01*
X126339810Y-92032701D01*
X126492021Y-92032701D01*
X126571461Y-92029768D01*
X126615243Y-92022976D01*
X126661365Y-92005773D01*
X126697534Y-91980692D01*
X126716454Y-91958798D01*
X126734363Y-91926981D01*
X126750897Y-91882521D01*
X126765700Y-91807912D01*
X126771578Y-91696273D01*
X126765598Y-91585289D01*
X126750897Y-91515195D01*
X126725165Y-91457385D01*
X126693041Y-91416717D01*
X126651645Y-91387441D01*
X126598748Y-91368831D01*
X126545879Y-91362197D01*
X126431395Y-91359107D01*
X126339810Y-91359107D01*
X126339810Y-92032701D01*
X126136021Y-92032701D01*
X126136021Y-91189723D01*
X126508516Y-91189723D01*
X126626993Y-91195344D01*
G37*
X127559724Y-116136902D02*
X128140296Y-116136902D01*
X127850010Y-116427187D02*
X127850010Y-115846616D01*
D11*
X133023358Y-125952552D02*
X132206929Y-125952552D01*
X132206929Y-125952552D02*
X132043644Y-125898123D01*
X132043644Y-125898123D02*
X131934787Y-125789266D01*
X131934787Y-125789266D02*
X131880358Y-125625980D01*
X131880358Y-125625980D02*
X131880358Y-125517123D01*
X133023358Y-126387980D02*
X133023358Y-127149980D01*
X133023358Y-127149980D02*
X131880358Y-126660123D01*
D10*
X127559724Y-105486902D02*
X128140296Y-105486902D01*
X127850010Y-105777187D02*
X127850010Y-105196616D01*
D12*
%TO.C,U10*%
X121374990Y-126853595D02*
G75*
G02*
X121263190Y-126853595I-55900J0D01*
G01*
X121263190Y-126853595D02*
G75*
G02*
X121374990Y-126853595I55900J0D01*
G01*
D11*
X119719090Y-126678595D02*
X121044090Y-126678595D01*
X119727850Y-123831145D02*
X121219090Y-123828595D01*
D13*
%TO.C,U11*%
X122401100Y-114878605D02*
G75*
G02*
X122151100Y-114878605I-125000J0D01*
G01*
X122151100Y-114878605D02*
G75*
G02*
X122401100Y-114878605I125000J0D01*
G01*
D14*
X120551100Y-114603605D02*
X120551100Y-111603605D01*
X121451100Y-114603605D02*
X121451100Y-111603605D01*
X120551100Y-111603605D02*
X121451100Y-111603605D01*
X120551100Y-114603605D02*
X121451100Y-114603605D01*
%TO.C,C12*%
X126487567Y-113286446D02*
G75*
G02*
X132516143Y-113291488I3013523J-917159D01*
G01*
X132516221Y-115115742D02*
G75*
G02*
X126485959Y-115115741I-3015131J911857D01*
G01*
X132803090Y-117505605D02*
X132803090Y-115092605D01*
X126199090Y-112425605D02*
X127723090Y-110901605D01*
X126199090Y-115981605D02*
X127723090Y-117505605D01*
X127723090Y-117505605D02*
X132803090Y-117505605D01*
X127723090Y-110901605D02*
X132803090Y-110901605D01*
X132803090Y-113314605D02*
X132803090Y-110901605D01*
X130390090Y-117124605D02*
X130390090Y-111282605D01*
X126199090Y-115981605D02*
X126199090Y-115092605D01*
X126199090Y-113314605D02*
X126199090Y-112425605D01*
D15*
G36*
X130859990Y-111333405D02*
G01*
X131571190Y-111790605D01*
X132053790Y-112324005D01*
X132510990Y-113263805D01*
X132510990Y-113390805D01*
X130402790Y-113390805D01*
X130402790Y-111181005D01*
X130859990Y-111333405D01*
G37*
G36*
X132510990Y-115143405D02*
G01*
X132053790Y-116083205D01*
X131571190Y-116616605D01*
X130859990Y-117073805D01*
X130402790Y-117226205D01*
X130402790Y-115016405D01*
X132510990Y-115016405D01*
X132510990Y-115143405D01*
G37*
D12*
%TO.C,J7*%
X130325190Y-123715275D02*
X134865440Y-123204995D01*
X130324690Y-120876065D02*
X130754720Y-120906025D01*
X122881080Y-118053575D02*
X123835270Y-118053575D01*
X130321370Y-124224055D02*
X130325190Y-123715275D01*
X122881070Y-120708425D02*
X122881080Y-118053575D01*
X126266870Y-118053565D02*
X137351070Y-118053565D01*
X130321390Y-130224035D02*
X136056450Y-129728985D01*
X134865440Y-129204985D02*
X135543630Y-129129795D01*
X136056450Y-129728985D02*
X136067630Y-126845825D01*
X133001090Y-127153675D02*
X133001100Y-129413775D01*
X130324690Y-120495835D02*
X136067620Y-120845835D01*
X136056450Y-123728995D02*
X136067620Y-120845835D01*
X135532960Y-127379985D02*
X135543630Y-129129795D01*
X130754720Y-126906025D02*
X135532960Y-127379985D01*
X130324690Y-126495825D02*
X136067630Y-126845825D01*
X137351060Y-132453575D02*
X137351070Y-118053565D01*
X130321370Y-124224055D02*
X136056450Y-123728995D01*
X134865440Y-123204995D02*
X135543630Y-123129805D01*
X130324690Y-120495835D02*
X130324690Y-120876065D01*
X133001090Y-121153695D02*
X133001090Y-123413785D01*
X134211140Y-121243865D02*
X134211150Y-123273825D01*
X135532960Y-121380005D02*
X135543630Y-123129805D01*
X130754720Y-120906025D02*
X135532960Y-121380005D01*
X134211140Y-129273825D02*
X134211150Y-127243845D01*
X130325190Y-129715275D02*
X134865440Y-129204985D01*
X126266860Y-132453585D02*
X137351060Y-132453575D01*
X130324690Y-126876055D02*
X130754720Y-126906025D01*
X130324690Y-126876055D02*
X130324690Y-126495825D01*
X130321390Y-130224035D02*
X130325190Y-129715275D01*
X122881070Y-132453585D02*
X122881070Y-129798735D01*
X122881070Y-132453585D02*
X123835270Y-132453585D01*
D13*
%TO.C,U4*%
X141851090Y-108428605D02*
G75*
G02*
X141601090Y-108428605I-125000J0D01*
G01*
X141601090Y-108428605D02*
G75*
G02*
X141851090Y-108428605I125000J0D01*
G01*
D14*
X142551090Y-108703605D02*
X143451090Y-108703605D01*
X142551090Y-111703605D02*
X143451090Y-111703605D01*
X142551090Y-111703605D02*
X142551090Y-108703605D01*
X143451090Y-111703605D02*
X143451090Y-108703605D01*
D12*
%TO.C,U2*%
X150156980Y-89381605D02*
G75*
G02*
X150045180Y-89381605I-55900J0D01*
G01*
X150045180Y-89381605D02*
G75*
G02*
X150156980Y-89381605I55900J0D01*
G01*
D11*
X147076080Y-89481605D02*
X147078630Y-90972845D01*
X149926080Y-90981605D02*
X149926080Y-89656605D01*
D13*
%TO.C,U1*%
X122401100Y-104228595D02*
G75*
G02*
X122151100Y-104228595I-125000J0D01*
G01*
X122151100Y-104228595D02*
G75*
G02*
X122401100Y-104228595I125000J0D01*
G01*
D14*
X120551100Y-103953595D02*
X120551100Y-100953595D01*
X121451100Y-103953595D02*
X121451100Y-100953595D01*
X120551100Y-100953595D02*
X121451100Y-100953595D01*
X120551100Y-103953595D02*
X121451100Y-103953595D01*
D16*
%TO.C,L8*%
X129863220Y-87965735D02*
G75*
G02*
X129763220Y-87965735I-50000J0D01*
G01*
X129763220Y-87965735D02*
G75*
G02*
X129863220Y-87965735I50000J0D01*
G01*
%TO.C,L7*%
X167863390Y-87458235D02*
G75*
G02*
X167763390Y-87458235I-50000J0D01*
G01*
X167763390Y-87458235D02*
G75*
G02*
X167863390Y-87458235I50000J0D01*
G01*
%TO.C,L6*%
X128363220Y-87965735D02*
G75*
G02*
X128263220Y-87965735I-50000J0D01*
G01*
X128263220Y-87965735D02*
G75*
G02*
X128363220Y-87965735I50000J0D01*
G01*
%TO.C,L5*%
X166363390Y-87458235D02*
G75*
G02*
X166263390Y-87458235I-50000J0D01*
G01*
X166263390Y-87458235D02*
G75*
G02*
X166363390Y-87458235I50000J0D01*
G01*
%TO.C,L4*%
X126863220Y-87965735D02*
G75*
G02*
X126763220Y-87965735I-50000J0D01*
G01*
X126763220Y-87965735D02*
G75*
G02*
X126863220Y-87965735I50000J0D01*
G01*
%TO.C,L3*%
X164863400Y-87458235D02*
G75*
G02*
X164763400Y-87458235I-50000J0D01*
G01*
X164763400Y-87458235D02*
G75*
G02*
X164863400Y-87458235I50000J0D01*
G01*
%TO.C,L2*%
X125363230Y-87965735D02*
G75*
G02*
X125263230Y-87965735I-50000J0D01*
G01*
X125263230Y-87965735D02*
G75*
G02*
X125363230Y-87965735I50000J0D01*
G01*
%TO.C,L1*%
X163363400Y-87458235D02*
G75*
G02*
X163263400Y-87458235I-50000J0D01*
G01*
X163263400Y-87458235D02*
G75*
G02*
X163363400Y-87458235I50000J0D01*
G01*
D10*
%TO.C,J4*%
X125127990Y-86450015D02*
G75*
G02*
X124873990Y-86450015I-127000J0D01*
G01*
X124873990Y-86450015D02*
G75*
G02*
X125127990Y-86450015I127000J0D01*
G01*
X125127990Y-83096185D02*
G75*
G02*
X124873990Y-83096185I-127000J0D01*
G01*
X124873990Y-83096185D02*
G75*
G02*
X125127990Y-83096185I127000J0D01*
G01*
D12*
X123251000Y-84823115D02*
X124651000Y-84823115D01*
X134351000Y-84823105D02*
X135751000Y-84823105D01*
X122001000Y-76223105D02*
X122001000Y-73273105D01*
X122001000Y-76223105D02*
X122001000Y-76223105D01*
X122001000Y-81923105D02*
X122001000Y-79323095D01*
X137001000Y-81923105D02*
X137001000Y-79323095D01*
X137001000Y-76223105D02*
X137001000Y-76223105D01*
X137001000Y-76223105D02*
X137001000Y-73273105D01*
X122001000Y-73273105D02*
X137001000Y-73273105D01*
D10*
%TO.C,J3*%
X163128160Y-86450515D02*
G75*
G02*
X162874160Y-86450515I-127000J0D01*
G01*
X162874160Y-86450515D02*
G75*
G02*
X163128160Y-86450515I127000J0D01*
G01*
X163128160Y-83096685D02*
G75*
G02*
X162874160Y-83096685I-127000J0D01*
G01*
X162874160Y-83096685D02*
G75*
G02*
X163128160Y-83096685I127000J0D01*
G01*
D12*
X161251170Y-84823605D02*
X162651170Y-84823605D01*
X172351170Y-84823595D02*
X173751170Y-84823595D01*
X160001170Y-76223595D02*
X160001170Y-73273605D01*
X160001170Y-76223595D02*
X160001170Y-76223595D01*
X160001170Y-81923595D02*
X160001170Y-79323595D01*
X175001170Y-81923595D02*
X175001170Y-79323595D01*
X175001170Y-76223595D02*
X175001170Y-76223595D01*
X175001170Y-76223595D02*
X175001170Y-73273605D01*
X160001170Y-73273605D02*
X175001170Y-73273605D01*
%TO.C,J2*%
X155701090Y-88073615D02*
X155701100Y-87119405D01*
X153046250Y-88073605D02*
X155701090Y-88073615D01*
X152962780Y-80629485D02*
X153471540Y-80633285D01*
X149743330Y-80629985D02*
X150123570Y-80629995D01*
X150123570Y-80629995D02*
X150153540Y-80199965D01*
X155701090Y-73603625D02*
X155701100Y-84687815D01*
X152452500Y-76089235D02*
X152962780Y-80629485D01*
X150491360Y-76743525D02*
X152521340Y-76743535D01*
X144153540Y-80199965D02*
X144627510Y-75421725D01*
X144627510Y-75421725D02*
X146377310Y-75411045D01*
X144491380Y-76743545D02*
X146521340Y-76743535D01*
X144401210Y-77953595D02*
X146661300Y-77953585D01*
X143743340Y-80629995D02*
X144123580Y-80629995D01*
X146377310Y-75411045D02*
X146452500Y-76089235D01*
X146976510Y-74898235D02*
X147471570Y-80633305D01*
X141301080Y-73603615D02*
X155701090Y-73603625D01*
X149743330Y-80629985D02*
X150093330Y-74887055D01*
X150153540Y-80199965D02*
X150627490Y-75421725D01*
X150627490Y-75421725D02*
X152377310Y-75411045D01*
X144093350Y-74887055D02*
X146976510Y-74898235D01*
X143743340Y-80629995D02*
X144093350Y-74887055D01*
X150401190Y-77953595D02*
X152661280Y-77953585D01*
X150093330Y-74887055D02*
X152976490Y-74898225D01*
X152377310Y-75411045D02*
X152452500Y-76089235D01*
X152976490Y-74898225D02*
X153471540Y-80633285D01*
X141301080Y-84687815D02*
X141301080Y-73603615D01*
X141301080Y-88073605D02*
X143955940Y-88073605D01*
X146962790Y-80629485D02*
X147471570Y-80633305D01*
X141301080Y-88073605D02*
X141301090Y-87119405D01*
X144123580Y-80629995D02*
X144153540Y-80199965D01*
X146452500Y-76089235D02*
X146962790Y-80629485D01*
D13*
%TO.C,FET6*%
X143201090Y-96978605D02*
G75*
G02*
X142951090Y-96978605I-125000J0D01*
G01*
X142951090Y-96978605D02*
G75*
G02*
X143201090Y-96978605I125000J0D01*
G01*
D14*
X140951090Y-94528605D02*
X140951090Y-93703605D01*
X140951090Y-93703605D02*
X142251090Y-93703605D01*
X140951090Y-96703605D02*
X140951090Y-95878605D01*
X140951090Y-96703605D02*
X142251090Y-96703605D01*
D13*
%TO.C,FET5*%
X150401090Y-96978595D02*
G75*
G02*
X150151090Y-96978595I-125000J0D01*
G01*
X150151090Y-96978595D02*
G75*
G02*
X150401090Y-96978595I125000J0D01*
G01*
D14*
X148151090Y-96703595D02*
X149451090Y-96703595D01*
X148151090Y-96703595D02*
X148151090Y-95878595D01*
X148151090Y-93703595D02*
X149451090Y-93703595D01*
X148151090Y-94528595D02*
X148151090Y-93703595D01*
D13*
%TO.C,FET4*%
X154001090Y-96978605D02*
G75*
G02*
X153751090Y-96978605I-125000J0D01*
G01*
X153751090Y-96978605D02*
G75*
G02*
X154001090Y-96978605I125000J0D01*
G01*
D14*
X151751090Y-94528605D02*
X151751090Y-93703605D01*
X151751090Y-93703605D02*
X153051090Y-93703605D01*
X151751090Y-96703605D02*
X151751090Y-95878605D01*
X151751090Y-96703605D02*
X153051090Y-96703605D01*
D13*
%TO.C,FET3*%
X146801090Y-96978605D02*
G75*
G02*
X146551090Y-96978605I-125000J0D01*
G01*
X146551090Y-96978605D02*
G75*
G02*
X146801090Y-96978605I125000J0D01*
G01*
D14*
X144551090Y-94528605D02*
X144551090Y-93703605D01*
X144551090Y-93703605D02*
X145851090Y-93703605D01*
X144551090Y-96703605D02*
X144551090Y-95878605D01*
X144551090Y-96703605D02*
X145851090Y-96703605D01*
D13*
%TO.C,FET2*%
X161201090Y-96978605D02*
G75*
G02*
X160951090Y-96978605I-125000J0D01*
G01*
X160951090Y-96978605D02*
G75*
G02*
X161201090Y-96978605I125000J0D01*
G01*
D14*
X158951090Y-94528605D02*
X158951090Y-93703605D01*
X158951090Y-93703605D02*
X160251090Y-93703605D01*
X158951090Y-96703605D02*
X158951090Y-95878605D01*
X158951090Y-96703605D02*
X160251090Y-96703605D01*
D13*
%TO.C,FET1*%
X157601090Y-96978605D02*
G75*
G02*
X157351090Y-96978605I-125000J0D01*
G01*
X157351090Y-96978605D02*
G75*
G02*
X157601090Y-96978605I125000J0D01*
G01*
D14*
X155351090Y-94528605D02*
X155351090Y-93703605D01*
X155351090Y-93703605D02*
X156651090Y-93703605D01*
X155351090Y-96703605D02*
X155351090Y-95878605D01*
X155351090Y-96703605D02*
X156651090Y-96703605D01*
D12*
%TO.C,F2*%
X132992980Y-88293405D02*
X134008980Y-88293405D01*
X134364580Y-89195105D02*
X134364580Y-87391705D01*
X132637380Y-89195105D02*
X132637380Y-87391705D01*
X132637380Y-90096805D02*
X134364580Y-90096805D01*
X132637380Y-86490005D02*
X134364580Y-86490005D01*
%TO.C,F1*%
X170637550Y-86490495D02*
X172364750Y-86490495D01*
X170637550Y-90097305D02*
X172364750Y-90097305D01*
X170637550Y-89195595D02*
X170637550Y-87392195D01*
X172364750Y-89195595D02*
X172364750Y-87392195D01*
X170993150Y-88293895D02*
X172009150Y-88293895D01*
D10*
%TO.C,D2*%
X134075980Y-92953715D02*
X134200990Y-92953715D01*
X132800980Y-92953715D02*
X132925980Y-92953715D01*
X134075980Y-91153715D02*
X134200990Y-91153715D01*
X132800980Y-91153715D02*
X132925980Y-91153715D01*
X132800980Y-92953715D02*
X132800980Y-91153715D01*
X134200990Y-92953715D02*
X134200990Y-91153715D01*
G36*
X134200980Y-92053715D02*
G01*
X132800980Y-92053715D01*
X132800980Y-91353715D01*
X134200980Y-91353715D01*
X134200980Y-92053715D01*
G37*
G36*
X133000985Y-91640220D02*
G01*
X132800975Y-91640220D01*
X132800975Y-91090220D01*
X133000985Y-91090220D01*
X133000985Y-91640220D01*
G37*
G36*
X134200990Y-91640205D02*
G01*
X134000990Y-91640205D01*
X134000990Y-91090205D01*
X134200990Y-91090205D01*
X134200990Y-91640205D01*
G37*
%TO.C,D1*%
X172201160Y-92954215D02*
X172201160Y-91154205D01*
X170801150Y-92954215D02*
X170801150Y-91154205D01*
X170801150Y-91154205D02*
X170926150Y-91154205D01*
X172076150Y-91154205D02*
X172201160Y-91154205D01*
X170801150Y-92954215D02*
X170926150Y-92954215D01*
X172076150Y-92954215D02*
X172201160Y-92954215D01*
G36*
X172201165Y-91640710D02*
G01*
X172001155Y-91640710D01*
X172001155Y-91090710D01*
X172201165Y-91090710D01*
X172201165Y-91640710D01*
G37*
G36*
X171001160Y-91640715D02*
G01*
X170801150Y-91640715D01*
X170801150Y-91090705D01*
X171001160Y-91090705D01*
X171001160Y-91640715D01*
G37*
G36*
X172201160Y-92054205D02*
G01*
X170801160Y-92054205D01*
X170801160Y-91354205D01*
X172201160Y-91354205D01*
X172201160Y-92054205D01*
G37*
D14*
%TO.C,C5*%
X126487567Y-102636436D02*
G75*
G02*
X132516143Y-102641478I3013523J-917159D01*
G01*
X132516221Y-104465742D02*
G75*
G02*
X126485959Y-104465741I-3015131J911857D01*
G01*
X132803090Y-106855595D02*
X132803090Y-104442595D01*
X126199090Y-101775595D02*
X127723090Y-100251595D01*
X126199090Y-105331595D02*
X127723090Y-106855595D01*
X127723090Y-106855595D02*
X132803090Y-106855595D01*
X127723090Y-100251595D02*
X132803090Y-100251595D01*
X132803090Y-102664595D02*
X132803090Y-100251595D01*
X130390090Y-106474595D02*
X130390090Y-100632595D01*
X126199090Y-105331595D02*
X126199090Y-104442595D01*
X126199090Y-102664595D02*
X126199090Y-101775595D01*
D15*
G36*
X130859990Y-100683395D02*
G01*
X131571190Y-101140595D01*
X132053790Y-101673995D01*
X132510990Y-102613795D01*
X132510990Y-102740795D01*
X130402790Y-102740795D01*
X130402790Y-100530995D01*
X130859990Y-100683395D01*
G37*
G36*
X132510990Y-104493395D02*
G01*
X132053790Y-105433195D01*
X131571190Y-105966595D01*
X130859990Y-106423795D01*
X130402790Y-106576195D01*
X130402790Y-104366395D01*
X132510990Y-104366395D01*
X132510990Y-104493395D01*
G37*
%TD*%
M02*
