%TF.GenerationSoftware,KiCad,Pcbnew,9.0.7*%
%TF.CreationDate,2026-03-03T11:17:45+08:00*%
%TF.ProjectId,AI_Pyramid_PCB_HDMI_V0.3_20251031,41495f50-7972-4616-9d69-645f5043425f,rev?*%
%TF.SameCoordinates,Original*%
%TF.FileFunction,Profile,NP*%
%FSLAX46Y46*%
G04 Gerber Fmt 4.6, Leading zero omitted, Abs format (unit mm)*
G04 Created by KiCad (PCBNEW 9.0.7) date 2026-03-03 11:17:45*
%MOMM*%
%LPD*%
G01*
G04 APERTURE LIST*
%TA.AperFunction,Profile*%
%ADD10C,0.050000*%
%TD*%
G04 APERTURE END LIST*
D10*
X115501100Y-131253605D02*
X115501100Y-84753595D01*
X115501100Y-84753595D02*
X123501100Y-76753595D01*
X123501100Y-76753595D02*
X138001090Y-76753595D01*
X138001090Y-76753595D02*
X138501090Y-77253605D01*
X138501090Y-77253605D02*
X138501090Y-78253605D01*
X140501090Y-78253605D02*
G75*
G02*
X138501090Y-78253605I-1000000J0D01*
G01*
X140501090Y-78253605D02*
X140501090Y-77253605D01*
X140501090Y-77253605D02*
X141001100Y-76753595D01*
X141001100Y-76753595D02*
X156001090Y-76753595D01*
X156001090Y-76753595D02*
X156501090Y-77253605D01*
X156501090Y-77253605D02*
X156501090Y-78253605D01*
X158501090Y-78253605D02*
G75*
G02*
X156501090Y-78253605I-1000000J0D01*
G01*
X158501090Y-78253605D02*
X158501090Y-77253605D01*
X158501090Y-77253605D02*
X159001100Y-76753595D01*
X159001100Y-76753595D02*
X173501090Y-76753595D01*
X173501090Y-76753595D02*
X181501100Y-84753595D01*
X181501100Y-84753595D02*
X181501100Y-99253605D01*
X181501100Y-99253605D02*
X179501100Y-101253605D01*
X179501100Y-101253605D02*
X166501090Y-101253605D01*
X166501090Y-101253605D02*
X166501090Y-99253605D01*
X166501090Y-99253605D02*
X160501100Y-99253605D01*
X160501100Y-99253605D02*
X160501100Y-101253605D01*
X160501100Y-101253605D02*
X147501100Y-101253605D01*
X147501100Y-101253605D02*
X146501100Y-102253605D01*
X146501100Y-102253605D02*
X146501100Y-111253605D01*
X146501100Y-111253605D02*
X145501090Y-112253605D01*
X145501090Y-112253605D02*
X135501090Y-112253605D01*
X135501090Y-112253605D02*
X135501090Y-133253605D01*
X135501090Y-133253605D02*
X117501090Y-133253605D01*
X117501090Y-133253605D02*
X115501100Y-131253605D01*
M02*
