%TF.GenerationSoftware,KiCad,Pcbnew,9.0.7*%
%TF.CreationDate,2026-03-03T11:17:45+08:00*%
%TF.ProjectId,AI_Pyramid_PCB_HDMI_V0.3_20251031,41495f50-7972-4616-9d69-645f5043425f,rev?*%
%TF.SameCoordinates,Original*%
%TF.FileFunction,Soldermask,Top*%
%TF.FilePolarity,Negative*%
%FSLAX46Y46*%
G04 Gerber Fmt 4.6, Leading zero omitted, Abs format (unit mm)*
G04 Created by KiCad (PCBNEW 9.0.7) date 2026-03-03 11:17:45*
%MOMM*%
%LPD*%
G01*
G04 APERTURE LIST*
G04 Aperture macros list*
%AMRoundRect*
0 Rectangle with rounded corners*
0 $1 Rounding radius*
0 $2 $3 $4 $5 $6 $7 $8 $9 X,Y pos of 4 corners*
0 Add a 4 corners polygon primitive as box body*
4,1,4,$2,$3,$4,$5,$6,$7,$8,$9,$2,$3,0*
0 Add four circle primitives for the rounded corners*
1,1,$1+$1,$2,$3*
1,1,$1+$1,$4,$5*
1,1,$1+$1,$6,$7*
1,1,$1+$1,$8,$9*
0 Add four rect primitives between the rounded corners*
20,1,$1+$1,$2,$3,$4,$5,0*
20,1,$1+$1,$4,$5,$6,$7,0*
20,1,$1+$1,$6,$7,$8,$9,0*
20,1,$1+$1,$8,$9,$2,$3,0*%
G04 Aperture macros list end*
%ADD10C,2.000000*%
%ADD11RoundRect,0.050800X0.400000X0.375000X-0.400000X0.375000X-0.400000X-0.375000X0.400000X-0.375000X0*%
%ADD12RoundRect,0.050800X-0.375000X0.400000X-0.375000X-0.400000X0.375000X-0.400000X0.375000X0.400000X0*%
%ADD13RoundRect,0.050800X0.275000X-0.150000X0.275000X0.150000X-0.275000X0.150000X-0.275000X-0.150000X0*%
%ADD14RoundRect,0.050800X0.275000X-0.200000X0.275000X0.200000X-0.275000X0.200000X-0.275000X-0.200000X0*%
%ADD15RoundRect,0.050800X-0.275000X0.150000X-0.275000X-0.150000X0.275000X-0.150000X0.275000X0.150000X0*%
%ADD16RoundRect,0.050800X-0.425000X0.275000X-0.425000X-0.275000X0.425000X-0.275000X0.425000X0.275000X0*%
%ADD17RoundRect,0.050800X1.500000X-0.762000X1.500000X0.762000X-1.500000X0.762000X-1.500000X-0.762000X0*%
%ADD18RoundRect,0.050800X-0.450000X-0.425000X0.450000X-0.425000X0.450000X0.425000X-0.450000X0.425000X0*%
%ADD19RoundRect,0.050800X-0.425000X0.450000X-0.425000X-0.450000X0.425000X-0.450000X0.425000X0.450000X0*%
%ADD20O,3.101590X1.401600*%
%ADD21RoundRect,0.050800X1.000000X-0.325005X1.000000X0.325005X-1.000000X0.325005X-1.000000X-0.325005X0*%
%ADD22RoundRect,0.050800X0.425000X-0.275000X0.425000X0.275000X-0.425000X0.275000X-0.425000X-0.275000X0*%
%ADD23RoundRect,0.050800X0.200000X0.275000X-0.200000X0.275000X-0.200000X-0.275000X0.200000X-0.275000X0*%
%ADD24RoundRect,0.050800X0.150000X0.275000X-0.150000X0.275000X-0.150000X-0.275000X0.150000X-0.275000X0*%
%ADD25RoundRect,0.050800X-0.150000X-0.275000X0.150000X-0.275000X0.150000X0.275000X-0.150000X0.275000X0*%
%ADD26RoundRect,0.050800X0.375000X-0.400000X0.375000X0.400000X-0.375000X0.400000X-0.375000X-0.400000X0*%
%ADD27RoundRect,0.050800X0.150000X0.150000X-0.150000X0.150000X-0.150000X-0.150000X0.150000X-0.150000X0*%
%ADD28O,1.701600X3.401590*%
%ADD29O,1.701600X2.801600*%
%ADD30O,0.350800X2.650800*%
%ADD31O,1.401600X3.101590*%
%ADD32RoundRect,0.050800X0.325005X1.000000X-0.325005X1.000000X-0.325005X-1.000000X0.325005X-1.000000X0*%
%ADD33RoundRect,0.050800X0.635000X-0.635000X0.635000X0.635000X-0.635000X0.635000X-0.635000X-0.635000X0*%
%ADD34RoundRect,0.050800X0.415000X-0.315000X0.415000X0.315000X-0.415000X0.315000X-0.415000X-0.315000X0*%
%ADD35RoundRect,0.050800X0.260000X0.250000X-0.260000X0.250000X-0.260000X-0.250000X0.260000X-0.250000X0*%
%ADD36C,2.101600*%
G04 APERTURE END LIST*
D10*
X119501090Y-108753605D02*
G75*
G02*
X117501090Y-108753605I-1000000J0D01*
G01*
X117501090Y-108753605D02*
G75*
G02*
X119501090Y-108753605I1000000J0D01*
G01*
X179501090Y-95253605D02*
G75*
G02*
X177501090Y-95253605I-1000000J0D01*
G01*
X177501090Y-95253605D02*
G75*
G02*
X179501090Y-95253605I1000000J0D01*
G01*
D11*
%TO.C,R19*%
X117801090Y-112128605D03*
X117801090Y-113378605D03*
%TD*%
D12*
%TO.C,R18*%
X122476100Y-110503605D03*
X121226100Y-110503605D03*
%TD*%
D13*
%TO.C,U10*%
X120890890Y-126253595D03*
X120890890Y-125753595D03*
D14*
X120890890Y-125253595D03*
D15*
X120890890Y-124753595D03*
X120890890Y-124253595D03*
X120094090Y-124253595D03*
X120094090Y-124753595D03*
D14*
X120094090Y-125253595D03*
D13*
X120094090Y-125753595D03*
X120094090Y-126253595D03*
%TD*%
D16*
%TO.C,U11*%
X119726100Y-114053605D03*
X119726100Y-112153605D03*
X122276100Y-112153605D03*
X122276100Y-113103605D03*
X122276100Y-114053605D03*
%TD*%
D17*
%TO.C,C12*%
X126961090Y-114203605D03*
X132041090Y-114203605D03*
%TD*%
D18*
%TO.C,C10*%
X123901090Y-112978605D03*
X123901090Y-114228605D03*
%TD*%
D19*
%TO.C,C8*%
X120926090Y-115903605D03*
X119676090Y-115903605D03*
%TD*%
D20*
%TO.C,J7*%
X125051070Y-118853545D03*
X125051060Y-131653595D03*
D21*
X123951050Y-129253575D03*
X123951060Y-127253585D03*
X123951070Y-125253585D03*
X123951070Y-123253585D03*
X123951070Y-121253595D03*
X123951080Y-122253585D03*
X123951070Y-124253585D03*
X123951060Y-126253575D03*
X123951060Y-128253585D03*
%TD*%
D22*
%TO.C,U4*%
X141726090Y-109253605D03*
X141726090Y-111153595D03*
X144276090Y-111153595D03*
X144276090Y-109253605D03*
X141726090Y-110203605D03*
%TD*%
D23*
%TO.C,U2*%
X148501080Y-89809805D03*
X148501080Y-90606605D03*
D24*
X149501080Y-90606605D03*
X149001080Y-90606605D03*
D25*
X148001080Y-90606605D03*
X147501080Y-90606605D03*
X147501080Y-89809805D03*
X148001080Y-89809805D03*
D24*
X149001080Y-89809805D03*
X149501080Y-89809805D03*
%TD*%
D16*
%TO.C,U1*%
X119726100Y-103403595D03*
X119726100Y-101503595D03*
X122276100Y-101503595D03*
X122276100Y-102453595D03*
X122276100Y-103403595D03*
%TD*%
D12*
%TO.C,R17*%
X142426090Y-93053605D03*
X141176090Y-93053605D03*
%TD*%
%TO.C,R16*%
X141176090Y-97353605D03*
X142426090Y-97353605D03*
%TD*%
%TO.C,R15*%
X149626090Y-93053595D03*
X148376090Y-93053595D03*
%TD*%
%TO.C,R14*%
X149626090Y-97353595D03*
X148376090Y-97353595D03*
%TD*%
%TO.C,R13*%
X151976090Y-93053605D03*
X153226090Y-93053605D03*
%TD*%
%TO.C,R12*%
X151976090Y-97353605D03*
X153226090Y-97353605D03*
%TD*%
%TO.C,R11*%
X144776090Y-93053605D03*
X146026090Y-93053605D03*
%TD*%
%TO.C,R10*%
X144776090Y-97353605D03*
X146026090Y-97353605D03*
%TD*%
%TO.C,R9*%
X159176090Y-93053605D03*
X160426090Y-93053605D03*
%TD*%
%TO.C,R8*%
X159176090Y-97353605D03*
X160426090Y-97353605D03*
%TD*%
%TO.C,R7*%
X155576090Y-93053605D03*
X156826090Y-93053605D03*
%TD*%
%TO.C,R6*%
X155576090Y-97353605D03*
X156826090Y-97353605D03*
%TD*%
D11*
%TO.C,R5*%
X135148030Y-109303795D03*
X135148030Y-110553795D03*
%TD*%
D26*
%TO.C,R3*%
X133923030Y-109303795D03*
X132673030Y-109303795D03*
%TD*%
D12*
%TO.C,R1*%
X121226100Y-99853605D03*
X122476100Y-99853605D03*
%TD*%
D27*
%TO.C,L8*%
X130251090Y-87103605D03*
X129751090Y-87103605D03*
X130251090Y-87603605D03*
X129751090Y-87603605D03*
%TD*%
%TO.C,L7*%
X167751260Y-87096095D03*
X168251260Y-87096095D03*
X167751260Y-86596095D03*
X168251260Y-86596095D03*
%TD*%
%TO.C,L6*%
X128751090Y-87103605D03*
X128251090Y-87103605D03*
X128751090Y-87603605D03*
X128251090Y-87603605D03*
%TD*%
%TO.C,L5*%
X166251260Y-87096095D03*
X166751260Y-87096095D03*
X166251260Y-86596095D03*
X166751260Y-86596095D03*
%TD*%
%TO.C,L4*%
X127251090Y-87103605D03*
X126751090Y-87103605D03*
X127251090Y-87603605D03*
X126751090Y-87603605D03*
%TD*%
%TO.C,L3*%
X164751260Y-87096095D03*
X165251260Y-87096095D03*
X164751260Y-86596095D03*
X165251260Y-86596095D03*
%TD*%
%TO.C,L2*%
X125751090Y-87103605D03*
X125251090Y-87103605D03*
X125751090Y-87603605D03*
X125251090Y-87603605D03*
%TD*%
%TO.C,L1*%
X163251260Y-87096095D03*
X163751260Y-87096095D03*
X163251260Y-86596095D03*
X163751260Y-86596095D03*
%TD*%
D28*
%TO.C,J4*%
X122251000Y-83773105D03*
D29*
X122251000Y-77773095D03*
X136751000Y-77773095D03*
D28*
X136751000Y-83773095D03*
D30*
X131000990Y-84773115D03*
X131501000Y-84773105D03*
X133500980Y-84773105D03*
X132000990Y-84773105D03*
X132501000Y-84773115D03*
X134000990Y-84773105D03*
X129001000Y-84773105D03*
X128001000Y-84773105D03*
X127501000Y-84773105D03*
X126501010Y-84773105D03*
X126001000Y-84773105D03*
X125001000Y-84773105D03*
X130500990Y-84773105D03*
X129501000Y-84773105D03*
X128501000Y-84773105D03*
X127001000Y-84773105D03*
X125501010Y-84773095D03*
X133000990Y-84773115D03*
X130008990Y-84773105D03*
%TD*%
D28*
%TO.C,J3*%
X160251170Y-83773605D03*
D29*
X160251170Y-77773595D03*
X174751170Y-77773595D03*
D28*
X174751170Y-83773595D03*
D30*
X166501170Y-84773605D03*
X165001170Y-84773605D03*
X163501180Y-84773595D03*
X171001160Y-84773605D03*
X168009160Y-84773605D03*
X169001160Y-84773615D03*
X169501170Y-84773605D03*
X171501150Y-84773605D03*
X170001170Y-84773605D03*
X170501170Y-84773615D03*
X172001160Y-84773605D03*
X167001170Y-84773605D03*
X166001170Y-84773605D03*
X165501170Y-84773605D03*
X164501180Y-84773605D03*
X164001170Y-84773595D03*
X163001170Y-84773595D03*
X168501160Y-84773605D03*
X167501170Y-84773605D03*
%TD*%
D31*
%TO.C,J2*%
X154901100Y-85903625D03*
X142101060Y-85903605D03*
D32*
X151501090Y-87003615D03*
X149501090Y-87003615D03*
X147501090Y-87003615D03*
X145501090Y-87003605D03*
X144501100Y-87003615D03*
X146501100Y-87003615D03*
X148501090Y-87003615D03*
X150501090Y-87003625D03*
X152501080Y-87003625D03*
%TD*%
D16*
%TO.C,FET6*%
X140526090Y-95203605D03*
X143076090Y-94253605D03*
X143076090Y-96153605D03*
%TD*%
%TO.C,FET5*%
X150276090Y-96153595D03*
X150276090Y-94253595D03*
X147726090Y-95203595D03*
%TD*%
%TO.C,FET4*%
X151326090Y-95203605D03*
X153876090Y-94253605D03*
X153876090Y-96153605D03*
%TD*%
%TO.C,FET3*%
X144126090Y-95203605D03*
X146676090Y-94253605D03*
X146676090Y-96153605D03*
%TD*%
%TO.C,FET2*%
X158526090Y-95203605D03*
X161076090Y-94253605D03*
X161076090Y-96153605D03*
%TD*%
%TO.C,FET1*%
X154926090Y-95203605D03*
X157476090Y-94253605D03*
X157476090Y-96153605D03*
%TD*%
D33*
%TO.C,F2*%
X133500980Y-89233205D03*
X133500980Y-87353605D03*
%TD*%
%TO.C,F1*%
X171501150Y-87354095D03*
X171501150Y-89233695D03*
%TD*%
D34*
%TO.C,D2*%
X133500980Y-90938715D03*
X133500980Y-93168705D03*
%TD*%
%TO.C,D1*%
X171501150Y-93169205D03*
X171501150Y-90939215D03*
%TD*%
D35*
%TO.C,C7*%
X145501090Y-109488595D03*
X145501090Y-110318595D03*
%TD*%
%TO.C,C6*%
X140501090Y-109488595D03*
X140501090Y-110318605D03*
%TD*%
D17*
%TO.C,C5*%
X126961090Y-103553595D03*
X132041090Y-103553595D03*
%TD*%
D18*
%TO.C,C4*%
X123901090Y-103578595D03*
X123901090Y-102328595D03*
%TD*%
D19*
%TO.C,C1*%
X120926090Y-105253595D03*
X119676090Y-105253595D03*
%TD*%
D36*
%TO.C,*%
X118501090Y-108753605D03*
%TD*%
%TO.C,*%
X178501090Y-95253605D03*
%TD*%
M02*
